<svg xmlns="http://www.w3.org/2000/svg" xmlns:xlink="http://www.w3.org/1999/xlink" width="1366" zoomAndPan="magnify" viewBox="0 0 1024.5 576" height="768" preserveAspectRatio="xMidYMid meet" version="1.0"><defs><clipPath id="65e932c7a4"><path d="M 0 0.140625 L 1024 0.140625 L 1024 575.859375 L 0 575.859375 Z M 0 0.140625 " clip-rule="nonzero"/></clipPath><clipPath id="ff11d68eaa"><path d="M 0 268 L 323 268 L 323 575.859375 L 0 575.859375 Z M 0 268 " clip-rule="nonzero"/></clipPath></defs><g clip-path="url(#65e932c7a4)"><path fill="#ffffff" d="M 0 0.140625 L 1024 0.140625 L 1024 575.859375 L 0 575.859375 Z M 0 0.140625 " fill-opacity="1" fill-rule="nonzero"/><path fill="#ffffff" d="M 0 0.140625 L 1024 0.140625 L 1024 575.859375 L 0 575.859375 Z M 0 0.140625 " fill-opacity="1" fill-rule="nonzero"/></g><g clip-path="url(#ff11d68eaa)"><path fill="#87B8C0" d="M 10.960938 646.183594 C 4.832031 646.183594 -1.222656 644.941406 -6.183594 642.390625 C -12.53125 639.179688 -16.835938 634.289062 -18.585938 628.089844 C -22.746094 613.714844 -11.730469 588.980469 -3.703125 570.957031 C -1.953125 567.019531 -0.273438 563.296875 0.964844 560.160156 C 5.269531 549.507812 5.636719 537.613281 6 526.015625 C 6.367188 512.953125 6.804688 499.382812 13.003906 487.855469 C 18.476562 477.640625 28.035156 470.125 36.5 463.484375 C 58.023438 446.558594 113.253906 407.523438 161.703125 411.171875 C 182.496094 411.242188 188.625 418.539062 202.125 434.445312 L 202.632812 435.03125 C 211.390625 445.390625 209.347656 448.308594 205.335938 454.144531 C 202.925781 457.574219 200.007812 461.878906 197.964844 469.394531 C 192.636719 488.804688 187.96875 492.960938 175.417969 504.269531 C 173.667969 505.875 171.769531 507.554688 169.726562 509.453125 C 156.15625 521.929688 118.800781 538.125 102.820312 545.058594 C 93.335938 549.144531 93.265625 566.363281 93.117188 582.996094 C 92.972656 599.707031 92.898438 616.996094 83.339844 621.523438 C 71.957031 626.921875 55.6875 632.683594 41.386719 637.792969 C 35.84375 639.761719 30.589844 641.660156 25.992188 643.335938 C 21.25 645.308594 16.070312 646.183594 10.960938 646.183594 Z M 155.28125 411.609375 C 108.660156 411.609375 57.4375 447.871094 36.9375 463.996094 C 28.546875 470.5625 19.0625 478.078125 13.589844 488.21875 C 7.386719 499.675781 7.023438 513.097656 6.65625 526.085938 C 6.292969 537.6875 5.925781 549.652344 1.550781 560.378906 C 0.308594 563.515625 -1.367188 567.238281 -3.121094 571.175781 C -11.144531 589.125 -22.089844 613.714844 -18.003906 627.941406 C -16.253906 633.925781 -12.09375 638.8125 -5.890625 641.878906 C 3.082031 646.402344 15.484375 646.839844 25.773438 642.972656 C 30.371094 641.292969 35.625 639.398438 41.167969 637.425781 C 55.46875 632.320312 71.667969 626.554688 83.050781 621.15625 C 92.316406 616.777344 92.460938 599.632812 92.535156 583.144531 C 92.679688 566.363281 92.753906 548.925781 102.53125 544.691406 C 118.4375 537.761719 155.71875 521.636719 169.21875 509.160156 C 171.261719 507.261719 173.230469 505.511719 174.980469 503.980469 C 187.386719 492.816406 192.054688 488.585938 197.382812 469.394531 C 199.496094 461.808594 202.5625 457.285156 204.894531 454 C 208.910156 448.234375 210.660156 445.535156 202.269531 435.539062 L 201.757812 434.957031 C 188.40625 419.125 182.351562 411.972656 161.777344 411.828125 L 161.777344 411.535156 L 161.777344 411.828125 C 159.585938 411.753906 157.46875 411.609375 155.28125 411.609375 Z M 12.640625 647.789062 C 8.117188 647.789062 3.519531 647.132812 -0.859375 645.890625 C -11.21875 642.898438 -18.585938 636.699219 -21.652344 628.308594 C -24.277344 621.230469 -23.839844 611.234375 -20.410156 599.558594 C -17.347656 588.980469 -12.167969 578.402344 -7.570312 569.132812 C -5.234375 564.390625 -3.046875 559.941406 -1.441406 556.074219 C 3.007812 545.277344 3.445312 533.164062 3.886719 521.488281 C 4.324219 508.722656 4.832031 495.515625 10.597656 484.058594 C 15.195312 475.011719 22.855469 468.082031 30.296875 461.441406 C 31.101562 460.710938 31.976562 459.910156 32.777344 459.179688 C 52.257812 441.667969 74.4375 426.929688 95.234375 417.738281 C 123.105469 405.40625 145.941406 400.664062 166.957031 402.851562 C 187.75 403.292969 194.242188 411.390625 207.304688 427.585938 L 207.667969 428.023438 C 216.132812 438.53125 213.871094 442.324219 209.710938 449.183594 C 207.449219 452.976562 204.605469 457.722656 202.707031 465.089844 C 202.050781 467.496094 201.46875 469.761719 200.957031 471.875 C 196.359375 488.65625 192.785156 492.671875 180.964844 505.949219 L 178.996094 508.136719 C 165.277344 523.605469 124.855469 543.160156 116.902344 546.953125 L 114.496094 548.121094 C 104.71875 552.71875 103.257812 568.988281 101.945312 584.75 C 100.558594 600.726562 99.171875 617.289062 88.886719 621.960938 C 69.039062 630.789062 48.464844 638.667969 27.816406 645.453125 L 26.867188 645.746094 C 22.199219 647.132812 17.382812 647.789062 12.640625 647.789062 Z M 156.960938 402.925781 C 138.792969 402.925781 118.945312 407.886719 95.453125 418.25 C 74.660156 427.441406 52.550781 442.105469 33.070312 459.617188 C 32.265625 460.347656 31.390625 461.148438 30.589844 461.878906 C 23.21875 468.519531 15.558594 475.304688 10.960938 484.28125 C 5.269531 495.589844 4.761719 508.722656 4.324219 521.417969 C 3.886719 533.164062 3.445312 545.347656 -1.003906 556.21875 C -2.609375 560.085938 -4.796875 564.609375 -7.132812 569.355469 C -11.730469 578.621094 -16.835938 589.199219 -19.972656 599.707031 C -23.402344 611.308594 -23.839844 621.15625 -21.214844 628.160156 C -18.222656 636.332031 -10.925781 642.460938 -0.785156 645.378906 C 8.261719 647.933594 17.746094 647.859375 26.722656 645.160156 L 27.671875 644.871094 C 48.320312 638.085938 68.820312 630.203125 88.738281 621.375 C 98.734375 616.851562 100.121094 600.507812 101.433594 584.601562 C 102.820312 568.695312 104.207031 552.28125 114.277344 547.539062 L 116.683594 546.441406 C 124.636719 542.648438 164.984375 523.167969 178.628906 507.773438 L 180.601562 505.585938 C 192.636719 492.011719 195.921875 488.367188 200.445312 471.730469 C 201.027344 469.6875 201.613281 467.425781 202.195312 465.015625 C 204.09375 457.574219 206.9375 452.832031 209.273438 448.964844 C 213.285156 442.253906 215.476562 438.605469 207.230469 428.390625 L 206.867188 427.953125 C 193.953125 411.902344 187.457031 403.875 166.882812 403.4375 C 163.671875 403.070312 160.390625 402.925781 156.960938 402.925781 Z M 14.683594 649.464844 C 9.136719 649.464844 3.375 648.664062 -1.953125 646.984375 C -9.757812 644.578125 -19.972656 639.46875 -24.863281 628.527344 C -28.292969 620.71875 -28.4375 609.921875 -25.152344 598.027344 C -22.164062 587.011719 -16.398438 576.210938 -11.363281 566.652344 C -8.519531 561.328125 -5.890625 556.367188 -3.996094 551.914062 C 0.601562 540.972656 1.113281 528.714844 1.621094 516.820312 C 2.132812 504.34375 2.644531 491.429688 7.96875 480.195312 C 11.984375 471.730469 18.625 465.164062 25.042969 458.816406 C 26.355469 457.503906 27.671875 456.1875 28.984375 454.875 C 40.292969 443.347656 63.859375 422.117188 94.867188 409.128906 C 116.976562 399.863281 143.390625 390.886719 172.210938 394.535156 C 192.929688 395.410156 199.933594 404.457031 212.558594 420.800781 L 212.703125 420.949219 C 220.875 431.601562 218.394531 436.34375 214.164062 444.296875 C 211.972656 448.382812 209.273438 453.488281 207.523438 460.785156 C 206.9375 463.484375 206.355469 465.820312 205.84375 467.9375 C 201.6875 486.6875 200.445312 490.117188 188.332031 506.75 C 176.878906 522.511719 144.265625 541.773438 128.652344 549.726562 C 128.140625 550.019531 127.628906 550.238281 127.117188 550.457031 C 126.828125 550.601562 126.460938 550.75 126.167969 550.894531 C 116.027344 555.929688 113.402344 571.324219 110.847656 586.136719 C 108.222656 601.457031 105.449219 617.289062 94.503906 622.03125 L 90.636719 623.710938 C 71.519531 632.027344 47.664062 642.390625 28.765625 647.496094 L 27.742188 647.789062 C 23.730469 648.882812 19.28125 649.464844 14.683594 649.464844 Z M 158.929688 394.097656 C 135.363281 394.097656 113.621094 401.6875 95.085938 409.492188 C 64.152344 422.480469 40.65625 443.640625 29.347656 455.167969 C 28.035156 456.480469 26.722656 457.792969 25.410156 459.105469 C 18.988281 465.453125 12.421875 471.949219 8.410156 480.339844 C 3.15625 491.503906 2.644531 504.34375 2.132812 516.746094 C 1.621094 528.714844 1.183594 541.042969 -3.484375 552.0625 C -5.382812 556.585938 -8.082031 561.546875 -10.855469 566.871094 C -15.886719 576.359375 -21.652344 587.15625 -24.644531 598.101562 C -27.855469 609.847656 -27.78125 620.574219 -24.351562 628.234375 C -19.609375 639.03125 -9.46875 644.066406 -1.804688 646.402344 C 7.898438 649.394531 18.625 649.683594 27.742188 647.203125 L 28.765625 646.914062 C 47.664062 641.730469 71.449219 631.445312 90.5625 623.125 L 94.429688 621.449219 C 105.15625 616.777344 107.855469 601.09375 110.484375 585.914062 C 113.035156 570.957031 115.734375 555.417969 126.097656 550.238281 C 126.386719 550.089844 126.753906 549.945312 127.046875 549.800781 C 127.554688 549.582031 128.066406 549.289062 128.578125 549.070312 C 144.191406 541.117188 176.734375 521.929688 188.113281 506.242188 C 200.371094 489.3125 201.394531 486.320312 205.480469 467.644531 C 205.992188 465.527344 206.5 463.121094 207.15625 460.421875 C 208.910156 453.050781 211.609375 447.945312 213.796875 443.785156 C 217.882812 436.050781 220.363281 431.382812 212.339844 421.09375 L 212.191406 420.949219 C 199.644531 404.675781 192.710938 395.703125 172.210938 394.898438 C 167.683594 394.390625 163.308594 394.097656 158.929688 394.097656 Z M 28.910156 649.832031 L 30.003906 649.613281 C 46.714844 645.671875 66.488281 636.988281 83.925781 629.253906 C 89.6875 626.703125 95.160156 624.292969 100.339844 622.179688 C 112.089844 617.289062 116.175781 602.1875 120.039062 587.519531 C 123.761719 573.585938 127.628906 559.210938 138.136719 553.667969 C 138.425781 553.519531 138.71875 553.375 139.085938 553.15625 C 139.59375 552.863281 140.105469 552.644531 140.617188 552.351562 C 158.054688 542.867188 187.675781 522.4375 197.890625 505.148438 C 206.792969 490.117188 207.523438 485.445312 209.492188 472.898438 C 209.929688 470.269531 210.367188 467.277344 210.953125 463.777344 C 211.316406 461.515625 211.902344 458.886719 212.484375 456.1875 C 214.089844 448.964844 216.570312 443.710938 218.757812 439.117188 C 222.917969 430.285156 225.691406 424.449219 217.8125 413.652344 C 205.625 397.164062 198.328125 387.167969 177.460938 385.925781 L 177.460938 386.4375 C 198.039062 387.675781 205.335938 397.527344 217.371094 413.945312 C 225.105469 424.449219 222.335938 430.140625 218.25 438.824219 C 216.058594 443.492188 213.578125 448.746094 211.902344 456.042969 C 211.316406 458.816406 210.734375 461.367188 210.367188 463.703125 C 209.785156 467.207031 209.273438 470.199219 208.910156 472.824219 C 206.9375 485.300781 206.28125 489.96875 197.382812 504.855469 C 190.667969 516.164062 168.34375 536.519531 140.25 551.84375 C 139.742188 552.132812 139.230469 552.425781 138.71875 552.644531 C 138.425781 552.792969 138.0625 553.011719 137.769531 553.15625 C 127.117188 558.773438 123.25 573.292969 119.457031 587.375 C 115.589844 601.894531 111.503906 616.851562 100.050781 621.667969 C 94.867188 623.855469 89.398438 626.265625 83.632812 628.746094 C 66.195312 636.40625 46.496094 645.089844 29.859375 649.027344 L 28.765625 649.246094 C 19.0625 651.507812 7.824219 650.851562 -2.828125 647.421875 C -14.5 643.703125 -23.039062 637.0625 -27.488281 628.308594 C -31.722656 619.988281 -32.378906 608.316406 -29.3125 596.421875 C -26.394531 584.894531 -20.121094 573.804688 -14.574219 564.027344 C -11.292969 558.261719 -8.152344 552.789062 -6.039062 547.683594 C -1.222656 536.519531 -0.710938 523.972656 -0.128906 511.859375 C 0.382812 499.746094 0.964844 487.199219 5.855469 476.179688 C 9.355469 468.226562 15.265625 461.808594 20.957031 455.605469 C 22.488281 454 24.023438 452.25 25.480469 450.570312 C 44.597656 428.753906 69.769531 410.515625 94.578125 400.664062 C 119.601562 390.667969 146.964844 381.984375 177.316406 386.363281 L 177.390625 385.851562 C 163.746094 383.882812 149.957031 384.394531 135.289062 387.3125 C 123.25 389.71875 110.628906 393.660156 94.429688 400.152344 C 69.625 410.078125 44.378906 428.316406 25.191406 450.277344 C 23.730469 451.957031 22.125 453.636719 20.667969 455.3125 C 14.902344 461.515625 8.992188 468.007812 5.488281 476.035156 C 0.601562 487.125 0.0195312 499.746094 -0.492188 511.933594 C -1.003906 523.972656 -1.585938 536.519531 -6.328125 547.539062 C -8.519531 552.570312 -11.582031 558.042969 -14.867188 563.808594 C -20.410156 573.585938 -26.757812 584.75 -29.679688 596.277344 C -32.742188 608.386719 -32.085938 620.136719 -27.855469 628.597656 C -23.332031 637.5 -14.71875 644.214844 -2.902344 647.933594 C 3.59375 650.050781 10.378906 651.070312 16.871094 651.070312 C 20.957031 651.21875 25.042969 650.707031 28.910156 649.832031 Z M 18.769531 652.96875 C 11.328125 652.96875 3.445312 651.65625 -4.140625 649.101562 C -16.691406 644.941406 -26.03125 637.9375 -31.136719 628.816406 C -36.316406 619.699219 -37.558594 607.292969 -34.492188 594.746094 C -31.574219 582.632812 -25.007812 571.617188 -18.660156 561.035156 C -14.941406 554.835938 -11.363281 548.925781 -8.957031 543.304688 C -4.066406 532.070312 -3.484375 519.375 -2.828125 507.117188 C -2.242188 495.222656 -1.585938 482.964844 2.863281 472.09375 C 6.074219 464.289062 11.472656 457.867188 16.652344 451.664062 C 18.257812 449.769531 19.863281 447.796875 21.46875 445.828125 C 40.511719 421.675781 66.996094 401.832031 94.140625 391.472656 C 126.242188 379.140625 152.289062 372.5 182.789062 377.390625 C 203.730469 379.066406 211.316406 389.9375 222.84375 406.429688 C 230.433594 417.226562 227.441406 424.304688 223.28125 434.007812 C 221.167969 438.898438 218.832031 444.515625 217.300781 451.664062 C 216.644531 454.65625 216.207031 457.355469 215.914062 459.691406 C 215.039062 466.183594 214.820312 470.925781 214.601562 475.085938 C 214.089844 484.425781 213.796875 490.042969 207.304688 503.613281 C 198.839844 521.199219 172.71875 543.234375 152.4375 554.980469 C 151.851562 555.273438 151.34375 555.636719 150.757812 555.929688 C 150.464844 556.074219 150.175781 556.21875 149.882812 556.4375 C 139.15625 562.421875 134.121094 575.847656 129.234375 588.835938 C 123.980469 602.769531 118.507812 617.289062 105.960938 622.324219 C 99.101562 625.097656 91.878906 628.378906 84.214844 631.808594 C 66.339844 639.910156 47.882812 648.300781 31.027344 651.726562 L 29.859375 651.945312 C 26.285156 652.675781 22.636719 652.96875 18.769531 652.96875 Z M 162.652344 376.367188 C 140.25 376.367188 119.019531 382.496094 94.210938 391.980469 C 67.144531 402.34375 40.804688 422.117188 21.761719 446.191406 C 20.226562 448.164062 18.550781 450.132812 16.945312 452.03125 C 11.765625 458.160156 6.4375 464.578125 3.300781 472.3125 C -1.148438 483.113281 -1.734375 495.371094 -2.316406 507.191406 C -2.902344 519.519531 -3.558594 532.214844 -8.445312 543.597656 C -10.925781 549.214844 -14.429688 555.125 -18.148438 561.328125 C -24.496094 571.90625 -31.0625 582.777344 -33.910156 594.890625 C -36.902344 607.292969 -35.660156 619.550781 -30.625 628.527344 C -25.519531 637.644531 -16.472656 644.359375 -3.921875 648.519531 C 7.53125 652.386719 19.5 653.40625 29.785156 651.363281 L 30.953125 651.144531 C 47.734375 647.714844 66.195312 639.398438 83.996094 631.296875 C 91.660156 627.871094 98.882812 624.585938 105.742188 621.8125 C 118.070312 616.851562 123.46875 602.476562 128.652344 588.617188 C 133.613281 575.554688 138.644531 562.058594 149.519531 555.929688 C 149.808594 555.78125 150.101562 555.636719 150.394531 555.417969 C 150.902344 555.125 151.488281 554.835938 152 554.46875 C 172.210938 542.722656 198.257812 520.832031 206.648438 503.324219 C 213.140625 489.824219 213.433594 484.28125 213.871094 475.011719 C 214.089844 470.855469 214.308594 466.113281 215.183594 459.546875 C 215.476562 457.210938 215.988281 454.4375 216.570312 451.445312 C 218.101562 444.222656 220.4375 438.605469 222.554688 433.714844 C 226.640625 424.160156 229.558594 417.226562 222.1875 406.648438 C 210.734375 390.304688 203.144531 379.503906 182.421875 377.898438 C 175.785156 376.878906 169.144531 376.367188 162.652344 376.367188 Z M 20.886719 654.867188 C 12.566406 654.867188 3.738281 653.261719 -5.164062 650.195312 C -18.660156 645.527344 -28.4375 638.449219 -34.273438 629.035156 C -40.332031 619.261719 -42.15625 606.199219 -39.164062 593.210938 C -36.316406 580.515625 -29.167969 569.207031 -22.308594 558.261719 C -18.148438 551.625 -14.136719 545.347656 -11.4375 539.148438 C -6.402344 527.617188 -5.671875 514.703125 -5.015625 502.226562 C -4.359375 490.699219 -3.777344 478.808594 0.308594 468.082031 C 3.226562 460.347656 8.117188 453.925781 12.859375 447.652344 C 14.464844 445.609375 16.070312 443.492188 17.601562 441.304688 C 36.0625 415.328125 64.515625 393.367188 93.628906 382.570312 C 122.886719 371.769531 152.070312 362.578125 187.894531 368.78125 C 208.035156 370.75 216.207031 381.546875 227.878906 399.058594 C 235.175781 409.929688 231.890625 418.25 227.804688 428.828125 C 225.761719 434.007812 223.5 439.917969 222.117188 447.070312 C 221.457031 450.277344 221.09375 453.125 220.800781 455.53125 C 220 464.070312 220.363281 469.761719 220.65625 474.792969 C 221.167969 482.746094 221.605469 489.023438 216.570312 502.007812 C 212.191406 513.464844 202.5625 524.773438 195.339844 532.289062 C 185.925781 541.992188 174.542969 551.257812 164.109375 557.605469 C 163.527344 557.972656 162.941406 558.335938 162.359375 558.628906 L 161.554688 559.140625 C 150.683594 565.488281 144.484375 577.890625 138.5 589.929688 C 131.859375 603.28125 124.929688 617.070312 111.578125 622.324219 C 103.550781 625.460938 95.160156 629.402344 86.332031 633.488281 C 68.238281 641.878906 49.558594 650.632812 32.046875 653.699219 L 30.808594 653.917969 C 27.671875 654.574219 24.3125 654.867188 20.886719 654.867188 Z M 164.839844 367.464844 C 139.15625 367.464844 116.539062 374.835938 93.847656 383.226562 C 64.808594 393.953125 36.5 415.839844 18.039062 441.742188 C 16.507812 443.859375 14.902344 446.046875 13.296875 448.089844 C 8.554688 454.292969 3.664062 460.710938 0.820312 468.375 C -3.191406 479.027344 -3.847656 490.847656 -4.433594 502.300781 C -5.089844 514.851562 -5.820312 527.839844 -10.925781 539.4375 C -13.625 545.640625 -17.640625 551.914062 -21.796875 558.628906 C -28.65625 569.5 -35.808594 580.734375 -38.578125 593.359375 C -41.496094 606.199219 -39.746094 619.113281 -33.765625 628.746094 C -28 638.011719 -18.296875 645.089844 -4.945312 649.683594 C 7.605469 653.988281 19.9375 655.375 30.808594 653.550781 L 32.046875 653.332031 C 49.484375 650.269531 68.164062 641.585938 86.1875 633.195312 C 95.015625 629.035156 103.40625 625.167969 111.429688 622.03125 C 124.636719 616.851562 131.496094 603.136719 138.0625 589.855469 C 144.046875 577.816406 150.320312 565.339844 161.335938 558.847656 L 162.140625 558.335938 C 162.722656 557.972656 163.308594 557.679688 163.890625 557.316406 C 183.589844 545.277344 208.617188 521.78125 216.132812 502.007812 C 221.09375 489.167969 220.730469 483.183594 220.144531 475.011719 C 219.855469 469.980469 219.488281 464.289062 220.292969 455.679688 C 220.511719 453.199219 220.949219 450.351562 221.605469 447.140625 C 222.992188 439.992188 225.324219 434.082031 227.367188 428.828125 C 231.527344 418.03125 234.59375 410.222656 227.441406 399.570312 C 215.914062 382.203125 207.816406 371.480469 187.894531 369.507812 L 187.894531 369.289062 L 187.824219 369.507812 C 179.871094 368.125 172.210938 367.464844 164.839844 367.464844 Z M 23.074219 656.761719 C 13.878906 656.761719 3.957031 654.9375 -6.257812 651.289062 C -20.484375 646.257812 -30.992188 638.8125 -37.410156 629.183594 C -44.417969 618.75 -46.75 605.03125 -43.832031 591.605469 C -41.058594 578.253906 -33.324219 566.652344 -25.957031 555.417969 C -21.289062 548.414062 -16.910156 541.773438 -13.992188 534.988281 C -8.8125 523.242188 -8.007812 510.035156 -7.277344 497.265625 C -6.621094 486.101562 -5.964844 474.574219 -2.316406 464.140625 C 0.382812 456.40625 4.90625 449.914062 9.285156 443.566406 C 10.742188 441.378906 12.347656 439.1875 13.734375 436.925781 C 31.976562 408.691406 61.671875 385.125 93.191406 373.886719 C 125.511719 362.359375 155.355469 353.382812 193.148438 360.390625 C 213.140625 362.722656 221.457031 373.886719 232.914062 391.980469 C 239.84375 402.925781 236.5625 412.191406 232.402344 423.867188 C 230.433594 429.339844 228.246094 435.613281 226.929688 442.691406 C 226.347656 445.609375 225.984375 448.601562 225.761719 451.59375 C 225.179688 461.589844 226.347656 467.863281 227.296875 473.480469 C 228.683594 481.070312 229.847656 487.707031 225.984375 500.621094 C 220.144531 520.105469 198.621094 545.785156 175.855469 560.453125 C 175.273438 560.816406 174.617188 561.183594 174.03125 561.546875 L 173.230469 562.058594 C 162.285156 568.769531 155.0625 580.078125 148.058594 591.097656 C 139.886719 603.863281 131.496094 617.144531 117.121094 622.617188 C 108.003906 626.117188 98.664062 630.570312 88.8125 635.238281 C 70.425781 643.992188 51.308594 653.113281 33.070312 655.886719 L 31.757812 656.105469 C 29.058594 656.542969 26.136719 656.761719 23.074219 656.761719 Z M 166.882812 358.566406 C 140.835938 358.566406 117.851562 365.789062 93.410156 374.472656 C 62.035156 385.632812 32.414062 409.128906 14.246094 437.292969 C 12.785156 439.554688 11.253906 441.742188 9.722656 443.929688 C 5.34375 450.207031 0.820312 456.773438 -1.804688 464.359375 C -5.382812 474.722656 -6.109375 486.25 -6.695312 497.339844 C -7.425781 510.179688 -8.226562 523.386719 -13.480469 535.207031 C -16.472656 541.992188 -20.847656 548.632812 -25.519531 555.710938 C -32.886719 566.945312 -40.550781 578.546875 -43.320312 591.753906 C -46.167969 605.03125 -43.832031 618.601562 -36.972656 628.890625 C -30.625 638.375 -20.191406 645.746094 -6.109375 650.78125 C 7.3125 655.59375 20.375 657.273438 31.683594 655.667969 L 32.996094 655.449219 C 51.238281 652.675781 70.207031 643.628906 88.59375 634.800781 C 98.445312 630.058594 107.785156 625.609375 116.902344 622.105469 C 131.132812 616.707031 139.449219 603.5 147.546875 590.804688 C 154.550781 579.789062 161.777344 568.40625 172.867188 561.621094 L 173.667969 561.109375 C 174.253906 560.742188 174.835938 560.378906 175.492188 560.015625 C 198.109375 545.496094 219.5625 519.886719 225.398438 500.550781 C 229.191406 487.707031 228.023438 481.214844 226.710938 473.699219 C 225.691406 468.082031 224.523438 461.734375 225.179688 451.664062 C 225.398438 448.671875 225.761719 445.609375 226.347656 442.691406 C 227.660156 435.539062 229.847656 429.265625 231.820312 423.792969 C 235.90625 412.265625 239.117188 403.144531 232.402344 392.417969 C 221.09375 374.472656 212.777344 363.378906 193.003906 361.117188 L 193.003906 360.972656 L 193.003906 361.117188 C 183.957031 359.292969 175.273438 358.566406 166.882812 358.566406 Z M 25.042969 658.660156 C 15.046875 658.660156 4.25 656.542969 -7.277344 652.3125 C -22.308594 646.839844 -33.546875 639.105469 -40.550781 629.328125 C -48.429688 618.3125 -51.347656 604.011719 -48.574219 590 C -45.800781 576.066406 -37.558594 564.027344 -29.605469 552.425781 C -24.496094 544.984375 -19.683594 537.980469 -16.472656 530.757812 C -11.144531 518.789062 -10.269531 505.292969 -9.46875 492.230469 C -8.8125 481.507812 -8.082031 470.417969 -4.871094 460.203125 C -2.390625 452.394531 1.769531 445.683594 5.855469 439.1875 C 7.242188 437 8.628906 434.738281 9.941406 432.550781 C 27.816406 402.125 58.753906 376.953125 92.753906 365.203125 C 128.210938 353.019531 158.492188 344.265625 198.257812 351.925781 C 218.46875 354.699219 227.367188 367.246094 237.875 384.757812 C 244.441406 395.777344 240.941406 406.429688 236.925781 418.757812 C 234.957031 424.816406 232.914062 431.089844 231.671875 438.238281 C 231.089844 441.304688 230.796875 444.515625 230.652344 447.578125 C 230.359375 458.667969 232.332031 465.527344 234.082031 471.582031 C 236.34375 479.316406 238.3125 486.03125 235.320312 499.164062 C 230.359375 520.980469 210.296875 547.902344 187.605469 563.152344 C 186.949219 563.589844 186.289062 564.027344 185.632812 564.390625 L 184.90625 564.828125 C 174.03125 571.761719 166.007812 581.902344 158.199219 591.753906 C 148.421875 604.082031 138.28125 616.851562 122.742188 622.6875 C 112.671875 626.484375 102.53125 631.371094 91.804688 636.625 C 72.90625 645.890625 53.28125 655.449219 34.089844 657.929688 L 32.703125 658.074219 C 30.296875 658.511719 27.742188 658.660156 25.042969 658.660156 Z M 168.925781 349.589844 C 142.511719 349.589844 119.164062 356.667969 93.042969 365.714844 C 59.191406 377.390625 28.328125 402.488281 10.523438 432.769531 C 9.210938 435.03125 7.824219 437.292969 6.4375 439.480469 C 2.351562 445.972656 -1.804688 452.613281 -4.214844 460.347656 C -7.425781 470.488281 -8.082031 481.507812 -8.738281 492.230469 C -9.539062 505.367188 -10.414062 518.863281 -15.816406 530.976562 C -19.097656 538.273438 -23.914062 545.277344 -29.019531 552.71875 C -36.972656 564.320312 -45.144531 576.210938 -47.917969 590.074219 C -50.691406 603.863281 -47.84375 618.09375 -40.039062 628.964844 C -33.035156 638.8125 -22.234375 646.257812 -7.058594 651.726562 C 7.460938 657.054688 20.886719 659.023438 32.777344 657.636719 L 34.164062 657.492188 C 53.28125 655.011719 72.835938 645.453125 91.730469 636.1875 C 102.457031 630.933594 112.597656 625.972656 122.742188 622.25 C 138.136719 616.488281 147.765625 604.375 157.980469 591.460938 C 165.789062 581.609375 173.886719 571.394531 184.832031 564.390625 L 185.5625 563.953125 C 186.21875 563.515625 186.875 563.152344 187.53125 562.714844 C 210.148438 547.539062 230.066406 520.761719 235.03125 499.019531 C 237.949219 486.03125 236.050781 479.390625 233.789062 471.730469 C 232.039062 465.675781 229.996094 458.742188 230.359375 447.578125 C 230.507812 444.441406 230.871094 441.230469 231.382812 438.167969 C 232.621094 431.015625 234.664062 424.742188 236.636719 418.613281 C 240.648438 406.429688 244.078125 395.847656 237.582031 385.050781 C 227.222656 367.683594 218.320312 355.207031 198.402344 352.4375 C 187.96875 350.539062 178.265625 349.589844 168.925781 349.589844 Z M 27.160156 660.628906 C 16.433594 660.628906 4.46875 658.222656 -8.371094 653.40625 C -24.496094 647.421875 -36.027344 639.617188 -43.6875 629.472656 C -52.441406 617.800781 -55.945312 602.84375 -53.171875 588.46875 C -50.472656 573.949219 -41.644531 561.546875 -33.179688 549.582031 C -27.636719 541.773438 -22.382812 534.40625 -18.878906 526.597656 C -13.335938 514.265625 -12.386719 500.476562 -11.511719 487.050781 C -10.855469 476.765625 -10.125 466.113281 -7.351562 456.261719 C -5.089844 448.308594 -1.148438 441.378906 2.644531 434.59375 C 3.8125 432.476562 5.050781 430.289062 6.21875 428.097656 C 23.585938 395.484375 55.835938 368.707031 92.460938 356.449219 C 131.203125 343.535156 161.847656 335 203.65625 343.460938 L 203.65625 343.535156 C 224.085938 346.746094 233.207031 360.316406 242.984375 377.679688 C 249.183594 388.699219 245.683594 400.300781 241.667969 413.726562 C 239.773438 420.074219 237.730469 426.710938 236.636719 433.863281 C 236.050781 437.074219 235.757812 440.429688 235.6875 443.640625 C 235.6875 455.679688 238.460938 462.683594 241.085938 469.46875 C 244.078125 477.128906 246.921875 484.28125 244.734375 497.777344 C 240.867188 521.5625 221.824219 550.238281 199.425781 565.996094 C 198.695312 566.507812 197.964844 566.945312 197.234375 567.457031 L 196.722656 567.820312 C 186.21875 574.753906 177.679688 583.582031 169.363281 592.191406 C 157.105469 604.8125 145.578125 616.777344 128.429688 623.054688 C 117.414062 627.066406 106.03125 632.757812 95.015625 638.230469 C 75.535156 647.933594 55.324219 658.003906 35.1875 660.265625 C 34.746094 660.335938 34.238281 660.410156 33.726562 660.410156 C 31.683594 660.554688 29.421875 660.628906 27.160156 660.628906 Z M 170.96875 340.617188 C 144.191406 340.617188 120.550781 347.621094 92.605469 356.960938 C 56.125 369.144531 24.023438 395.847656 6.730469 428.316406 C 5.5625 430.507812 4.324219 432.695312 3.15625 434.8125 C -0.640625 441.523438 -4.578125 448.453125 -6.839844 456.335938 C -9.613281 466.113281 -10.34375 476.765625 -11 486.980469 C -11.875 500.402344 -12.824219 514.339844 -18.367188 526.671875 C -21.871094 534.550781 -27.125 541.917969 -32.742188 549.726562 C -41.207031 561.621094 -49.886719 573.949219 -52.660156 588.398438 C -55.359375 602.625 -51.929688 617.4375 -43.25 629.035156 C -35.660156 639.03125 -24.207031 646.765625 -8.152344 652.75 C 7.3125 658.585938 21.46875 660.847656 33.800781 659.609375 C 34.308594 659.535156 34.820312 659.535156 35.257812 659.460938 C 55.324219 657.199219 75.460938 647.132812 94.941406 637.5 C 105.960938 632.027344 117.414062 626.335938 128.433594 622.324219 C 145.433594 616.121094 156.960938 604.230469 169.144531 591.605469 C 177.460938 582.996094 186.070312 574.097656 196.578125 567.164062 L 197.089844 566.800781 C 197.820312 566.363281 198.476562 565.851562 199.207031 565.339844 C 221.457031 549.726562 240.429688 521.199219 244.296875 497.484375 C 246.484375 484.132812 243.640625 476.984375 240.648438 469.46875 C 237.949219 462.683594 235.175781 455.605469 235.175781 443.492188 C 235.25 440.210938 235.539062 436.855469 236.125 433.570312 C 237.292969 426.421875 239.261719 419.78125 241.230469 413.359375 C 245.246094 400.082031 248.671875 388.550781 242.617188 377.753906 C 232.914062 360.460938 223.867188 347.035156 203.582031 343.898438 L 203.582031 343.828125 C 191.980469 341.710938 181.257812 340.617188 170.96875 340.617188 Z M 29.058594 662.671875 C 17.527344 662.671875 4.90625 659.972656 -9.46875 654.5 C -26.46875 648.007812 -38.652344 639.910156 -46.824219 629.695312 C -56.601562 617.4375 -60.613281 601.820312 -57.914062 586.863281 C -55.214844 571.6875 -45.875 558.992188 -36.902344 546.664062 C -30.917969 538.492188 -25.226562 530.757812 -21.433594 522.367188 C -15.667969 509.742188 -14.71875 495.441406 -13.773438 481.726562 C -13.117188 471.949219 -12.386719 461.808594 -9.976562 452.320312 C -7.863281 444.148438 -4.140625 436.78125 -0.566406 429.703125 C 0.457031 427.734375 1.476562 425.691406 2.425781 423.71875 C 10.597656 406.792969 23.21875 390.816406 38.90625 377.535156 C 54.519531 364.257812 72.90625 353.96875 92.023438 347.765625 C 132.808594 334.558594 165.058594 325.878906 208.835938 335.070312 C 229.558594 338.71875 239.1875 353.894531 248.015625 370.457031 C 253.855469 381.476562 250.207031 394.609375 246.339844 408.542969 C 244.441406 415.257812 242.542969 422.1875 241.449219 429.339844 C 240.867188 432.695312 240.648438 436.195312 240.648438 439.554688 C 241.011719 452.46875 244.585938 459.835938 248.089844 466.988281 C 251.957031 474.867188 255.605469 482.308594 254.144531 496.246094 C 251.445312 522.4375 233.789062 552.207031 211.242188 568.625 C 210.585938 569.132812 209.859375 569.574219 209.199219 570.011719 L 208.542969 570.519531 C 199.207031 576.941406 190.816406 584.09375 182.714844 591.097656 C 167.757812 603.9375 153.675781 616.121094 134.195312 623.054688 C 122.375 627.285156 110.265625 633.414062 98.589844 639.398438 C 78.453125 649.613281 57.585938 660.191406 36.351562 662.308594 L 34.746094 662.453125 C 32.921875 662.597656 31.027344 662.671875 29.058594 662.671875 Z M 173.375 331.789062 C 145.796875 331.789062 121.136719 338.863281 92.167969 348.277344 C 73.125 354.480469 54.8125 364.695312 39.273438 377.898438 C 23.65625 391.105469 11.109375 407.011719 2.9375 423.9375 C 1.988281 425.980469 0.964844 428.023438 -0.0546875 429.996094 C -3.628906 437.074219 -7.351562 444.367188 -9.394531 452.46875 C -11.800781 461.878906 -12.457031 472.023438 -13.1875 481.796875 C -14.136719 495.589844 -15.085938 509.890625 -20.921875 522.65625 C -24.714844 531.046875 -30.40625 538.78125 -36.390625 547.027344 C -45.363281 559.285156 -54.632812 571.980469 -57.332031 587.011719 C -60.03125 601.820312 -56.015625 617.289062 -46.386719 629.402344 C -38.289062 639.542969 -26.101562 647.640625 -9.25 654.0625 C 7.460938 660.410156 21.832031 663.039062 34.746094 661.941406 L 36.28125 661.796875 C 57.4375 659.753906 78.234375 649.175781 98.296875 638.960938 C 110.046875 632.976562 122.15625 626.847656 133.976562 622.617188 C 153.386719 615.683594 167.394531 603.574219 182.277344 590.730469 C 190.375 583.726562 198.765625 576.503906 208.179688 570.082031 L 208.835938 569.574219 C 209.492188 569.132812 210.148438 568.625 210.878906 568.1875 C 233.277344 551.84375 250.789062 522.21875 253.5625 496.171875 C 255.019531 482.382812 251.375 475.011719 247.578125 467.207031 C 244.078125 459.984375 240.429688 452.613281 240.0625 439.554688 C 240.0625 436.125 240.28125 432.621094 240.867188 429.191406 C 241.960938 421.96875 243.859375 415.039062 245.753906 408.324219 C 249.769531 393.953125 253.269531 381.476562 247.507812 370.675781 C 238.75 354.1875 229.191406 339.15625 208.691406 335.507812 C 196.214844 332.957031 184.539062 331.789062 173.375 331.789062 Z M 35.84375 664.496094 L 37.519531 664.351562 C 59.773438 662.527344 81.226562 651.4375 102.019531 640.710938 C 114.421875 634.289062 127.265625 627.652344 139.960938 623.199219 C 164.328125 614.664062 182.933594 600.875 202.632812 586.28125 C 208.398438 582.050781 214.308594 577.671875 220.4375 573.292969 L 220.511719 573.21875 C 221.386719 572.636719 222.335938 571.980469 223.210938 571.25 C 245.902344 554.105469 262.097656 523.3125 263.703125 494.640625 C 264.433594 480.195312 259.984375 472.53125 255.3125 464.433594 C 250.9375 456.917969 246.484375 449.183594 245.753906 435.46875 C 245.683594 431.890625 245.902344 428.316406 246.410156 424.816406 C 247.433594 417.519531 249.332031 410.296875 251.15625 403.21875 C 255.019531 388.261719 258.667969 374.179688 253.199219 363.160156 C 243.566406 343.828125 233.277344 330.183594 214.164062 326.460938 L 214.089844 326.972656 C 232.988281 330.695312 243.203125 344.191406 252.6875 363.378906 C 258.085938 374.179688 254.4375 388.1875 250.570312 403 C 248.746094 410.078125 246.851562 417.371094 245.828125 424.667969 C 245.246094 428.246094 245.027344 431.820312 245.171875 435.46875 C 245.902344 449.332031 250.425781 457.136719 254.800781 464.726562 C 259.472656 472.75 263.921875 480.414062 263.121094 494.640625 C 262.390625 507.917969 258.160156 522.65625 251.300781 536.082031 C 244.003906 550.238281 234.152344 562.277344 222.917969 570.8125 C 222.042969 571.46875 221.09375 572.125 220.21875 572.710938 L 220.144531 572.78125 C 214.015625 577.085938 208.105469 581.464844 202.34375 585.769531 C 182.714844 600.363281 164.109375 614.078125 139.8125 622.617188 C 127.046875 627.066406 114.203125 633.707031 101.800781 640.128906 C 81.078125 650.851562 59.628906 661.941406 37.519531 663.765625 L 35.84375 663.914062 C 22.269531 664.789062 7.679688 661.941406 -10.195312 655.011719 C -28.21875 648.007812 -40.695312 639.90625 -49.449219 629.472656 C -59.882812 616.996094 -64.554688 600.507812 -61.925781 585.332031 C -59.300781 569.71875 -49.449219 556.65625 -39.964844 544.035156 C -33.765625 535.789062 -27.417969 527.328125 -23.332031 518.351562 C -17.273438 505.21875 -16.253906 490.40625 -15.230469 476.179688 C -14.574219 466.914062 -13.917969 457.429688 -11.875 448.382812 C -9.90625 439.773438 -6.402344 431.964844 -2.972656 424.378906 C -2.242188 422.699219 -1.441406 421.019531 -0.710938 419.34375 C 15.195312 383.082031 50.726562 352.4375 91.949219 339.375 C 129.453125 327.484375 164.914062 316.320312 214.164062 326.898438 L 214.308594 326.386719 C 164.914062 315.734375 129.378906 326.972656 91.804688 338.863281 C 50.433594 351.925781 14.828125 382.714844 -1.148438 419.125 C -1.878906 420.800781 -2.609375 422.480469 -3.410156 424.160156 C -6.839844 431.746094 -10.34375 439.625 -12.3125 448.234375 C -14.355469 457.285156 -15.011719 466.839844 -15.667969 476.109375 C -16.691406 490.335938 -17.710938 505.074219 -23.695312 518.132812 C -27.78125 527.035156 -33.835938 535.132812 -40.257812 543.671875 C -49.816406 556.367188 -59.664062 569.5 -62.292969 585.257812 C -64.917969 600.582031 -60.25 617.21875 -49.667969 629.839844 C -40.839844 640.347656 -28.292969 648.519531 -10.125 655.59375 C 5.707031 661.796875 19.0625 664.714844 31.320312 664.714844 C 32.632812 664.640625 34.238281 664.640625 35.84375 664.496094 Z M 32.996094 666.683594 C 20.007812 666.683594 5.78125 663.476562 -11.511719 656.617188 C -30.554688 649.101562 -43.757812 640.636719 -53.027344 629.984375 C -64.480469 616.851562 -69.808594 599.488281 -67.179688 583.652344 C -64.554688 567.238281 -54.121094 553.738281 -44.050781 540.679688 C -37.484375 532.144531 -30.699219 523.3125 -26.320312 513.902344 C -20.046875 500.332031 -18.953125 485.082031 -17.929688 470.269531 C -17.347656 461.660156 -16.691406 452.757812 -15.011719 444.296875 C -13.1875 434.882812 -9.6875 426.273438 -6.402344 417.957031 C -5.964844 416.863281 -5.527344 415.769531 -5.089844 414.746094 C 10.160156 376.222656 47.078125 343.828125 91.222656 330.183594 C 132.296875 317.488281 167.832031 306.542969 219.34375 317.996094 C 240.0625 322.523438 250.644531 339.742188 258.160156 356.011719 C 263.265625 366.957031 259.617188 381.984375 255.75 397.964844 C 253.925781 405.40625 252.101562 413.066406 251.15625 420.4375 C 250.570312 424.085938 250.425781 427.878906 250.570312 431.527344 C 251.664062 445.972656 256.992188 454.144531 262.246094 461.953125 C 267.863281 470.34375 273.117188 478.296875 272.96875 493.328125 C 272.75 524.042969 257.429688 556.4375 234.957031 574.097656 C 234.007812 574.824219 233.058594 575.554688 232.183594 576.140625 C 208.253906 593.429688 181.183594 611.160156 145.652344 623.347656 C 132.078125 628.015625 118.582031 635.09375 105.519531 641.953125 C 84.070312 653.1875 61.890625 664.863281 38.613281 666.464844 L 36.863281 666.613281 C 35.625 666.683594 34.308594 666.683594 32.996094 666.683594 Z M 177.242188 313.765625 C 146.378906 313.765625 120.261719 321.792969 91.367188 330.695312 C 47.371094 344.265625 10.597656 376.515625 -4.652344 414.890625 C -5.089844 415.988281 -5.527344 417.082031 -5.964844 418.101562 C -9.320312 426.421875 -12.75 435.03125 -14.574219 444.367188 C -16.253906 452.832031 -16.835938 461.734375 -17.492188 470.269531 C -18.585938 485.082031 -19.683594 500.402344 -25.957031 514.046875 C -30.335938 523.53125 -37.121094 532.363281 -43.757812 540.898438 C -53.753906 553.886719 -64.117188 567.3125 -66.742188 583.582031 C -69.296875 599.269531 -64.117188 616.414062 -52.734375 629.472656 C -43.46875 640.054688 -30.335938 648.519531 -11.363281 655.960938 C 7.53125 663.476562 22.855469 666.613281 36.789062 665.882812 L 38.542969 665.808594 C 61.742188 664.203125 83.851562 652.605469 105.230469 641.367188 C 118.289062 634.507812 131.859375 627.359375 145.433594 622.6875 C 180.890625 610.503906 207.886719 592.773438 231.820312 575.554688 C 232.695312 574.898438 233.644531 574.242188 234.59375 573.511719 C 256.992188 556 272.167969 523.679688 272.460938 493.179688 C 272.605469 478.371094 267.351562 470.488281 261.808594 462.171875 C 256.554688 454.292969 251.15625 446.121094 250.058594 431.453125 C 249.914062 427.734375 250.058594 423.9375 250.644531 420.21875 C 251.59375 412.847656 253.488281 405.113281 255.242188 397.746094 C 259.035156 381.914062 262.683594 366.957031 257.648438 356.15625 C 244.296875 327.410156 230.726562 320.988281 219.195312 318.507812 C 204.019531 315.226562 190.230469 313.765625 177.242188 313.765625 Z M 34.820312 668.726562 C 17.238281 668.726562 0.382812 662.890625 -12.605469 657.710938 C -26.25 652.238281 -43.539062 644.214844 -56.234375 630.203125 C -68.640625 616.488281 -74.476562 598.539062 -71.921875 582.121094 C -69.296875 565.121094 -58.351562 551.257812 -47.773438 537.832031 C -40.769531 528.933594 -33.546875 519.738281 -28.875 509.816406 C -22.308594 495.660156 -21.140625 479.753906 -20.046875 464.359375 C -19.464844 456.480469 -18.878906 448.308594 -17.566406 440.5 C -15.742188 429.703125 -12.238281 419.925781 -8.882812 410.441406 C 5.636719 369.800781 43.867188 335.726562 90.855469 321.574219 C 133.683594 308.511719 170.75 297.347656 224.597656 309.535156 C 245.972656 314.570312 256.480469 333.175781 263.191406 348.789062 C 267.9375 359.660156 264.289062 375.636719 260.492188 392.492188 C 258.742188 400.300781 256.917969 408.324219 255.96875 415.839844 C 255.460938 419.632812 255.3125 423.574219 255.53125 427.441406 C 256.992188 442.617188 263.265625 451.082031 269.320312 459.253906 C 275.742188 467.9375 281.871094 476.179688 282.382812 491.722656 C 283.476562 524.917969 269.46875 558.261719 246.703125 576.722656 C 246.046875 577.234375 245.464844 577.746094 244.808594 578.183594 C 244.515625 578.402344 244.148438 578.691406 243.859375 578.910156 C 216.644531 599.050781 188.261719 610.871094 151.195312 623.492188 C 136.824219 628.378906 122.667969 635.894531 108.949219 643.265625 C 86.84375 655.085938 63.933594 667.269531 39.5625 668.582031 L 37.738281 668.65625 C 36.789062 668.726562 35.84375 668.726562 34.820312 668.726562 Z M 179.503906 304.863281 C 147.765625 304.863281 120.769531 313.035156 90.929688 322.011719 C 44.085938 336.164062 6 370.09375 -8.445312 410.515625 C -11.800781 420 -15.304688 429.777344 -17.128906 440.5 C -18.441406 448.308594 -19.027344 456.480469 -19.609375 464.289062 C -20.703125 479.753906 -21.871094 495.734375 -28.511719 509.960938 C -33.179688 519.957031 -40.402344 529.222656 -47.480469 538.125 C -57.988281 551.476562 -68.859375 565.339844 -71.484375 582.195312 C -74.039062 598.464844 -68.203125 616.269531 -55.945312 629.839844 C -43.320312 643.773438 -26.101562 651.800781 -12.53125 657.273438 C 1.113281 662.746094 19.132812 668.949219 37.667969 668.21875 L 39.492188 668.144531 C 63.714844 666.832031 86.550781 654.648438 108.585938 642.898438 C 122.304688 635.601562 136.53125 628.015625 150.976562 623.125 C 187.96875 610.578125 216.277344 598.757812 243.421875 578.691406 C 243.710938 578.472656 244.078125 578.183594 244.367188 577.964844 C 244.953125 577.523438 245.609375 577.015625 246.265625 576.503906 C 268.882812 558.191406 282.820312 525.066406 281.726562 492.011719 C 281.214844 476.617188 275.160156 468.445312 268.738281 459.835938 C 262.609375 451.59375 256.335938 443.054688 254.875 427.734375 C 254.65625 423.867188 254.800781 419.925781 255.3125 416.058594 C 256.261719 408.542969 258.085938 400.445312 259.835938 392.636719 C 263.632812 375.855469 267.207031 360.023438 262.609375 349.300781 C 255.898438 333.757812 245.535156 315.371094 224.378906 310.335938 C 208.179688 306.398438 193.367188 304.863281 179.503906 304.863281 Z M 36.9375 670.84375 C 18.40625 670.84375 0.238281 664.421875 -13.699219 658.804688 C -28 652.96875 -46.09375 644.503906 -59.375 630.351562 C -72.726562 616.121094 -79.144531 597.445312 -76.59375 580.515625 C -73.964844 562.859375 -62.511719 548.632812 -51.421875 534.84375 C -43.980469 525.574219 -36.316406 516.019531 -31.355469 505.585938 C -24.425781 490.699219 -23.257812 473.992188 -22.089844 457.722656 C -21.578125 450.714844 -21.070312 443.492188 -20.121094 436.414062 C -18.515625 425.105469 -15.449219 414.601562 -12.675781 405.917969 C -5.746094 384.320312 7.96875 364.183594 26.941406 347.546875 C 44.960938 331.789062 66.925781 319.75 90.492188 312.816406 C 137.113281 299.027344 173.960938 288.15625 229.921875 301.144531 C 246.628906 305.449219 259.179688 318.726562 268.375 341.710938 C 272.679688 352.507812 268.957031 370.09375 265.382812 387.09375 C 263.632812 395.339844 261.808594 403.875 260.929688 411.460938 C 260.421875 415.402344 260.273438 419.488281 260.640625 423.429688 C 262.464844 439.335938 269.613281 448.164062 276.472656 456.625 C 283.769531 465.601562 290.699219 474.136719 291.867188 490.335938 C 293.035156 506.75 290.847656 523.53125 285.59375 538.78125 C 279.828125 555.492188 270.488281 569.574219 258.597656 579.496094 C 257.722656 580.226562 256.773438 580.953125 255.898438 581.609375 L 255.75 581.757812 C 231.964844 599.851562 205.1875 608.316406 176.878906 617.289062 C 170.386719 619.332031 163.746094 621.449219 157.03125 623.710938 C 141.785156 628.746094 126.898438 636.84375 112.527344 644.652344 C 89.761719 656.980469 66.195312 669.675781 40.804688 670.769531 L 40.511719 670.769531 C 40 670.769531 39.492188 670.84375 38.90625 670.84375 C 38.175781 670.84375 37.59375 670.84375 36.9375 670.84375 Z M 181.621094 295.816406 C 149.664062 295.816406 122.449219 303.84375 90.5625 313.328125 C 67.070312 320.261719 45.179688 332.226562 27.234375 347.984375 C 8.335938 364.546875 -5.308594 384.613281 -12.167969 406.136719 C -14.941406 414.890625 -18.078125 425.324219 -19.609375 436.5625 C -20.558594 443.566406 -21.070312 450.789062 -21.578125 457.792969 C -22.671875 474.066406 -23.839844 490.847656 -30.84375 505.804688 C -35.808594 516.308594 -43.46875 525.941406 -50.984375 535.207031 C -62 548.925781 -73.457031 563.152344 -76.007812 580.664062 C -78.488281 597.445312 -72.140625 615.902344 -58.9375 630.058594 C -45.730469 644.140625 -27.707031 652.605469 -13.40625 658.367188 C 0.894531 664.203125 19.71875 670.769531 38.832031 670.332031 C 39.34375 670.332031 39.855469 670.332031 40.367188 670.261719 L 40.65625 670.261719 C 65.902344 669.167969 89.398438 656.472656 112.089844 644.140625 C 126.535156 636.332031 141.417969 628.234375 156.742188 623.199219 C 163.378906 620.9375 170.09375 618.820312 176.585938 616.777344 C 204.894531 607.804688 231.601562 599.339844 255.3125 581.320312 L 255.460938 581.171875 C 256.335938 580.515625 257.285156 579.789062 258.160156 579.058594 C 269.980469 569.207031 279.246094 555.273438 285.007812 538.636719 C 290.261719 523.460938 292.378906 506.75 291.210938 490.410156 C 290.042969 474.429688 283.183594 465.964844 275.960938 457.0625 C 269.03125 448.527344 261.808594 439.625 259.984375 423.574219 C 259.617188 419.5625 259.765625 415.476562 260.273438 411.460938 C 261.148438 403.800781 262.972656 395.265625 264.726562 387.019531 C 268.300781 370.09375 272.023438 352.582031 267.789062 341.929688 C 258.667969 319.09375 246.191406 305.960938 229.703125 301.726562 C 212.046875 297.496094 196.359375 295.816406 181.621094 295.816406 Z M 39.78125 672.886719 C 40.4375 672.886719 41.09375 672.886719 41.753906 672.8125 C 68.238281 671.9375 92.535156 658.660156 116.027344 645.746094 C 131.058594 637.5 146.597656 629.035156 162.578125 623.785156 C 173.011719 620.355469 183.808594 617.507812 194.171875 614.808594 C 220.800781 607.878906 245.972656 601.238281 267.351562 584.53125 C 268.300781 583.800781 269.320312 582.996094 270.269531 582.195312 C 297.777344 558.628906 304.269531 518.570312 301.132812 488.875 C 299.382812 472.09375 291.285156 462.902344 283.476562 454 C 275.742188 445.171875 267.71875 436.050781 265.527344 419.488281 C 265.089844 415.328125 265.164062 411.171875 265.746094 407.011719 C 266.550781 399.207031 268.375 390.15625 270.125 381.476562 C 273.699219 363.671875 277.347656 345.214844 273.40625 334.488281 C 265.015625 311.722656 251.8125 297.277344 235.175781 292.679688 L 235.03125 293.191406 C 251.738281 297.859375 264.507812 311.796875 272.898438 334.707031 C 276.765625 345.285156 273.117188 363.671875 269.613281 381.402344 C 267.863281 390.15625 266.113281 399.132812 265.234375 407.011719 C 264.726562 411.171875 264.652344 415.402344 265.015625 419.5625 C 267.207031 436.34375 275.304688 445.535156 283.113281 454.363281 C 291.210938 463.632812 298.945312 472.386719 300.695312 488.949219 C 303.832031 518.5 297.414062 558.410156 270.050781 581.832031 C 269.101562 582.632812 268.082031 583.433594 267.132812 584.164062 C 245.828125 600.800781 220.730469 607.367188 194.171875 614.296875 C 183.738281 617 173.011719 619.84375 162.503906 623.273438 C 146.453125 628.527344 130.914062 637.0625 115.882812 645.308594 C 92.460938 658.148438 68.238281 671.429688 41.898438 672.304688 C 41.242188 672.375 40.585938 672.375 39.929688 672.375 C 20.519531 672.59375 1.550781 665.957031 -14.355469 659.390625 C -30.261719 652.824219 -48.285156 644.285156 -61.925781 630.132812 C -76.226562 615.394531 -83.230469 596.351562 -80.75 578.984375 C -78.199219 560.890625 -66.230469 546.296875 -54.703125 532.214844 C -46.824219 522.585938 -38.652344 512.660156 -33.472656 501.570312 C -26.03125 485.738281 -24.863281 467.863281 -23.695312 450.570312 C -23.332031 444.660156 -22.890625 438.457031 -22.234375 432.476562 C -21.070312 422.042969 -18.953125 411.609375 -16.035156 401.539062 C -9.539062 378.921875 4.324219 357.691406 24.09375 340.324219 C 42.628906 323.980469 65.464844 311.578125 90.125 304.425781 L 90.636719 304.28125 C 138.792969 290.34375 176.804688 279.402344 234.882812 293.042969 L 235.03125 292.535156 C 176.804688 278.816406 138.71875 289.835938 90.492188 303.769531 L 89.980469 303.917969 C 65.246094 311.066406 42.335938 323.46875 23.730469 339.886719 C 3.886719 357.398438 -10.050781 378.628906 -16.542969 401.394531 C -19.464844 411.535156 -21.578125 421.96875 -22.820312 432.402344 C -23.476562 438.386719 -23.839844 444.515625 -24.277344 450.496094 C -25.375 467.71875 -26.539062 485.519531 -33.984375 501.28125 C -39.164062 512.296875 -47.335938 522.21875 -55.140625 531.777344 C -66.742188 545.933594 -78.78125 560.597656 -81.335938 578.839844 C -83.816406 596.351562 -76.8125 615.613281 -62.585938 630.421875 C -48.867188 644.652344 -30.773438 653.261719 -14.792969 659.828125 C 0.894531 666.320312 19.5 672.886719 38.6875 672.886719 C 39.050781 672.886719 39.417969 672.886719 39.78125 672.886719 Z M 40.585938 675.003906 C 20.738281 675.003906 1.769531 668.289062 -15.742188 660.996094 C -32.378906 654.0625 -51.273438 645.089844 -65.574219 630.714844 C -80.75 615.464844 -88.339844 595.546875 -85.859375 577.378906 C -83.304688 558.480469 -70.683594 543.378906 -58.570312 528.859375 C -50.328125 518.9375 -41.789062 508.648438 -36.246094 497.195312 C -28.21875 480.339844 -27.125 461.148438 -26.101562 442.617188 C -25.8125 437.949219 -25.59375 433.207031 -25.152344 428.464844 C -24.351562 417.882812 -22.671875 407.304688 -20.121094 397.015625 C -14.0625 373.085938 0.0898438 350.832031 20.8125 332.445312 C 40.074219 315.371094 63.933594 302.53125 89.761719 295.234375 L 91.804688 294.648438 C 140.980469 280.640625 180.015625 269.625 240.28125 284.144531 L 240.210938 284.363281 L 240.28125 284.214844 C 263.046875 291 273.917969 314.132812 278.371094 327.335938 C 281.945312 337.988281 278.371094 357.179688 274.867188 375.785156 C 273.042969 385.414062 271.363281 394.609375 270.5625 402.632812 C 270.050781 406.9375 269.980469 411.242188 270.488281 415.546875 C 273.117188 432.839844 282.015625 442.324219 290.628906 451.445312 C 299.308594 460.640625 308.210938 470.199219 310.617188 487.5625 C 316.164062 528.058594 305.511719 564.539062 282.164062 585.113281 C 281.289062 585.917969 280.339844 586.71875 279.246094 587.59375 C 258.667969 604.011719 233.496094 609.191406 206.792969 614.734375 C 194.023438 617.363281 180.820312 620.136719 168.34375 624.148438 C 151.488281 629.621094 135.363281 638.523438 119.75 647.203125 C 95.527344 660.628906 70.5 674.492188 42.992188 675.148438 L 40.949219 675.148438 C 40.730469 675.003906 40.65625 675.003906 40.585938 675.003906 Z M 186.070312 277.867188 C 153.019531 277.867188 124.710938 285.894531 91.804688 295.160156 L 89.761719 295.746094 C 64.003906 303.039062 40.21875 315.882812 21.03125 332.882812 C 0.382812 351.121094 -13.699219 373.375 -19.753906 397.164062 C -22.308594 407.449219 -23.988281 418.03125 -24.714844 428.535156 C -25.082031 433.207031 -25.375 438.019531 -25.664062 442.617188 C -26.757812 461.148438 -27.855469 480.414062 -35.878906 497.339844 C -41.351562 508.941406 -49.960938 519.226562 -58.277344 529.152344 C -70.390625 543.671875 -82.867188 558.699219 -85.421875 577.453125 C -87.902344 595.402344 -80.3125 615.175781 -65.285156 630.351562 C -51.054688 644.652344 -32.160156 653.625 -15.597656 660.484375 C 1.914062 667.78125 20.8125 674.492188 40.585938 674.492188 C 40.65625 674.492188 40.730469 674.492188 40.804688 674.492188 L 42.847656 674.492188 C 70.28125 673.835938 95.234375 659.972656 119.382812 646.621094 C 135.070312 637.9375 151.195312 628.964844 168.125 623.566406 C 180.671875 619.480469 193.878906 616.777344 206.648438 614.078125 C 233.207031 608.605469 258.378906 603.355469 278.878906 587.011719 C 279.972656 586.136719 280.921875 585.332031 281.796875 584.601562 C 305 564.171875 315.582031 527.839844 310.035156 487.5625 C 307.699219 470.34375 298.800781 460.929688 290.1875 451.738281 C 281.507812 442.542969 272.53125 432.988281 269.90625 415.546875 C 269.394531 411.242188 269.46875 406.867188 269.980469 402.5625 C 270.78125 394.535156 272.460938 385.34375 274.285156 375.710938 C 277.785156 357.179688 281.359375 338.0625 277.859375 327.554688 C 273.480469 314.496094 262.683594 291.511719 240.136719 284.800781 L 240.136719 284.726562 C 220.144531 279.839844 202.488281 277.867188 186.070312 277.867188 Z M 42.480469 677.046875 C 21.832031 677.046875 1.769531 669.824219 -16.835938 661.941406 C -35.148438 654.207031 -54.191406 645.089844 -68.785156 630.789062 C -84.910156 614.953125 -93.082031 594.308594 -90.601562 575.703125 C -88.046875 556.21875 -74.988281 540.753906 -62.292969 525.867188 C -53.609375 515.582031 -44.5625 504.925781 -38.796875 492.890625 C -30.042969 474.574219 -29.09375 453.707031 -28.21875 433.496094 C -27.636719 419.925781 -26.976562 405.84375 -23.988281 392.492188 C -18.367188 367.464844 -3.996094 344.046875 17.601562 324.855469 C 37.449219 307.199219 62.253906 293.921875 89.324219 286.40625 L 92.242188 285.601562 C 143.023438 271.449219 183.152344 260.285156 245.683594 275.605469 C 262.535156 281.007812 276.691406 297.640625 283.550781 320.039062 C 286.761719 330.472656 283.183594 350.394531 279.753906 369.65625 C 276.765625 386.363281 273.992188 402.125 275.523438 411.242188 C 278.441406 429.191406 288.21875 438.96875 297.703125 448.382812 C 307.191406 457.867188 317.039062 467.71875 320.03125 485.8125 C 323.242188 505.21875 323.023438 524.335938 319.449219 541.042969 C 315.214844 560.523438 306.679688 576.140625 294.054688 587.519531 C 273.40625 606.125 245.097656 610.578125 217.664062 614.882812 C 203.070312 617.144531 187.96875 619.550781 174.035156 624.003906 C 156.449219 629.621094 139.667969 639.03125 123.398438 648.078125 C 98.445312 662.015625 72.6875 676.460938 44.015625 676.898438 C 43.429688 677.046875 42.917969 677.046875 42.480469 677.046875 Z M 188.1875 268.894531 C 154.480469 268.894531 125.660156 276.921875 92.242188 286.257812 L 89.324219 287.0625 C 62.328125 294.578125 37.667969 307.855469 17.820312 325.441406 C -3.703125 344.554688 -18.003906 367.832031 -23.550781 392.785156 C -26.539062 406.0625 -27.125 420.074219 -27.707031 433.644531 C -28.582031 453.855469 -29.53125 474.792969 -38.359375 493.253906 C -44.125 505.367188 -53.171875 516.019531 -61.925781 526.304688 C -75.0625 541.847656 -87.539062 556.511719 -90.089844 575.847656 C -92.5 594.308594 -84.398438 614.734375 -68.421875 630.496094 C -53.902344 644.796875 -34.929688 653.917969 -16.691406 661.578125 C 2.351562 669.605469 22.855469 676.898438 43.867188 676.609375 C 72.398438 676.097656 98.078125 661.722656 122.960938 647.859375 C 139.230469 638.742188 156.011719 629.402344 173.667969 623.710938 C 187.675781 619.261719 202.78125 616.851562 217.371094 614.589844 C 244.660156 610.285156 272.898438 605.90625 293.472656 587.375 C 306.023438 576.066406 314.558594 560.523438 318.71875 541.191406 C 322.292969 524.554688 322.511719 505.511719 319.300781 486.175781 C 316.308594 468.300781 306.53125 458.523438 297.121094 449.039062 C 287.636719 439.554688 277.785156 429.703125 274.792969 411.609375 C 273.261719 402.34375 276.109375 386.582031 279.027344 369.800781 C 282.457031 350.613281 285.957031 330.765625 282.820312 320.40625 C 276.109375 298.007812 262.097656 281.515625 245.390625 276.191406 C 224.160156 271.011719 205.554688 268.894531 188.1875 268.894531 Z M 188.1875 268.894531 " fill-opacity="1" fill-rule="nonzero"/></g></svg>