<svg xmlns="http://www.w3.org/2000/svg" xmlns:xlink="http://www.w3.org/1999/xlink" width="1366" zoomAndPan="magnify" viewBox="0 0 1024.5 576" height="768" preserveAspectRatio="xMidYMid meet" version="1.0"><defs><clipPath id="b277480b0b"><path d="M 0 0.140625 L 1024 0.140625 L 1024 575.859375 L 0 575.859375 Z M 0 0.140625 " clip-rule="nonzero"/></clipPath><clipPath id="037dcb38b2"><path d="M 790 0.140625 L 1024 0.140625 L 1024 423 L 790 423 Z M 790 0.140625 " clip-rule="nonzero"/></clipPath><clipPath id="dfa3e74ef1"><path d="M 1073.136719 568.269531 L 718.648438 226.363281 L 1060.554688 -128.128906 L 1415.046875 213.78125 Z M 1073.136719 568.269531 " clip-rule="nonzero"/></clipPath><clipPath id="da1bb47b78"><path d="M 1073.136719 568.269531 L 718.648438 226.363281 L 1060.554688 -128.128906 L 1415.046875 213.78125 Z M 1073.136719 568.269531 " clip-rule="nonzero"/></clipPath></defs><g clip-path="url(#b277480b0b)"><path fill="#ffffff" d="M 0 0.140625 L 1024 0.140625 L 1024 575.859375 L 0 575.859375 Z M 0 0.140625 " fill-opacity="1" fill-rule="nonzero"/><path fill="#ffffff" d="M 0 0.140625 L 1024 0.140625 L 1024 575.859375 L 0 575.859375 Z M 0 0.140625 " fill-opacity="1" fill-rule="nonzero"/></g><g clip-path="url(#037dcb38b2)"><g clip-path="url(#dfa3e74ef1)"><g clip-path="url(#da1bb47b78)"><path fill="#79C8D6" d="M 1301.097656 154.394531 C 1306.308594 159.425781 1310.445312 165.449219 1312.570312 171.695312 C 1315.335938 179.632812 1314.988281 187.324219 1311.386719 194.039062 C 1303.132812 209.679688 1273.460938 221.683594 1251.84375 230.429688 C 1247.121094 232.34375 1242.640625 234.132812 1239.011719 235.785156 C 1226.605469 241.316406 1216.539062 251.136719 1206.707031 260.707031 C 1195.679688 271.519531 1184.171875 282.703125 1169.433594 287.421875 C 1156.398438 291.625 1142.097656 290.175781 1129.449219 288.878906 C 1097.246094 285.617188 1018.222656 273.503906 980 230.644531 C 962.367188 213.519531 963.140625 202.28125 964.710938 177.671875 L 964.753906 176.757812 C 965.804688 160.757812 969.9375 159.953125 978.144531 158.277344 C 983.003906 157.335938 989.019531 156.070312 996.925781 151.351562 C 1017.382812 139.210938 1024.769531 139.503906 1044.726562 140.179688 C 1047.535156 140.253906 1050.523438 140.382812 1053.820312 140.445312 C 1075.601562 140.964844 1120.679688 157.839844 1139.960938 165.054688 C 1151.382812 169.359375 1165.574219 154.769531 1179.351562 140.738281 C 1193.183594 126.640625 1207.4375 111.988281 1219.28125 115.984375 C 1233.394531 120.730469 1251.96875 129.179688 1268.324219 136.566406 C 1274.660156 139.441406 1280.6875 142.140625 1285.972656 144.484375 C 1291.625 146.699219 1296.75 150.207031 1301.097656 154.394531 Z M 985.820312 235.542969 C 1025.488281 273.800781 1098.820312 284.980469 1129.496094 288.085938 C 1142.023438 289.382812 1156.261719 290.773438 1169.238281 286.632812 C 1183.914062 281.976562 1195.242188 270.855469 1206.207031 260.105469 C 1216.039062 250.535156 1226.167969 240.652344 1238.695312 235.121094 C 1242.324219 233.46875 1246.804688 231.679688 1251.527344 229.765625 C 1273.085938 221.082031 1302.574219 209.140625 1310.773438 193.683594 C 1314.191406 187.15625 1314.664062 179.585938 1311.902344 171.890625 C 1307.980469 160.675781 1297.785156 150.125 1285.859375 144.972656 C 1280.574219 142.628906 1274.546875 139.933594 1268.210938 137.058594 C 1251.855469 129.667969 1233.34375 121.28125 1219.230469 116.535156 C 1207.753906 112.65625 1193.558594 127.121094 1179.964844 141.09375 C 1166.070312 155.25 1151.699219 170.027344 1139.910156 165.601562 C 1120.6875 158.449219 1075.738281 141.574219 1054.015625 141.109375 C 1050.71875 141.046875 1047.605469 140.921875 1044.859375 140.789062 C 1025.144531 140.109375 1017.699219 139.875 997.421875 151.832031 C 989.394531 156.550781 983.078125 157.886719 978.394531 158.761719 C 970.25 160.375 966.546875 161.234375 965.484375 176.621094 L 965.4375 177.539062 C 963.804688 201.964844 963.089844 213.019531 980.476562 230.027344 L 980.238281 230.273438 L 980.476562 230.027344 C 982.277344 231.882812 983.960938 233.746094 985.820312 235.542969 Z M 1300.984375 151.652344 C 1304.835938 155.367188 1308.207031 159.695312 1310.914062 164.34375 C 1317.273438 175.390625 1318.453125 186.714844 1314.175781 196.367188 C 1310.601562 204.542969 1302.027344 212.6875 1289.53125 219.808594 C 1278.242188 226.292969 1265.152344 231.042969 1253.636719 235.15625 C 1247.761719 237.273438 1242.246094 239.265625 1237.707031 241.238281 C 1225.058594 246.773438 1214.746094 256.71875 1204.796875 266.289062 C 1193.945312 276.792969 1182.675781 287.609375 1168.371094 292.628906 C 1157.035156 296.550781 1144.828125 296.164062 1133.050781 295.703125 C 1131.769531 295.667969 1130.363281 295.632812 1129.082031 295.59375 C 1098.140625 294.507812 1067.175781 288.84375 1041.9375 279.601562 C 1008.109375 267.222656 984.785156 252.515625 968.703125 233.410156 C 951.371094 215.976562 952.492188 203.753906 954.671875 179.257812 L 954.722656 178.585938 C 956.144531 162.703125 961.179688 161.328125 970.347656 158.90625 C 975.386719 157.535156 981.699219 155.835938 989.359375 151.121094 C 991.894531 149.613281 994.246094 148.167969 996.417969 146.785156 C 1014.097656 136.28125 1020.433594 135.800781 1041.386719 134.203125 L 1044.859375 133.957031 C 1069.222656 132.054688 1119.65625 148.585938 1129.535156 151.882812 L 1132.542969 152.867188 C 1144.632812 156.980469 1159.226562 144.332031 1173.277344 132.003906 C 1187.566406 119.546875 1202.335938 106.59375 1214.921875 111.0625 C 1239.050781 119.835938 1263.023438 130.015625 1286.15625 141.1875 L 1287.203125 141.714844 C 1292.316406 144.367188 1296.949219 147.761719 1300.984375 151.652344 Z M 977.269531 241.550781 C 992.726562 256.460938 1013.679688 268.523438 1042.171875 278.988281 C 1067.40625 288.230469 1098.25 293.894531 1129.195312 294.980469 C 1130.476562 295.019531 1131.878906 295.054688 1133.160156 295.09375 C 1144.878906 295.492188 1156.964844 296.003906 1168.238281 292.140625 C 1182.363281 287.191406 1193.574219 276.433594 1204.363281 265.992188 C 1214.375 256.359375 1224.746094 246.351562 1237.453125 240.753906 C 1241.992188 238.78125 1247.566406 236.730469 1253.445312 234.609375 C 1264.960938 230.5 1277.988281 225.6875 1289.277344 219.324219 C 1301.714844 212.269531 1310.171875 204.246094 1313.683594 196.132812 C 1317.84375 186.726562 1316.664062 175.523438 1310.433594 164.71875 C 1304.828125 155.121094 1296.699219 147.398438 1286.851562 142.332031 L 1285.804688 141.804688 C 1262.667969 130.632812 1238.757812 120.511719 1214.566406 111.679688 C 1202.351562 107.324219 1187.761719 120.089844 1173.589844 132.546875 C 1159.359375 144.941406 1144.707031 157.769531 1132.25 153.542969 L 1129.304688 152.5 C 1119.421875 149.199219 1069.109375 132.664062 1044.867188 134.566406 L 1041.398438 134.8125 C 1020.019531 136.480469 1014.230469 136.890625 996.730469 147.332031 C 994.558594 148.589844 992.207031 150.035156 989.734375 151.605469 C 982.011719 156.378906 975.699219 158.078125 970.539062 159.453125 C 961.617188 161.871094 956.761719 163.179688 955.394531 178.636719 L 955.34375 179.308594 C 953.160156 203.5625 952.101562 215.71875 969.246094 232.972656 C 971.675781 235.917969 974.351562 238.738281 977.269531 241.550781 Z M 1300.625 148.550781 C 1305.34375 153.097656 1309.585938 158.511719 1312.742188 164.3125 C 1317.410156 172.765625 1321.90625 185.492188 1317.085938 198.816406 C 1313.597656 208.273438 1304.859375 217.578125 1292.308594 225.003906 C 1280.722656 231.921875 1266.957031 236.378906 1254.832031 240.378906 C 1248.039062 242.574219 1241.734375 244.640625 1236.464844 246.871094 C 1223.574219 252.410156 1213.082031 262.421875 1202.886719 272.121094 C 1192.214844 282.316406 1181.183594 292.882812 1167.433594 298.074219 C 1157.074219 301.980469 1146.035156 302.117188 1135.363281 302.25 C 1133.167969 302.289062 1130.972656 302.328125 1128.777344 302.371094 C 1109.695312 302.898438 1072.222656 301.621094 1035.183594 287.226562 C 1008.773438 276.96875 978.9375 262.929688 957.410156 236.175781 C 940.5 218.429688 941.964844 204.984375 944.636719 180.71875 L 944.632812 180.476562 C 946.421875 164.707031 952.421875 162.707031 962.550781 159.414062 C 967.765625 157.734375 974.253906 155.605469 981.730469 150.832031 C 984.441406 149.015625 986.855469 147.507812 989.023438 146.128906 C 1007.949219 133.585938 1011.820312 131.6875 1035.773438 127.472656 C 1058.453125 123.464844 1102.007812 133.839844 1121.816406 139.886719 C 1122.492188 140.058594 1123.105469 140.289062 1123.71875 140.523438 C 1124.085938 140.636719 1124.519531 140.8125 1124.886719 140.929688 C 1137.644531 144.96875 1152.511719 134.023438 1166.839844 123.519531 C 1181.648438 112.636719 1197 101.445312 1210.203125 106.390625 L 1214.867188 108.136719 C 1237.957031 116.746094 1266.757812 127.507812 1287.027344 138.671875 L 1288.136719 139.261719 C 1292.449219 141.621094 1296.714844 144.777344 1300.625 148.550781 Z M 968.347656 247.445312 C 988.398438 266.785156 1013.125 278.171875 1035.296875 286.734375 C 1072.273438 301.074219 1109.625 302.351562 1128.707031 301.820312 C 1130.902344 301.78125 1133.097656 301.742188 1135.292969 301.703125 C 1145.964844 301.570312 1156.878906 301.433594 1167.179688 297.589844 C 1180.808594 292.402344 1191.78125 281.894531 1202.394531 271.761719 C 1212.648438 262 1223.136719 251.871094 1236.152344 246.328125 C 1241.476562 244.035156 1247.847656 242.03125 1254.574219 239.773438 C 1266.640625 235.835938 1280.40625 231.378906 1291.933594 224.523438 C 1304.304688 217.160156 1313.042969 207.976562 1316.414062 198.644531 C 1321.238281 185.566406 1316.742188 172.960938 1312.140625 164.6875 C 1306.335938 154.179688 1297.453125 145.128906 1287.65625 139.757812 L 1286.546875 139.167969 C 1266.21875 128.066406 1237.542969 117.300781 1214.453125 108.691406 L 1209.785156 106.945312 C 1196.828125 102.117188 1181.660156 113.25 1166.96875 124.003906 C 1152.523438 134.632812 1137.476562 145.640625 1124.410156 141.546875 C 1124.039062 141.429688 1123.609375 141.257812 1123.242188 141.140625 C 1122.628906 140.90625 1121.953125 140.738281 1121.339844 140.503906 C 1101.53125 134.457031 1058.097656 124.082031 1035.542969 128.085938 C 1011.222656 132.429688 1007.898438 134.136719 989.09375 146.675781 C 986.925781 148.054688 984.515625 149.6875 981.742188 151.445312 C 974.203125 156.277344 967.714844 158.40625 962.441406 160.148438 C 952.617188 163.375 946.675781 165.3125 945.0625 180.652344 L 945.066406 180.894531 C 942.390625 205.035156 940.925781 218.359375 957.710938 235.867188 C 961.140625 240.011719 964.625 243.851562 968.347656 247.445312 Z M 1288.820312 136.5625 L 1287.707031 135.851562 C 1270.261719 125.492188 1246.3125 116.65625 1225.128906 108.925781 C 1218.128906 106.367188 1211.5 103.925781 1205.355469 101.476562 C 1191.351562 95.996094 1175.480469 105.492188 1160.15625 114.796875 C 1145.554688 123.597656 1130.46875 132.652344 1116.980469 128.75 C 1116.613281 128.636719 1116.246094 128.519531 1115.753906 128.40625 C 1115.082031 128.234375 1114.464844 128.003906 1113.792969 127.832031 C 1091.171875 121.59375 1049.207031 114.664062 1026.324219 120.996094 C 1006.417969 126.476562 1001.964844 129.851562 989.992188 138.914062 C 987.464844 140.789062 984.636719 142.972656 981.265625 145.476562 C 979.101562 147.101562 976.449219 148.855469 973.734375 150.671875 C 966.441406 155.5 960.023438 157.933594 954.386719 160.050781 C 943.605469 164.148438 936.457031 166.839844 934.300781 182.492188 C 931.132812 206.519531 929.140625 221.011719 945.875 239.191406 L 946.292969 238.757812 C 929.808594 220.816406 931.683594 206.449219 934.910156 182.605469 C 936.953125 167.316406 943.980469 164.75 954.582031 160.71875 C 960.277344 158.539062 966.699219 156.105469 974.113281 151.277344 C 976.886719 149.398438 979.476562 147.703125 981.703125 146.015625 C 985.074219 143.515625 987.964844 141.390625 990.429688 139.453125 C 1002.34375 130.457031 1006.734375 127.023438 1026.519531 121.664062 C 1041.511719 117.550781 1077.210938 118.550781 1113.683594 128.566406 C 1114.359375 128.738281 1115.03125 128.90625 1115.644531 129.140625 C 1116.015625 129.253906 1116.503906 129.367188 1116.871094 129.484375 C 1130.546875 133.445312 1145.75 124.265625 1160.53125 115.398438 C 1175.738281 106.21875 1191.488281 96.847656 1205.183594 102.148438 C 1211.386719 104.539062 1218.019531 106.980469 1224.960938 109.597656 C 1246.082031 117.390625 1269.96875 126.167969 1287.355469 136.46875 L 1288.464844 137.179688 C 1298.578125 143.21875 1307.597656 152.996094 1313.847656 164.65625 C 1320.726562 177.402344 1322.539062 190.054688 1319.140625 201.15625 C 1315.917969 211.707031 1306.894531 222.175781 1294.527344 229.78125 C 1282.585938 237.195312 1268.148438 241.480469 1255.40625 245.25 C 1247.882812 247.457031 1240.722656 249.539062 1234.730469 252.148438 C 1221.476562 257.695312 1210.742188 267.953125 1200.308594 277.777344 C 1189.933594 287.664062 1179.140625 297.859375 1165.9375 303.222656 C 1156.433594 307.117188 1146.136719 307.726562 1136.207031 308.335938 C 1133.585938 308.441406 1130.84375 308.675781 1128.226562 308.90625 C 1094.058594 311.78125 1057.675781 306.644531 1028.488281 294.667969 C 998.992188 282.632812 968.589844 267.570312 946.359375 238.9375 L 945.878906 239.3125 C 955.871094 252.183594 968.019531 263.066406 982.894531 272.617188 C 995.109375 280.449219 1009.082031 287.453125 1028.191406 295.222656 C 1057.441406 307.136719 1093.886719 312.332031 1128.234375 309.394531 C 1130.851562 309.164062 1133.59375 309.054688 1136.214844 308.824219 C 1146.207031 308.277344 1156.5625 307.601562 1166.128906 303.648438 C 1179.390625 298.222656 1190.242188 287.960938 1200.675781 278.015625 C 1210.992188 268.191406 1221.785156 257.992188 1234.859375 252.511719 C 1240.855469 250.023438 1247.953125 247.882812 1255.476562 245.675781 C 1268.214844 241.90625 1282.777344 237.617188 1294.71875 230.203125 C 1307.265625 222.414062 1316.347656 211.882812 1319.691406 201.207031 C 1323.148438 189.921875 1321.332031 177.148438 1314.328125 164.28125 C 1310.539062 157.152344 1305.605469 150.714844 1300.078125 145.386719 C 1296.722656 141.910156 1292.828125 138.992188 1288.820312 136.5625 Z M 1300.023438 142.214844 C 1306.355469 148.324219 1311.980469 155.90625 1316.339844 164.308594 C 1323.605469 178.144531 1325.804688 191.765625 1322.664062 203.714844 C 1319.585938 215.726562 1310.464844 227.296875 1297.558594 235.460938 C 1285.136719 243.371094 1270.511719 247.355469 1256.429688 251.144531 C 1248.171875 253.371094 1240.28125 255.464844 1233.621094 258.269531 C 1220.242188 263.816406 1209.328125 274.136719 1198.710938 284.027344 C 1188.457031 293.667969 1177.839844 303.558594 1165.132812 309.152344 C 1155.992188 313.160156 1146.132812 314.195312 1136.632812 315.21875 C 1133.710938 315.515625 1130.730469 315.875 1127.746094 316.234375 C 1091.730469 321.152344 1052.910156 316.304688 1021.316406 302.847656 C 983.882812 286.992188 956.273438 271.269531 934.339844 242.082031 C 917.898438 223.472656 920.367188 207.996094 924.089844 184.507812 C 926.492188 169.09375 934.847656 165.527344 946.347656 160.683594 C 952.160156 158.261719 958.757812 155.394531 965.925781 150.570312 C 968.941406 148.5625 971.527344 146.625 973.691406 144.878906 C 979.765625 140.074219 983.84375 136.21875 987.441406 132.859375 C 995.542969 125.332031 1000.398438 120.792969 1017.0625 114.574219 C 1038.691406 106.558594 1078.996094 109.246094 1105.890625 115.898438 C 1106.628906 116.128906 1107.363281 116.238281 1108.097656 116.46875 C 1108.464844 116.582031 1108.832031 116.699219 1109.261719 116.753906 C 1123.296875 120.464844 1138.597656 113.171875 1153.414062 106.132812 C 1169.316406 98.589844 1185.886719 90.726562 1200.695312 96.742188 C 1208.804688 100.011719 1217.644531 103.144531 1226.976562 106.511719 C 1248.832031 114.292969 1271.421875 122.300781 1288.574219 133.214844 L 1289.75 133.984375 C 1293.390625 136.296875 1296.730469 139.042969 1300.023438 142.214844 Z M 950.632812 259.476562 C 969.691406 277.859375 992.785156 290.066406 1021.671875 302.351562 C 1053.203125 315.75 1091.839844 320.542969 1127.800781 315.683594 C 1130.71875 315.265625 1133.761719 314.964844 1136.6875 314.667969 C 1146.121094 313.707031 1155.921875 312.613281 1164.9375 308.609375 C 1177.585938 303.074219 1188.140625 293.125 1198.335938 283.546875 C 1208.953125 273.535156 1219.929688 263.273438 1233.429688 257.601562 C 1240.148438 254.855469 1247.976562 252.703125 1256.234375 250.480469 C 1270.316406 246.6875 1284.824219 242.828125 1297.183594 234.855469 C 1309.90625 226.757812 1318.910156 215.3125 1321.988281 203.546875 C 1325.128906 191.59375 1322.941406 178.460938 1315.675781 164.625 C 1309.101562 151.933594 1299.761719 141.246094 1289.332031 134.542969 L 1288.160156 133.769531 C 1271.066406 122.917969 1248.535156 114.847656 1226.746094 107.128906 C 1217.414062 103.757812 1208.574219 100.625 1200.460938 97.355469 C 1185.902344 91.457031 1169.511719 99.257812 1153.730469 106.800781 C 1138.789062 113.839844 1123.429688 121.191406 1109.152344 117.484375 C 1108.785156 117.371094 1108.417969 117.253906 1107.988281 117.203125 C 1107.316406 117.03125 1106.578125 116.800781 1105.84375 116.691406 C 1079.011719 110.101562 1038.886719 107.347656 1017.378906 115.363281 C 1000.777344 121.519531 995.980469 125.996094 988.003906 133.519531 C 984.40625 136.878906 980.328125 140.734375 974.195312 145.601562 C 972.03125 147.347656 969.320312 149.289062 966.367188 151.355469 C 959.136719 156.242188 952.539062 159.109375 946.730469 161.53125 C 935.410156 166.308594 927.238281 169.8125 924.828125 184.859375 C 921.160156 208.164062 918.757812 223.578125 935.070312 241.949219 C 939.878906 248.265625 945.109375 254.148438 950.632812 259.476562 Z M 1299.777344 138.867188 C 1306.855469 145.691406 1313.050781 154.300781 1318.109375 164.214844 C 1325.761719 179.261719 1328.269531 193.308594 1325.511719 206.105469 C 1322.640625 219.390625 1313.476562 232 1300.273438 240.59375 C 1287.4375 249.0625 1272.074219 252.816406 1257.257812 256.5 C 1248.269531 258.734375 1239.707031 260.78125 1232.320312 263.839844 C 1218.578125 269.519531 1207.359375 279.90625 1196.5625 289.984375 C 1186.542969 299.253906 1176.289062 308.890625 1164.011719 314.664062 C 1155.179688 318.847656 1145.753906 320.300781 1136.570312 321.746094 C 1133.527344 322.167969 1130.425781 322.652344 1127.324219 323.253906 C 1090.304688 330.207031 1048.074219 325.542969 1014.445312 310.839844 C 980.691406 296.019531 948.320312 279.890625 922.929688 245.214844 C 907.414062 227.015625 909.320312 211.125 913.757812 186.644531 C 916.472656 171.410156 926.089844 167.027344 938.25 161.378906 C 944.238281 158.648438 951.011719 155.476562 958.058594 150.53125 C 961.25 148.335938 963.898438 146.214844 966.121094 144.40625 C 973.808594 137.800781 978.167969 132.660156 982.050781 128.136719 C 988.144531 120.953125 992.917969 115.253906 1007.859375 108.335938 C 1020.984375 102.183594 1038.457031 100.464844 1050.769531 100 C 1066.742188 99.464844 1084.027344 100.921875 1098.113281 104.082031 C 1098.910156 104.253906 1099.707031 104.421875 1100.441406 104.652344 L 1101.542969 104.875 C 1116.003906 108.394531 1131.457031 102.933594 1146.425781 97.597656 C 1163.03125 91.6875 1180.246094 85.644531 1195.914062 92.132812 C 1205.320312 96.046875 1215.691406 99.582031 1226.554688 103.347656 C 1248.835938 111.058594 1271.910156 118.9375 1289.324219 130.699219 L 1290.558594 131.53125 C 1293.765625 133.546875 1296.859375 136.050781 1299.777344 138.867188 Z M 941.464844 265.253906 C 963.316406 286.328125 988.609375 298.621094 1014.796875 310.101562 C 1048.304688 324.804688 1090.351562 329.414062 1127.3125 322.523438 C 1130.351562 321.980469 1133.515625 321.4375 1136.554688 321.015625 C 1145.679688 319.628906 1155.109375 318.179688 1163.816406 313.996094 C 1175.972656 308.226562 1186.230469 298.707031 1196.125 289.441406 C 1206.984375 279.304688 1218.261719 268.851562 1232.125 263.175781 C 1239.511719 260.113281 1248.074219 258.066406 1257.121094 255.769531 C 1271.878906 252.148438 1287.179688 248.457031 1299.898438 239.992188 C 1312.917969 231.460938 1322.027344 219.039062 1324.839844 205.933594 C 1327.539062 193.320312 1325.089844 179.335938 1317.503906 164.46875 C 1310.359375 150.507812 1301.003906 139.210938 1290.257812 131.839844 L 1289.023438 131.007812 C 1271.671875 119.308594 1248.65625 111.367188 1226.4375 103.71875 C 1215.515625 100.011719 1205.203125 96.414062 1195.800781 92.5 C 1180.3125 86.070312 1163.222656 92.113281 1146.738281 98.019531 C 1131.769531 103.355469 1116.195312 108.820312 1101.492188 105.304688 L 1100.390625 105.078125 C 1099.59375 104.910156 1098.859375 104.679688 1098.0625 104.511719 C 1071.421875 98.589844 1030.851562 98.039062 1008.230469 108.695312 C 993.472656 115.550781 988.875 120.941406 982.664062 128.371094 C 978.78125 132.894531 974.421875 138.035156 966.675781 144.703125 C 964.453125 146.632812 961.746094 148.695312 958.550781 150.886719 C 951.503906 155.832031 944.667969 158.945312 938.621094 161.738281 C 926.222656 167.511719 917.207031 171.640625 914.550781 186.570312 C 910.109375 210.804688 908.199219 226.574219 923.527344 244.597656 L 923.347656 244.78125 L 923.589844 244.65625 C 929.21875 252.363281 935.195312 259.207031 941.464844 265.253906 Z M 1299.472656 135.457031 C 1307.292969 143 1314.238281 152.695312 1319.9375 164.179688 C 1327.910156 180.140625 1330.742188 195.09375 1328.300781 208.554688 C 1325.699219 223.179688 1316.429688 236.765625 1302.929688 245.792969 C 1289.613281 254.878906 1273.515625 258.402344 1258.023438 261.914062 C 1248.304688 264.039062 1239.132812 266.097656 1231.082031 269.476562 C 1217.035156 275.21875 1205.515625 285.796875 1194.414062 296.058594 C 1184.695312 305.019531 1174.679688 314.289062 1163.011719 320.171875 C 1154.371094 324.535156 1145.191406 326.347656 1136.257812 328.15625 C 1133.222656 328.820312 1130.058594 329.367188 1127.023438 330.152344 C 1088.335938 339.207031 1043.730469 334.890625 1007.695312 318.585938 C 970.734375 301.871094 937.980469 285.019531 911.574219 248.042969 C 896.480469 229.652344 898.566406 213.332031 903.667969 188.535156 C 906.75 173.535156 917.148438 168.347656 930.265625 161.828125 C 936.433594 158.789062 943.445312 155.246094 950.367188 150.300781 C 953.261719 148.296875 956.027344 146.054688 958.667969 143.6875 C 967.367188 135.660156 971.519531 129.367188 975.324219 123.808594 C 980.371094 116.214844 984.828125 109.605469 998.714844 101.792969 C 1019.667969 90.007812 1059.054688 85.820312 1090.457031 92.023438 C 1091.25 92.191406 1092.109375 92.421875 1092.90625 92.589844 L 1094.007812 92.8125 C 1108.828125 96.082031 1124.253906 92.390625 1139.253906 88.761719 C 1156.683594 84.605469 1174.71875 80.191406 1191.4375 87.332031 C 1202.070312 91.835938 1213.667969 95.714844 1225.878906 99.824219 C 1248.707031 107.460938 1272.457031 115.390625 1290.25 128 L 1291.546875 128.890625 C 1294.203125 130.734375 1296.867188 132.941406 1299.472656 135.457031 Z M 932.425781 271.152344 C 954.585938 292.523438 980.066406 305.238281 1007.988281 317.910156 C 1043.839844 334.15625 1088.320312 338.476562 1126.886719 329.425781 C 1129.984375 328.695312 1133.085938 328.09375 1136.183594 327.488281 C 1145.058594 325.742188 1154.296875 323.867188 1162.757812 319.566406 C 1174.300781 313.683594 1184.382812 304.476562 1193.980469 295.519531 C 1205.136719 285.191406 1216.65625 274.617188 1230.824219 268.871094 C 1238.9375 265.550781 1248.113281 263.496094 1257.890625 261.304688 C 1273.382812 257.792969 1289.417969 254.210938 1302.617188 245.25 C 1315.933594 236.285156 1325.082031 222.824219 1327.691406 208.445312 C 1330.074219 195.164062 1327.242188 180.335938 1319.394531 164.496094 C 1311.921875 149.382812 1302.1875 137.238281 1291.25 129.324219 L 1289.953125 128.429688 C 1272.160156 115.820312 1248.59375 107.953125 1225.707031 100.375 C 1213.4375 96.328125 1201.839844 92.449219 1191.203125 87.945312 C 1174.667969 80.863281 1156.757812 85.273438 1139.449219 89.429688 C 1124.449219 93.054688 1108.960938 96.8125 1093.957031 93.484375 L 1092.855469 93.261719 C 1092.0625 93.09375 1091.265625 92.921875 1090.40625 92.695312 C 1059.25 86.488281 1019.984375 90.671875 999.152344 102.335938 C 985.386719 110.144531 981.050781 116.628906 976 124.101562 C 972.261719 129.71875 968.042969 136.078125 959.222656 144.105469 C 956.582031 146.46875 953.757812 148.777344 950.867188 150.78125 C 943.878906 155.789062 936.871094 159.328125 930.703125 162.367188 C 917.765625 168.824219 907.550781 173.949219 904.460938 188.582031 C 899.355469 213.132812 897.332031 229.394531 912.296875 247.542969 L 912.175781 247.667969 L 912.296875 247.542969 C 918.496094 256.519531 925.285156 264.265625 932.425781 271.152344 Z M 1299.355469 132.226562 C 1307.859375 140.429688 1315.308594 151.089844 1321.644531 164.148438 C 1329.941406 181.140625 1333.15625 196.941406 1331.089844 211.003906 C 1328.753906 226.84375 1319.503906 241.40625 1305.648438 251.050781 C 1291.855469 260.632812 1274.960938 264.109375 1258.675781 267.453125 C 1248.222656 269.59375 1238.378906 271.601562 1229.71875 275.113281 C 1215.367188 280.921875 1203.546875 291.6875 1192.148438 302.140625 C 1182.785156 310.726562 1173.066406 319.5625 1161.953125 325.617188 C 1153.433594 330.226562 1144.386719 332.523438 1135.582031 334.695312 C 1132.609375 335.421875 1129.574219 336.207031 1126.660156 336.992188 C 1086.484375 348.207031 1039.507812 344.238281 1000.941406 326.332031 C 960.773438 307.601562 927.828125 290.203125 900.285156 251.054688 C 885.363281 232.109375 888.089844 214.128906 893.519531 190.609375 C 896.972656 175.847656 908.695312 169.660156 922.226562 162.460938 C 928.871094 158.925781 935.757812 155.261719 942.683594 150.199219 C 945.691406 148.070312 948.574219 145.578125 951.214844 143.089844 C 960.5625 133.894531 964.515625 126.441406 967.996094 119.851562 C 972.417969 111.417969 976.25 104.089844 989.570312 95.371094 C 1011.695312 80.882812 1050.859375 74.441406 1082.675781 80.085938 C 1083.59375 80.253906 1084.511719 80.421875 1085.371094 80.648438 L 1086.351562 80.875 C 1101.289062 83.898438 1116.4375 81.855469 1131.164062 79.882812 C 1149.601562 77.414062 1168.707031 74.875 1186.71875 82.660156 C 1198.398438 87.695312 1211.039062 91.859375 1224.472656 96.191406 C 1248.15625 103.8125 1272.695312 111.785156 1291.058594 125.421875 L 1292.355469 126.4375 C 1294.765625 128.039062 1297.058594 130.011719 1299.355469 132.226562 Z M 923.320312 277.109375 C 945.792969 298.78125 971.464844 311.921875 1001.113281 325.65625 C 1039.496094 343.507812 1086.347656 347.480469 1126.34375 336.324219 C 1129.316406 335.480469 1132.351562 334.691406 1135.328125 333.96875 C 1144.132812 331.796875 1153.117188 329.558594 1161.511719 324.957031 C 1172.566406 318.960938 1182.167969 310.128906 1191.527344 301.539062 C 1202.984375 291.027344 1214.808594 280.261719 1229.339844 274.386719 C 1238.121094 270.875 1247.964844 268.867188 1258.417969 266.726562 C 1274.703125 263.382812 1291.414062 259.96875 1305.148438 250.449219 C 1318.824219 240.992188 1328.078125 226.550781 1330.355469 210.898438 C 1332.480469 196.769531 1329.402344 181.574219 1320.980469 164.46875 C 1312.996094 148.019531 1303.191406 135.328125 1291.9375 126.75 L 1290.636719 125.734375 C 1272.335938 112.160156 1247.859375 104.246094 1224.175781 96.621094 C 1210.738281 92.289062 1198.039062 88.1875 1186.359375 83.03125 C 1168.53125 75.304688 1150.398438 77.703125 1131.109375 80.308594 C 1116.386719 82.285156 1101.113281 84.328125 1086.054688 81.308594 L 1085.074219 81.082031 C 1084.15625 80.914062 1083.296875 80.6875 1082.378906 80.519531 C 1050.683594 74.871094 1011.761719 81.308594 989.699219 95.734375 C 976.558594 104.390625 972.726562 111.59375 968.363281 119.96875 C 964.882812 126.558594 960.933594 134.132812 951.460938 143.328125 C 948.765625 145.878906 945.820312 148.3125 942.871094 150.5 C 935.949219 155.566406 929.058594 159.226562 922.355469 162.824219 C 908.941406 169.898438 897.34375 176.085938 894.007812 190.601562 C 888.570312 213.875 885.90625 231.796875 900.578125 250.5 C 907.898438 260.675781 915.375 269.445312 923.320312 277.109375 Z M 1299.171875 128.8125 C 1308.296875 137.613281 1316.5 149.480469 1323.472656 164.117188 C 1332.28125 182.4375 1335.683594 198.539062 1333.878906 213.457031 C 1331.75 230.574219 1322.457031 246.171875 1308.300781 256.125 C 1294.089844 266.261719 1276.402344 269.570312 1259.382812 272.808594 C 1248.257812 274.898438 1237.742188 276.855469 1228.355469 280.625 C 1213.519531 286.566406 1201.394531 297.519531 1189.632812 308.222656 C 1180.632812 316.4375 1171.269531 324.902344 1160.828125 331.007812 C 1152.378906 335.917969 1143.339844 338.582031 1134.542969 341.242188 C 1131.8125 342.082031 1128.960938 342.925781 1126.171875 343.832031 C 1084.636719 357.328125 1035.226562 353.648438 994.003906 334.019531 C 950.445312 313.214844 917.367188 295.332031 888.746094 253.824219 L 888.804688 253.761719 C 874.058594 234.265625 877.433594 215.238281 883.367188 192.441406 C 887.128906 177.976562 899.628906 170.980469 914.058594 162.851562 C 920.882812 159.007812 928.070312 155.035156 934.867188 149.851562 C 938 147.597656 941 144.980469 943.699219 142.3125 C 953.578125 132.070312 956.964844 123.835938 960.300781 115.90625 C 964.039062 106.933594 967.488281 98.515625 980.425781 88.828125 C 1003.234375 71.761719 1042.964844 62.996094 1074.957031 67.96875 C 1075.996094 68.132812 1076.976562 68.355469 1078.015625 68.523438 L 1078.75 68.628906 C 1093.375 71.355469 1107.882812 70.847656 1122.023438 70.347656 C 1142.8125 69.667969 1162.4375 68.949219 1182.175781 77.679688 C 1194.839844 83.304688 1209.195312 87.804688 1223.058594 92.191406 C 1247.597656 99.917969 1273.054688 107.9375 1292.042969 122.539062 C 1292.476562 122.835938 1292.96875 123.191406 1293.402344 123.609375 C 1295.261719 125.164062 1297.246094 126.957031 1299.171875 128.8125 Z M 914.21875 283.066406 C 937 305.042969 962.863281 318.480469 994.300781 333.464844 C 1035.335938 353.035156 1084.5625 356.660156 1125.917969 343.226562 C 1128.707031 342.320312 1131.558594 341.476562 1134.289062 340.636719 C 1143.023438 338.039062 1152.0625 335.375 1160.453125 330.523438 C 1170.835938 324.480469 1180.199219 316.019531 1189.140625 307.867188 C 1200.902344 297.164062 1213.144531 286.085938 1227.980469 280.144531 C 1237.425781 276.3125 1247.941406 274.355469 1259.128906 272.324219 C 1276.089844 269.148438 1293.59375 265.785156 1307.808594 255.769531 C 1321.777344 245.878906 1331.015625 230.464844 1333.148438 213.46875 C 1334.894531 198.738281 1331.496094 182.757812 1322.75 164.496094 C 1314.378906 146.835938 1304.191406 133.296875 1292.683594 124.234375 C 1292.1875 123.878906 1291.753906 123.457031 1291.320312 123.160156 C 1272.394531 108.621094 1247 100.660156 1222.523438 92.871094 C 1208.660156 88.484375 1194.242188 83.925781 1181.578125 78.300781 C 1162.023438 69.625 1142.457031 70.285156 1121.730469 71.027344 C 1107.589844 71.523438 1092.960938 72.03125 1078.335938 69.308594 L 1077.601562 69.199219 C 1076.621094 68.972656 1075.644531 68.871094 1074.601562 68.707031 C 1042.855469 63.726562 1003.308594 72.433594 980.558594 89.433594 C 967.738281 98.996094 964.292969 107.417969 960.671875 116.265625 C 957.402344 124.253906 953.953125 132.550781 944.011719 142.855469 C 941.257812 145.585938 938.253906 148.203125 935.0625 150.519531 C 928.203125 155.644531 921.078125 159.675781 914.132812 163.523438 C 899.824219 171.527344 887.445312 178.519531 883.738281 192.675781 C 877.800781 215.351562 874.484375 234.199219 889.164062 253.511719 L 889.105469 253.574219 C 897.238281 264.894531 905.464844 274.625 914.21875 283.066406 Z M 1299.234375 125.519531 C 1309.039062 134.980469 1317.5625 147.632812 1325.304688 164.082031 C 1334.4375 183.558594 1338.160156 200.449219 1336.730469 215.84375 C 1334.988281 234.296875 1325.589844 250.871094 1311.019531 261.382812 C 1296.269531 272.078125 1277.90625 275.21875 1260.152344 278.34375 C 1248.355469 280.386719 1237.167969 282.296875 1227.054688 286.320312 C 1211.792969 292.332031 1199.25 303.71875 1187.1875 314.609375 C 1178.605469 322.390625 1169.664062 330.421875 1159.832031 336.515625 C 1151.324219 341.730469 1142.113281 344.945312 1133.261719 348.035156 C 1130.777344 348.871094 1128.230469 349.773438 1125.808594 350.667969 C 1104.964844 358.363281 1081.113281 361.601562 1056.871094 360.027344 C 1032.691406 358.511719 1008.605469 352.175781 987.253906 341.765625 C 941.714844 319.535156 907.152344 300.457031 877.453125 256.710938 C 862.816406 236.605469 867.074219 215.789062 873.15625 194.453125 C 877.230469 180.289062 891.109375 172.109375 905.835938 163.429688 C 912.957031 159.273438 920.261719 154.933594 927.058594 149.746094 C 930.308594 147.371094 933.371094 144.570312 936.125 141.714844 C 946.410156 130.429688 949.417969 121.226562 952.304688 112.269531 C 955.480469 102.390625 958.484375 93.066406 971.160156 82.40625 C 994.953125 62.335938 1034.402344 51.5 1067.054688 56.03125 C 1068.03125 56.136719 1069.011719 56.363281 1069.929688 56.53125 L 1070.910156 56.632812 C 1084.121094 58.835938 1097.128906 59.636719 1109.765625 60.324219 C 1133.03125 61.671875 1155.007812 62.859375 1177.269531 72.949219 C 1190.800781 79.046875 1206.132812 83.773438 1220.976562 88.261719 C 1246.492188 96.097656 1272.925781 104.21875 1292.726562 119.84375 L 1294.210938 121.035156 C 1295.882812 122.40625 1297.554688 123.902344 1299.234375 125.519531 Z M 904.925781 288.605469 C 928.390625 311.234375 955.179688 325.449219 987.546875 341.210938 C 1008.839844 351.5625 1032.800781 357.898438 1056.859375 359.417969 C 1080.980469 360.996094 1104.710938 357.761719 1125.554688 350.0625 C 1128.035156 349.105469 1130.582031 348.203125 1133.066406 347.367188 C 1141.917969 344.277344 1151.070312 341.125 1159.453125 335.910156 C 1169.226562 329.878906 1178.105469 321.789062 1186.75 314.070312 C 1198.875 303.117188 1211.414062 291.726562 1226.859375 285.652344 C 1236.972656 281.628906 1248.160156 279.71875 1260.015625 277.613281 C 1277.710938 274.550781 1296.011719 271.351562 1310.640625 260.78125 C 1325.09375 250.394531 1334.371094 233.941406 1336.117188 215.734375 C 1337.546875 200.457031 1333.828125 183.570312 1324.757812 164.277344 C 1315.75 145.164062 1305.675781 131.136719 1293.792969 121.46875 L 1292.367188 120.335938 C 1272.691406 104.710938 1246.316406 96.648438 1220.863281 88.875 C 1205.960938 84.324219 1190.628906 79.601562 1177.097656 73.5 C 1154.898438 63.472656 1133.039062 62.28125 1109.839844 60.992188 C 1097.203125 60.308594 1084.136719 59.566406 1070.859375 57.304688 L 1069.882812 57.203125 C 1068.964844 57.035156 1067.984375 56.929688 1067.007812 56.703125 C 1034.539062 52.230469 995.332031 63.0625 971.597656 82.949219 C 959.039062 93.484375 956.097656 102.746094 952.917969 112.5 C 949.972656 121.519531 947.027344 130.785156 936.621094 142.195312 C 933.808594 145.113281 930.746094 147.914062 927.4375 150.351562 C 920.578125 155.597656 913.277344 159.9375 906.152344 164.09375 C 890.945312 173.027344 877.726562 180.769531 873.769531 194.6875 C 867.6875 215.902344 863.484375 236.53125 877.933594 256.460938 C 886.453125 268.871094 895.429688 279.441406 904.925781 288.605469 Z M 1294.957031 118.398438 L 1293.410156 117.144531 C 1272.980469 100.4375 1245.628906 92.269531 1219.136719 84.332031 C 1203.3125 79.617188 1186.941406 74.726562 1172.488281 68.09375 C 1144.75 55.359375 1117.605469 51.824219 1088.867188 48.074219 C 1080.492188 46.945312 1071.871094 45.820312 1063.066406 44.515625 L 1062.941406 44.519531 C 1061.71875 44.296875 1060.375 44.078125 1059.03125 43.980469 C 1025.65625 39.945312 986.609375 52.851562 961.710938 75.929688 C 949.238281 87.621094 946.738281 97.792969 944.0625 108.515625 C 941.621094 118.5 939.0625 128.730469 928.425781 141 C 925.554688 144.101562 922.433594 146.964844 919.125 149.523438 C 912.269531 154.894531 904.726562 159.484375 897.367188 164.007812 C 881.804688 173.558594 867.144531 182.546875 862.761719 196.410156 C 855.089844 220.765625 852.644531 240.8125 865.855469 259.667969 L 866.335938 259.292969 C 853.3125 240.617188 855.699219 220.753906 863.375 196.644531 C 867.644531 183.027344 882.242188 174.101562 897.6875 164.671875 C 905.046875 160.148438 912.648438 155.496094 919.503906 150.128906 C 922.933594 147.566406 926.054688 144.703125 928.921875 141.480469 C 939.675781 129.085938 942.234375 118.734375 944.738281 108.683594 C 947.351562 98.023438 949.851562 87.855469 962.207031 76.410156 C 973.726562 65.710938 989.421875 56.640625 1006.273438 50.847656 C 1024.09375 44.792969 1042.355469 42.632812 1058.917969 44.589844 C 1060.203125 44.75 1061.546875 44.96875 1062.773438 45.191406 L 1062.894531 45.191406 C 1071.640625 46.558594 1080.261719 47.683594 1088.699219 48.75 C 1117.371094 52.441406 1144.457031 56.039062 1172.132812 68.710938 C 1186.648438 75.402344 1203.019531 80.292969 1218.84375 85.007812 C 1245.273438 92.886719 1272.625 101.054688 1292.929688 117.640625 L 1294.476562 118.894531 C 1306.742188 129.285156 1316.820312 143.683594 1326.34375 164.246094 C 1335.925781 184.996094 1339.898438 202.125 1338.785156 218.1875 C 1337.421875 237.363281 1327.863281 255.222656 1313.175781 265.980469 C 1298.128906 277.109375 1279.03125 280.136719 1260.605469 283.09375 C 1248.5625 285.019531 1236.214844 287.011719 1225.375 291.292969 C 1209.445312 297.496094 1196.421875 309.257812 1183.878906 320.527344 C 1175.714844 327.871094 1167.375 335.402344 1158.210938 341.421875 C 1149.472656 347.132812 1140.085938 350.898438 1130.941406 354.542969 C 1128.941406 355.371094 1126.882812 356.140625 1124.886719 356.96875 C 1081.597656 374.769531 1026.21875 371.679688 980.429688 348.964844 C 938.761719 328.308594 899.433594 308.707031 866.214844 259.292969 L 865.671875 259.609375 C 898.957031 309.207031 938.40625 328.804688 980.132812 349.519531 C 1026.046875 372.355469 1081.605469 375.378906 1125.078125 357.515625 C 1127.074219 356.683594 1129.074219 355.855469 1131.132812 355.085938 C 1140.277344 351.445312 1149.722656 347.613281 1158.464844 341.90625 C 1167.625 335.886719 1176.027344 328.292969 1184.191406 320.949219 C 1196.734375 309.679688 1209.699219 297.980469 1225.507812 291.777344 C 1236.285156 287.558594 1248.085938 285.636719 1260.550781 283.640625 C 1279.101562 280.683594 1298.257812 277.59375 1313.425781 266.339844 C 1328.234375 255.460938 1337.914062 237.476562 1339.269531 218.054688 C 1340.378906 201.871094 1336.410156 184.621094 1326.757812 163.691406 C 1318.378906 145.421875 1309.414062 131.984375 1298.984375 121.925781 C 1297.808594 120.910156 1296.441406 119.589844 1294.957031 118.398438 Z M 1299.171875 118.871094 C 1310.222656 129.527344 1319.691406 143.933594 1328.777344 163.960938 C 1338.8125 185.980469 1343.101562 204.019531 1342.246094 220.683594 C 1341.214844 241.257812 1331.496094 260.402344 1316.269531 271.71875 C 1300.5625 283.53125 1280.609375 286.453125 1261.324219 289.300781 C 1248.734375 291.175781 1235.714844 293.117188 1224.269531 297.535156 C 1207.792969 303.929688 1194.347656 316.007812 1181.324219 327.769531 C 1173.765625 334.617188 1165.902344 341.648438 1157.527344 347.472656 C 1148.253906 353.984375 1138.207031 358.433594 1128.589844 362.816406 C 1127.320312 363.390625 1126.046875 363.960938 1124.835938 364.472656 C 1080.25 384.734375 1022.257812 382 973.507812 357.386719 C 928.140625 334.476562 888.929688 314.632812 854.503906 262.617188 C 840.585938 241.765625 845.714844 218.433594 852.671875 198.421875 C 857.308594 184.921875 872.746094 175.125 889.148438 164.707031 C 896.804688 159.871094 904.644531 154.847656 911.5 149.359375 C 914.988281 146.734375 918.226562 143.625 921.097656 140.402344 C 932.019531 127.210938 934.195312 115.890625 936.128906 104.9375 C 938.234375 93.1875 940.292969 82.109375 952.75 69.441406 C 978.144531 43.488281 1017.761719 28.5 1051.371094 31.917969 C 1052.777344 32.078125 1054.183594 32.234375 1055.40625 32.457031 C 1089.957031 37.382812 1127.535156 44.511719 1167.765625 63.300781 C 1183.144531 70.464844 1200.433594 75.519531 1217.171875 80.402344 C 1244.644531 88.445312 1273.09375 96.714844 1294.214844 114.449219 L 1295.824219 115.761719 C 1296.9375 116.714844 1298.054688 117.792969 1299.171875 118.871094 Z M 886.847656 300.761719 C 913.105469 326.089844 941.914062 340.695312 973.800781 356.832031 C 1022.367188 381.386719 1080.117188 384.125 1124.585938 363.988281 C 1125.855469 363.417969 1127.125 362.84375 1128.335938 362.335938 C 1138.019531 358.011719 1148 353.5 1157.214844 347.050781 C 1165.589844 341.226562 1173.390625 334.132812 1180.953125 327.410156 C 1194.039062 315.707031 1207.542969 303.570312 1224.078125 297.109375 C 1235.585938 292.632812 1248.601562 290.691406 1261.257812 288.875 C 1280.417969 286.027344 1300.25 283.109375 1315.835938 271.421875 C 1330.882812 260.171875 1340.542969 241.332031 1341.578125 220.878906 C 1342.375 204.273438 1338.148438 186.296875 1328.113281 164.398438 C 1318.203125 142.5 1307.742188 127.253906 1295.285156 116.441406 L 1293.738281 115.066406 C 1272.679688 97.390625 1244.351562 89.121094 1216.941406 81.136719 C 1200.203125 76.257812 1182.789062 71.203125 1167.414062 64.039062 C 1127.246094 45.308594 1089.726562 38.238281 1055.238281 33.25 C 1053.953125 33.09375 1052.609375 32.871094 1051.203125 32.714844 C 1017.777344 29.230469 978.339844 44.277344 953.066406 69.984375 C 940.789062 82.46875 938.789062 93.484375 936.683594 105.109375 C 934.6875 116.125 932.574219 127.507812 921.46875 140.882812 C 918.542969 144.167969 915.304688 147.277344 911.753906 149.964844 C 904.898438 155.453125 896.9375 160.476562 889.402344 165.3125 C 873.183594 175.667969 857.804688 185.398438 853.226562 198.71875 C 840.996094 234.132812 847.273438 250.730469 855.046875 262.300781 C 865.265625 277.546875 875.796875 290.105469 886.847656 300.761719 Z M 1299.296875 115.636719 C 1314.257812 130.066406 1323.808594 148.863281 1330.605469 163.925781 C 1337.722656 179.777344 1345.851562 200.796875 1345.15625 223.132812 C 1344.453125 244.980469 1334.691406 265.042969 1319.046875 276.914062 C 1302.859375 289.222656 1282.175781 292.035156 1262.15625 294.777344 C 1248.894531 296.601562 1235.203125 298.496094 1223.089844 303.105469 C 1205.886719 309.757812 1191.839844 322.335938 1178.277344 334.535156 C 1171.3125 340.757812 1164.113281 347.234375 1156.585938 352.796875 C 1146.175781 360.488281 1135.171875 365.929688 1124.535156 371.246094 C 1078.832031 393.910156 1018.34375 391.523438 966.75 365.007812 C 919.597656 340.976562 878.902344 320.058594 843.089844 265.507812 C 829.03125 243.679688 835.359375 219.230469 842.460938 200.4375 C 847.347656 187.296875 863.5625 176.695312 880.621094 165.46875 C 888.519531 160.265625 896.65625 154.933594 903.628906 149.316406 C 907.179688 146.507812 910.535156 143.277344 913.523438 139.804688 C 924.734375 125.699219 926.339844 113.347656 927.894531 101.425781 C 929.554688 88.769531 931.109375 76.726562 943.425781 63.085938 C 969.738281 33.941406 1009.015625 17.070312 1043.53125 20.042969 C 1044.507812 20.148438 1045.425781 20.191406 1046.34375 20.359375 C 1046.769531 20.414062 1047.320312 20.464844 1047.75 20.515625 C 1087.429688 25.71875 1121.273438 38.949219 1163.167969 58.628906 C 1179.40625 66.261719 1197.617188 71.484375 1215.332031 76.46875 C 1243.84375 84.554688 1273.332031 92.988281 1295.144531 111.867188 L 1296.753906 113.304688 C 1297.621094 114.019531 1298.429688 114.796875 1299.296875 115.636719 Z M 877.621094 306.480469 C 904.621094 332.523438 934.296875 347.726562 967.046875 364.578125 C 1018.515625 390.972656 1078.761719 393.359375 1124.21875 370.824219 C 1134.859375 365.511719 1145.863281 360.066406 1156.214844 352.4375 C 1163.738281 346.875 1170.941406 340.398438 1177.84375 334.238281 C 1191.46875 321.976562 1205.574219 309.339844 1222.898438 302.683594 C 1235.074219 298.007812 1248.820312 296.054688 1262.148438 294.289062 C 1282.042969 291.550781 1302.667969 288.675781 1318.734375 276.492188 C 1334.257812 264.746094 1343.902344 244.808594 1344.609375 223.203125 C 1345.304688 200.988281 1337.242188 180.03125 1330.183594 164.238281 C 1323.066406 148.386719 1312.824219 128.324219 1296.457031 113.734375 L 1294.847656 112.300781 C 1273.160156 93.542969 1243.730469 85.167969 1215.34375 77.082031 C 1197.6875 72.03125 1179.355469 66.8125 1163.054688 59.117188 C 1121.285156 39.4375 1087.5 26.265625 1047.941406 21.0625 C 1047.515625 21.007812 1046.964844 20.957031 1046.535156 20.90625 C 1045.679688 20.796875 1044.703125 20.695312 1043.726562 20.589844 C 1009.453125 17.609375 970.414062 34.355469 944.222656 63.375 C 932.027344 76.890625 930.472656 88.8125 928.871094 101.40625 C 927.320312 113.453125 925.652344 125.863281 914.320312 140.097656 C 911.332031 143.566406 907.976562 146.800781 904.367188 149.667969 C 897.394531 155.285156 889.195312 160.679688 881.300781 165.882812 C 864.300781 177.046875 848.269531 187.585938 843.378906 200.480469 C 836.335938 219.210938 830.0625 243.355469 843.933594 265.003906 C 854.480469 281.648438 865.824219 295.105469 877.621094 306.480469 Z M 1299.234375 112.101562 C 1315 127.308594 1325.1875 147.679688 1332.4375 163.894531 C 1339.8125 180.59375 1348.261719 202.644531 1347.945312 225.582031 C 1347.628906 248.644531 1337.765625 269.804688 1321.703125 282.109375 C 1304.976562 294.976562 1283.558594 297.683594 1262.804688 300.3125 C 1248.871094 302.089844 1234.507812 303.9375 1221.726562 308.742188 C 1203.613281 315.71875 1188.910156 328.972656 1174.566406 341.859375 C 1168.382812 347.398438 1162.023438 353.125 1155.40625 358.367188 C 1144.761719 366.671875 1133.53125 373.097656 1124.050781 378.210938 C 1100.429688 390.894531 1072.234375 396.773438 1042.445312 395.359375 C 1014.179688 393.980469 985.617188 386.199219 959.878906 372.757812 C 908.894531 346.230469 868.625 325.246094 831.671875 268.273438 C 820.988281 250.902344 821.207031 229.304688 832.246094 202.207031 C 837.445312 189.488281 855.039062 177.582031 872.03125 166.050781 C 880.289062 160.472656 888.84375 154.707031 895.816406 148.96875 C 899.484375 146.039062 902.960938 142.679688 905.882812 139.03125 C 917.382812 124 918.546875 110.621094 919.65625 97.792969 C 920.8125 84.171875 921.921875 71.21875 934.21875 56.480469 C 946.695312 41.554688 962.328125 29.074219 979.3125 20.410156 C 997.925781 10.925781 1017.429688 6.609375 1035.6875 7.925781 C 1037.03125 8.023438 1038.4375 8.183594 1039.722656 8.339844 L 1039.964844 8.335938 C 1075.050781 12.460938 1104.777344 27.234375 1136.226562 42.828125 C 1143.429688 46.417969 1150.8125 50.066406 1158.378906 53.652344 C 1175.484375 61.882812 1194.792969 67.203125 1213.429688 72.359375 C 1242.914062 80.546875 1273.382812 89.085938 1295.882812 108.988281 L 1296.132812 109.226562 C 1296.566406 109.648438 1297.0625 110.003906 1297.558594 110.484375 C 1298.179688 111.082031 1298.675781 111.5625 1299.234375 112.101562 Z M 868.394531 312.441406 C 895.582031 338.664062 925.324219 354.167969 960.234375 372.265625 C 985.910156 385.644531 1014.351562 393.425781 1042.554688 394.746094 C 1072.222656 396.164062 1100.296875 390.289062 1123.792969 377.605469 C 1133.335938 372.429688 1144.570312 366.128906 1155.09375 357.824219 C 1161.648438 352.644531 1168.007812 346.917969 1174.191406 341.378906 C 1188.472656 328.433594 1203.238281 315.113281 1221.472656 308.136719 C 1234.3125 303.269531 1248.734375 301.359375 1262.734375 299.644531 C 1283.363281 297.015625 1304.78125 294.308594 1321.324219 281.507812 C 1337.207031 269.265625 1346.953125 248.351562 1347.332031 225.472656 C 1347.652344 202.65625 1339.265625 180.664062 1331.828125 164.027344 C 1324.449219 147.324219 1313.824219 126.292969 1297.199219 110.976562 C 1296.765625 110.558594 1296.332031 110.140625 1295.835938 109.78125 L 1295.589844 109.542969 C 1273.214844 89.757812 1242.808594 81.28125 1213.382812 73.152344 C 1194.6875 67.9375 1175.375 62.613281 1158.210938 54.324219 C 1150.703125 50.800781 1143.257812 47.09375 1136.054688 43.503906 C 1104.605469 27.90625 1074.941406 13.195312 1039.980469 9.070312 L 1039.734375 9.074219 C 1038.453125 8.914062 1037.046875 8.753906 1035.703125 8.65625 C 1017.5625 7.339844 998.242188 11.589844 979.6875 21.015625 C 962.765625 29.617188 947.253906 42.09375 934.835938 56.957031 C 922.71875 71.511719 921.609375 84.339844 920.449219 97.839844 C 919.339844 110.789062 918.183594 124.289062 906.5625 139.445312 C 903.578125 143.15625 900.101562 146.515625 896.375 149.507812 C 889.34375 155.308594 880.785156 161.074219 872.53125 166.652344 C 855.597656 178.121094 838.0625 189.964844 832.921875 202.5 C 821.941406 229.414062 821.78125 250.824219 832.335938 267.957031 C 843.886719 286.046875 855.855469 300.347656 868.394531 312.441406 Z M 1298.488281 108.027344 C 1297.929688 107.488281 1297.371094 106.949219 1296.753906 106.472656 C 1273.5 85.484375 1241.933594 76.84375 1211.347656 68.550781 C 1191.796875 63.234375 1171.628906 57.679688 1153.722656 49.039062 C 1142.03125 43.394531 1130.507812 36.953125 1119.480469 30.75 C 1091.132812 14.792969 1064.269531 -0.214844 1032.371094 -3.542969 C 1030.964844 -3.699219 1029.4375 -3.855469 1027.972656 -3.949219 C 985.230469 -6.472656 946.835938 22.28125 925.136719 50.117188 C 912.855469 65.832031 912.203125 80.300781 911.539062 94.28125 C 910.875 108.136719 910.21875 122.484375 898.492188 138.371094 C 895.453125 142.269531 891.976562 145.746094 888.066406 148.804688 C 880.976562 154.789062 872.003906 160.988281 863.386719 166.941406 C 845.738281 179.152344 827.484375 191.863281 822.035156 204.222656 C 810.496094 230.476562 809.875 253.601562 820.257812 271.164062 L 820.800781 270.847656 C 810.417969 253.164062 810.988281 230.832031 822.652344 204.453125 C 828.042969 192.28125 846.234375 179.632812 863.761719 167.421875 C 872.4375 161.410156 881.289062 155.210938 888.5 149.222656 C 892.347656 146.105469 895.882812 142.566406 898.984375 138.726562 C 910.894531 122.652344 911.546875 108.1875 912.152344 94.269531 C 912.863281 79.738281 913.46875 65.945312 925.570312 50.414062 C 947.148438 22.699219 985.363281 -5.984375 1027.859375 -3.460938 C 1029.324219 -3.363281 1030.851562 -3.207031 1032.257812 -3.050781 C 1064.035156 0.277344 1090.777344 15.289062 1119.0625 31.183594 C 1130.152344 37.449219 1141.613281 43.828125 1153.367188 49.53125 C 1171.332031 58.234375 1191.558594 63.726562 1211.113281 69.042969 C 1241.578125 77.339844 1273.082031 85.917969 1296.210938 106.789062 C 1296.828125 107.265625 1297.386719 107.804688 1297.945312 108.339844 C 1314.636719 124.082031 1325.328125 145.296875 1333.472656 163.9375 C 1341.617188 182.574219 1349.945312 204.625 1349.9375 227.863281 C 1350.011719 252.140625 1340.34375 274.089844 1323.984375 286.828125 C 1306.960938 300.125 1284.808594 302.722656 1263.445312 305.242188 C 1248.835938 306.972656 1233.742188 308.707031 1220.234375 313.890625 C 1200.910156 321.253906 1185.246094 335.507812 1170.0625 349.261719 C 1164.90625 353.988281 1159.441406 358.90625 1153.972656 363.457031 C 1144.417969 371.375 1134.058594 378.515625 1123.3125 384.6875 C 1099.226562 398.601562 1070.011719 405.289062 1038.9375 403.839844 C 1009.757812 402.535156 980.152344 394.351562 953.300781 380.195312 L 952.75 379.902344 C 900.34375 352.242188 859.019531 330.359375 820.804688 271.09375 L 820.261719 271.40625 C 858.542969 330.855469 899.984375 352.734375 952.453125 380.457031 L 953.007812 380.75 C 979.917969 394.964844 1009.589844 403.210938 1038.890625 404.511719 C 1070.144531 405.898438 1099.421875 399.269531 1123.628906 385.230469 C 1134.433594 378.996094 1144.792969 371.855469 1154.410156 364 C 1159.878906 359.445312 1165.21875 354.53125 1170.5 349.800781 C 1185.5625 336.050781 1201.164062 321.859375 1220.429688 314.558594 C 1233.875 309.4375 1248.972656 307.699219 1263.457031 305.976562 C 1284.941406 303.453125 1307.21875 300.855469 1324.359375 287.429688 C 1340.839844 274.566406 1350.6875 252.433594 1350.734375 228.15625 C 1350.742188 204.796875 1342.410156 182.621094 1334.203125 163.921875 C 1326.1875 145.527344 1315.746094 124.671875 1299.421875 108.925781 C 1299.109375 108.625 1298.800781 108.328125 1298.488281 108.027344 Z M 1299.542969 105.566406 C 1316.425781 121.851562 1327.058594 143.132812 1335.96875 163.707031 C 1344.433594 183.257812 1353.148438 206.398438 1353.519531 230.363281 C 1353.917969 255.789062 1344.03125 278.960938 1327.011719 292.382812 C 1309.332031 306.367188 1286.199219 308.859375 1263.980469 311.273438 C 1248.820312 312.949219 1233.117188 314.695312 1219 319.890625 C 1198.339844 327.644531 1181.664062 343.074219 1165.585938 358 C 1161.507812 361.734375 1157.429688 365.589844 1153.164062 369.265625 C 1143.800781 377.609375 1133.691406 385.230469 1123.078125 391.890625 C 1098.285156 407.28125 1067.980469 414.597656 1035.265625 413.238281 C 1004.867188 411.957031 974.03125 403.304688 946.070312 388.316406 L 943.851562 387.136719 C 890.515625 358.703125 848.265625 336.042969 808.90625 274.234375 L 809.148438 274.109375 L 808.964844 274.175781 C 795.167969 249.71875 804.898438 221.121094 811.949219 206.234375 C 817.648438 194.238281 836.433594 180.84375 854.683594 167.890625 C 864.136719 161.191406 873.109375 154.746094 880.378906 148.578125 C 884.34375 145.335938 887.9375 141.730469 891.039062 137.652344 C 902.992188 120.785156 903.203125 105.410156 903.363281 90.585938 C 903.519531 75.636719 903.789062 60.203125 915.988281 43.453125 C 944.5 4.449219 983.5 -17.847656 1020.25 -16.191406 C 1021.652344 -16.15625 1023.117188 -16.0625 1024.765625 -15.90625 C 1055.742188 -12.992188 1081.410156 3.257812 1108.679688 20.453125 C 1121.699219 28.695312 1135.210938 37.175781 1149.117188 44 C 1167.949219 53.171875 1188.972656 58.832031 1209.378906 64.257812 C 1241.003906 72.714844 1273.671875 81.453125 1297.613281 103.46875 L 1299.351562 105.144531 C 1299.417969 105.449219 1299.480469 105.507812 1299.542969 105.566406 Z M 849.878906 324.058594 C 878 351.183594 908.671875 367.582031 944.269531 386.703125 L 946.488281 387.882812 C 974.386719 402.808594 1005.160156 411.402344 1035.4375 412.6875 C 1067.972656 414.109375 1098.214844 406.734375 1122.886719 391.464844 C 1133.5 384.808594 1143.609375 377.183594 1152.851562 368.84375 C 1156.996094 365.171875 1161.195312 361.3125 1165.214844 357.644531 C 1181.351562 342.773438 1198.089844 327.285156 1218.808594 319.46875 C 1232.984375 314.089844 1248.75 312.402344 1263.96875 310.785156 C 1286.191406 308.371094 1309.136719 305.820312 1326.699219 291.960938 C 1343.539062 278.726562 1353.308594 255.679688 1352.972656 230.433594 C 1352.601562 206.589844 1343.890625 183.449219 1335.425781 164.023438 C 1326.515625 143.445312 1315.945312 122.226562 1299.125 106.003906 C 1299.0625 105.941406 1299 105.882812 1298.9375 105.824219 L 1297.199219 104.148438 C 1273.320312 82.191406 1240.714844 73.511719 1209.210938 65.054688 C 1188.742188 59.566406 1167.65625 53.972656 1148.824219 44.675781 C 1134.796875 37.851562 1121.34375 29.3125 1108.265625 21.132812 C 1081.179688 3.992188 1055.453125 -12.191406 1024.597656 -15.113281 C 1022.949219 -15.265625 1021.484375 -15.359375 1020.140625 -15.457031 C 983.636719 -17.117188 944.816406 5.117188 916.488281 43.929688 C 904.34375 60.496094 904.191406 75.808594 903.972656 90.695312 C 903.816406 105.640625 903.609375 121.136719 891.535156 138.128906 C 888.4375 142.210938 884.78125 145.875 880.816406 149.121094 C 873.546875 155.289062 864.574219 161.734375 855.121094 168.429688 C 836.933594 181.324219 818.203125 194.652344 812.5625 206.464844 C 805.570312 221.171875 795.898438 249.585938 809.570312 273.796875 L 809.507812 273.859375 C 822.507812 294.421875 835.914062 310.589844 849.878906 324.058594 Z M 1299.605469 102.273438 C 1317.171875 119.21875 1328.316406 141.828125 1337.679688 163.800781 C 1346.914062 185.40625 1355.632812 208.792969 1356.3125 232.933594 C 1357.039062 259.636719 1347.046875 283.910156 1329.667969 297.703125 C 1311.511719 312.183594 1287.707031 314.625 1264.691406 316.871094 C 1248.863281 318.5 1232.421875 320.136719 1217.640625 325.648438 C 1195.164062 334.046875 1177.234375 351.019531 1159.902344 367.496094 C 1148.269531 378.566406 1136.15625 390.007812 1122.65625 398.910156 C 1097.339844 415.59375 1065.890625 423.722656 1031.769531 422.328125 C 1000.394531 421.066406 968.394531 412.007812 939.195312 396.1875 L 936.054688 394.476562 C 881.234375 364.847656 837.933594 341.414062 797.308594 277.066406 C 787.398438 258.644531 789.007812 232.875 801.554688 208.191406 C 807.382812 196.679688 826.769531 182.667969 845.492188 169.09375 C 861.75 157.332031 877.042969 146.199219 883.222656 137.183594 C 895.46875 119.515625 895.171875 103.175781 894.824219 87.382812 C 894.539062 71.53125 894.242188 55.066406 906.546875 37.21875 C 919.738281 18.074219 935.613281 1.988281 952.363281 -9.292969 C 971.953125 -22.394531 992.027344 -28.675781 1012.105469 -28 C 1044.941406 -26.886719 1072.679688 -7.441406 1099.550781 11.410156 C 1113.824219 21.457031 1128.648438 31.804688 1144.15625 39.453125 C 1163.726562 49.101562 1185.726562 54.863281 1206.996094 60.519531 C 1239.660156 69.140625 1273.425781 77.984375 1298.183594 101.140625 C 1298.796875 101.496094 1299.234375 101.914062 1299.605469 102.273438 Z M 840.714844 329.957031 C 869.394531 357.621094 900.5 374.441406 936.59375 393.917969 L 939.734375 395.628906 C 968.871094 411.386719 1000.75 420.328125 1032.0625 421.652344 C 1066.0625 423.050781 1097.328125 414.984375 1122.519531 398.304688 C 1135.964844 389.460938 1147.957031 378.019531 1159.589844 366.953125 C 1176.917969 350.476562 1194.90625 333.441406 1217.566406 324.980469 C 1232.410156 319.40625 1248.847656 317.765625 1264.738281 316.199219 C 1288.664062 313.753906 1311.316406 311.515625 1329.355469 297.160156 C 1346.550781 283.429688 1356.425781 259.402344 1355.761719 232.882812 C 1355.144531 208.800781 1346.488281 185.476562 1337.253906 163.988281 C 1327.640625 141.535156 1316.183594 118.503906 1298.066406 101.507812 C 1273.375 78.53125 1239.730469 69.6875 1207.1875 61.066406 C 1185.859375 55.472656 1163.917969 49.648438 1144.226562 40 C 1128.65625 32.292969 1113.832031 21.945312 1099.558594 11.894531 C 1072.8125 -6.832031 1045.195312 -26.28125 1012.484375 -27.398438 C 992.527344 -28.074219 972.511719 -21.855469 953.105469 -8.820312 C 936.414062 2.402344 920.601562 18.421875 907.464844 37.507812 C 895.339844 55.171875 895.636719 71.511719 895.859375 87.304688 C 896.148438 103.15625 896.445312 119.621094 884.140625 137.46875 C 877.839844 146.613281 862.488281 157.683594 846.234375 169.566406 C 827.570312 183.078125 808.304688 197.089844 802.472656 208.480469 C 789.804688 233.042969 788.191406 258.570312 798.035156 276.8125 C 811.847656 298.640625 825.941406 315.707031 840.714844 329.957031 Z M 840.714844 329.957031 " fill-opacity="1" fill-rule="nonzero"/></g></g></g></svg>