<svg xmlns="http://www.w3.org/2000/svg" xmlns:xlink="http://www.w3.org/1999/xlink" width="1366" zoomAndPan="magnify" viewBox="0 0 1024.5 576" height="768" preserveAspectRatio="xMidYMid meet" version="1.0"><defs><clipPath id="65a50af1b8"><path d="M 0 0.140625 L 1024 0.140625 L 1024 575.859375 L 0 575.859375 Z M 0 0.140625 " clip-rule="nonzero"/></clipPath><clipPath id="4098cc5aa9"><path d="M 0 236 L 728 236 L 728 575.859375 L 0 575.859375 Z M 0 236 " clip-rule="nonzero"/></clipPath><clipPath id="1cbfb6b9fd"><path d="M -6.519531 186.25 L 764.066406 1036.773438 L 368.527344 1395.136719 L -402.0625 544.617188 Z M -6.519531 186.25 " clip-rule="nonzero"/></clipPath><clipPath id="218f8d053b"><path d="M -6.519531 186.25 L 764.066406 1036.773438 L 368.527344 1395.136719 L -402.0625 544.617188 Z M -6.519531 186.25 " clip-rule="nonzero"/></clipPath><clipPath id="d70ff87e41"><path d="M 725 0.140625 L 1024 0.140625 L 1024 395 L 725 395 Z M 725 0.140625 " clip-rule="nonzero"/></clipPath><clipPath id="165381e421"><path d="M 858.976562 -143.984375 L 1281.742188 355.566406 L 1131.820312 482.445312 L 709.054688 -17.105469 Z M 858.976562 -143.984375 " clip-rule="nonzero"/></clipPath><clipPath id="88a8a1f44d"><path d="M 858.976562 -143.984375 L 1281.742188 355.566406 L 1131.820312 482.445312 L 709.054688 -17.105469 Z M 858.976562 -143.984375 " clip-rule="nonzero"/></clipPath></defs><g clip-path="url(#65a50af1b8)"><path fill="#ffffff" d="M 0 0.140625 L 1024 0.140625 L 1024 575.859375 L 0 575.859375 Z M 0 0.140625 " fill-opacity="1" fill-rule="nonzero"/><path fill="#ffffff" d="M 0 0.140625 L 1024 0.140625 L 1024 575.859375 L 0 575.859375 Z M 0 0.140625 " fill-opacity="1" fill-rule="nonzero"/></g><g clip-path="url(#4098cc5aa9)"><g clip-path="url(#1cbfb6b9fd)"><g clip-path="url(#218f8d053b)"><path fill="#599CA8" d="M 76.84375 826.734375 C 73.988281 823.582031 71.285156 820.046875 68.730469 816.125 C 45.199219 781.066406 37.179688 733.949219 44.863281 676.347656 C 47.9375 653.855469 59.523438 641.863281 71.917969 629.386719 C 81.285156 619.902344 90.800781 610.03125 97.828125 594.933594 C 102.957031 583.800781 109.8125 574.84375 116.53125 566.015625 C 125.492188 554.152344 134.027344 542.925781 138.183594 527.6875 C 152.710938 474.613281 135.957031 402.980469 111.792969 359.515625 C 97.84375 334.480469 52.542969 318.898438 8.78125 303.914062 C -28.527344 290.820312 -63.539062 278.882812 -80.347656 261.433594 L -79.25 260.441406 C -62.691406 277.617188 -27.816406 289.675781 9.257812 302.238281 C 53.28125 317.234375 98.964844 332.96875 113.148438 358.535156 C 137.300781 402.261719 154.289062 474.429688 139.75 527.765625 C 135.582031 543.265625 126.910156 554.617188 117.808594 566.601562 C 111.230469 575.308594 104.238281 584.386719 99.246094 595.394531 C 92.207031 610.753906 82.425781 620.609375 73.046875 630.359375 C 60.914062 642.847656 49.339844 654.578125 46.417969 676.683594 C 38.886719 733.902344 46.789062 780.621094 70.074219 815.40625 C 80.320312 830.570312 91.535156 839.367188 103.730469 841.539062 C 110.480469 842.660156 117.59375 841.699219 124.3125 840.855469 C 127.347656 840.347656 130.507812 839.980469 133.527344 839.738281 C 175.304688 836.5625 212.546875 866.929688 240.269531 893.949219 L 245.136719 898.769531 C 273.492188 926.214844 302.457031 954.605469 340.636719 960.675781 C 356.613281 963.164062 373.191406 961.363281 389.113281 959.664062 C 395.691406 958.941406 402.273438 958.21875 408.839844 957.753906 C 484.34375 952.710938 556.949219 985.214844 620.847656 1013.886719 C 659.777344 1031.25 684.445312 1048.566406 695.933594 1086.300781 L 694.601562 1086.757812 C 683.347656 1049.558594 658.804688 1032.378906 620.257812 1015.167969 C 556.363281 986.492188 484.007812 954.261719 408.898438 959.199219 C 402.332031 959.660156 395.753906 960.382812 389.171875 961.105469 C 373.117188 962.929688 356.410156 964.59375 340.175781 962.089844 C 301.734375 956.007812 272.386719 927.46875 243.90625 899.886719 L 239.1875 894.683594 C 186.71875 843.929688 155.140625 839.363281 133.464844 841.042969 C 130.441406 841.285156 127.28125 841.65625 124.246094 842.160156 C 117.394531 843.128906 110.277344 844.089844 103.144531 842.820312 C 93.808594 841.050781 84.910156 835.640625 76.84375 826.734375 Z M 102.546875 849.597656 C 109.285156 850.976562 116.386719 850.277344 123.226562 849.570312 L 124.671875 849.507812 C 126.773438 849.351562 129.410156 848.957031 132.15625 848.960938 C 159.839844 847.578125 188.421875 859.851562 219.8125 886.789062 C 224.96875 891.101562 230.480469 896.085938 236.476562 901.878906 C 238.847656 904.21875 241.21875 906.5625 243.589844 908.902344 C 270.691406 935.238281 298.539062 962.394531 334.578125 969.40625 C 350.390625 972.542969 366.683594 971.25 382.441406 970.195312 C 388.609375 969.847656 395.054688 969.246094 401.210938 969.160156 C 469.769531 966.910156 536.109375 991.125 586.351562 1012.710938 C 595.199219 1016.417969 604.296875 1020.398438 612.113281 1023.796875 C 650.792969 1040.886719 675.488281 1057.675781 687.328125 1093.597656 L 688.660156 1093.140625 C 676.585938 1056.683594 651.640625 1039.617188 612.699219 1022.515625 C 604.757812 1018.984375 595.785156 1015.136719 586.9375 1011.429688 C 536.585938 989.445312 469.996094 964.960938 401.164062 967.453125 C 394.871094 967.667969 388.5625 968.140625 382.257812 968.617188 C 366.625 969.808594 350.46875 970.976562 334.78125 967.976562 C 299.128906 961.113281 271.28125 933.957031 244.425781 907.898438 C 242.054688 905.554688 239.683594 903.214844 237.3125 900.871094 C 231.316406 895.078125 225.800781 890.097656 220.648438 885.785156 C 188.996094 858.832031 159.90625 846.273438 131.960938 847.644531 C 129.335938 847.777344 126.574219 848.03125 124.472656 848.191406 L 123.03125 848.25 C 116.328125 848.835938 109.347656 849.671875 102.871094 848.304688 C 91.074219 846.019531 79.984375 837.359375 69.863281 822.332031 C 58.027344 804.867188 49.507812 783.898438 44.796875 759.976562 C 41.125 741.601562 41.28125 722.5 41.535156 704.058594 C 41.628906 699.484375 41.585938 695.03125 41.546875 690.578125 C 41.546875 674.613281 43.953125 662.953125 49.429688 652.75 C 52.460938 647.011719 55.992188 641.820312 59.792969 636.378906 C 64.019531 630.304688 68.257812 623.96875 71.875 616.949219 C 73.472656 613.757812 74.820312 610.289062 76.046875 606.683594 C 77.40625 602.957031 78.78125 598.96875 80.941406 595.015625 C 85.882812 585.050781 92.3125 576.730469 98.480469 568.398438 C 107.582031 556.410156 116.128906 544.921875 120.421875 529.558594 C 135.632812 475.863281 118.886719 406.71875 96.847656 365.320312 C 83.1875 339.78125 39.863281 323.902344 -1.78125 308.496094 C -36.878906 295.644531 -69.914062 283.414062 -85.824219 266.398438 L -86.921875 267.390625 C -70.761719 284.679688 -37.589844 296.785156 -2.507812 309.902344 C 39.140625 325.304688 82.078125 341.035156 95.242188 366.027344 C 117.160156 407.289062 133.929688 475.910156 118.867188 529.222656 C 114.589844 544.324219 106.175781 555.6875 97.078125 567.671875 C 90.910156 576.007812 84.476562 584.328125 79.398438 594.417969 C 77.367188 598.503906 75.867188 602.355469 74.628906 606.222656 C 73.40625 609.828125 72.191406 613.171875 70.472656 616.226562 C 66.851562 623.246094 62.628906 629.320312 58.523438 635.53125 C 54.710938 641.234375 51.183594 646.425781 48.152344 652.164062 C 42.523438 662.75 39.980469 674.535156 39.964844 690.761719 C 40.007812 695.214844 39.914062 699.792969 39.957031 704.242188 C 39.699219 722.683594 39.542969 741.785156 43.207031 760.421875 C 48.039062 784.480469 56.546875 805.707031 68.503906 823.3125 C 71.199219 827.109375 73.777344 830.507812 76.507812 833.523438 C 84.714844 842.304688 93.347656 847.703125 102.546875 849.597656 Z M 101.949219 856.371094 C 108.8125 857.890625 115.640625 857.441406 122.46875 856.992188 L 123.390625 856.90625 C 124.171875 856.945312 124.96875 856.722656 125.753906 856.761719 C 127.332031 856.578125 129.035156 856.53125 130.601562 856.609375 C 158.246094 856.007812 186.566406 868.265625 216.980469 893.847656 C 222.132812 898.160156 227.519531 903.007812 233.394531 908.664062 C 236.523438 911.566406 239.640625 914.730469 242.628906 917.757812 C 268.355469 942.84375 294.824219 968.753906 328.597656 976.570312 C 344.125 980.21875 360.253906 979.574219 375.726562 979.027344 C 381.496094 978.789062 387.265625 978.546875 393.148438 978.707031 C 449.429688 978.605469 509.734375 992.570312 577.695312 1021.050781 C 586.28125 1024.746094 594.742188 1028.304688 603.332031 1032 C 642.164062 1048.703125 667.132812 1065.25 679.546875 1100.152344 L 680.875 1099.695312 C 674.789062 1082.511719 664.875 1068.539062 650.65625 1056.976562 C 636.5625 1045.550781 619.164062 1037.363281 603.917969 1030.71875 C 595.332031 1027.023438 586.742188 1023.328125 578.28125 1019.769531 C 510.195312 991.152344 449.632812 977.175781 393.347656 977.277344 C 387.453125 977.378906 381.558594 977.480469 375.789062 977.722656 C 359.660156 978.367188 344.324219 978.785156 328.921875 975.277344 C 295.535156 967.613281 269.066406 941.703125 243.589844 916.886719 C 240.472656 913.722656 237.34375 910.820312 234.351562 907.792969 C 228.480469 902.136719 223.089844 897.292969 217.9375 892.980469 C 187.277344 867.125 158.574219 854.714844 130.667969 855.300781 C 128.960938 855.347656 127.382812 855.53125 125.679688 855.578125 C 124.894531 855.542969 124.101562 855.761719 123.316406 855.726562 L 122.394531 855.808594 C 115.429688 856.382812 108.863281 856.84375 102.402344 855.21875 C 91.015625 852.5625 80.183594 843.914062 70.039062 829.410156 C 58.425781 812.738281 49.605469 792.539062 43.6875 769.214844 C 40.390625 756.484375 39.851562 743.503906 39.289062 731.042969 C 38.929688 722.386719 38.460938 713.332031 37.058594 704.625 C 34.976562 691.039062 32.800781 676.796875 37.539062 663.027344 C 39.972656 656.082031 43.058594 649.296875 46.414062 642.261719 C 49.910156 635.105469 53.277344 627.8125 56.027344 619.832031 C 57.101562 616.613281 57.65625 613.371094 58.207031 610.125 C 59.113281 605.066406 60.027344 599.742188 62.773438 594.511719 C 67.675781 585.332031 73.558594 577.507812 79.304688 569.808594 C 88.277344 557.683594 96.816406 546.457031 101.367188 531.105469 C 116.613281 479.375 101.34375 412.136719 80.558594 371.847656 C 67.792969 346.742188 26.84375 330.457031 -12.6875 314.636719 C -45.804688 301.484375 -76.996094 289.082031 -92.265625 272.234375 L -93.359375 273.226562 C -77.84375 290.351562 -46.527344 302.890625 -13.410156 316.039062 C 25.996094 331.726562 66.558594 347.859375 79.214844 372.566406 C 99.875 412.71875 114.910156 479.421875 99.9375 530.90625 C 95.535156 545.871094 87.121094 557.234375 78.160156 569.097656 C 72.414062 576.796875 66.394531 584.746094 61.492188 593.925781 C 58.472656 599.40625 57.558594 604.726562 56.777344 609.921875 C 56.226562 613.167969 55.671875 616.414062 54.734375 619.507812 C 52.121094 627.363281 48.492188 634.644531 45.132812 641.675781 C 41.640625 648.832031 38.433594 655.480469 36.121094 662.566406 C 31.371094 676.597656 33.546875 690.839844 35.613281 704.683594 C 36.894531 713.253906 37.363281 722.308594 37.722656 730.964844 C 38.410156 743.5625 38.945312 756.546875 42.234375 769.535156 C 48.148438 792.859375 57.09375 813.195312 68.691406 830.128906 C 71.261719 833.789062 73.839844 837.1875 76.574219 840.203125 C 84.652344 848.84375 93.148438 854.367188 101.949219 856.371094 Z M 101.355469 863.148438 C 107.941406 864.914062 114.632812 864.589844 121.1875 864.390625 L 122.230469 864.441406 C 124.59375 864.296875 127.082031 864.289062 129.308594 864.265625 C 156.515625 864.5625 185.222656 876.96875 214.394531 901.179688 C 220.304688 906.054688 225.691406 910.898438 230.558594 915.722656 C 234.433594 919.445312 238.304688 923.171875 242.042969 927.019531 C 266.390625 950.863281 291.480469 975.527344 322.867188 984.011719 C 338.105469 988.164062 353.414062 988.265625 369.378906 988.269531 C 374.613281 988.265625 380.113281 988.273438 385.472656 988.40625 C 445.445312 990.449219 509.003906 1004.707031 569.546875 1029.679688 C 578.011719 1033.238281 586.734375 1036.808594 595.195312 1040.367188 C 626.351562 1053.554688 658.019531 1069.511719 672.285156 1106.730469 L 673.617188 1106.273438 C 667.238281 1089.597656 656.917969 1076 642.546875 1064.820312 C 628.300781 1053.78125 610.90625 1045.59375 595.644531 1039.210938 C 587.058594 1035.515625 578.460938 1032.082031 569.996094 1028.523438 C 509.453125 1003.550781 445.632812 989.28125 385.535156 987.101562 C 380.175781 986.96875 374.679688 986.957031 369.445312 986.960938 C 353.476562 986.960938 338.429688 986.871094 323.191406 982.71875 C 292.066406 974.246094 267.101562 949.71875 242.878906 926.011719 C 239.003906 922.289062 235.144531 918.304688 231.394531 914.714844 C 226.527344 909.894531 221.136719 905.046875 215.101562 900.039062 C 185.683594 875.554688 156.71875 863.128906 129.25 862.824219 C 126.898438 862.707031 124.535156 862.851562 122.046875 862.859375 L 121.003906 862.808594 C 114.710938 863.023438 107.894531 863.210938 101.695312 861.59375 C 90.582031 858.691406 80.261719 850.328125 70.101562 836.085938 C 58.722656 819.949219 49.703125 801.183594 42.589844 778.191406 C 36.605469 758.917969 33.144531 738.851562 32.445312 718.53125 L 32.457031 718.269531 L 32.332031 718.132812 C 24.558594 705.972656 22.097656 689.488281 25.257812 673.15625 C 26.851562 664.726562 29.738281 656.621094 32.652344 647.996094 C 35.414062 639.757812 38.3125 631.394531 40.316406 622.59375 C 41.007812 619.222656 41.171875 615.828125 41.09375 612.160156 C 41.128906 606.140625 41.3125 599.738281 44.617188 593.75 C 49.34375 585.476562 54.941406 578.160156 60.003906 571.078125 C 68.976562 558.957031 77.511719 547.730469 82.191406 532.515625 C 97.332031 482.875 83.402344 417.664062 64.28125 378.113281 C 52.160156 353.171875 13.328125 336.464844 -23.964844 320.363281 C -54.867188 307.449219 -84.21875 294.878906 -98.839844 278.191406 L -99.9375 279.183594 C -85.066406 296.144531 -55.714844 308.71875 -24.574219 322.164062 C 12.59375 338.132812 51.027344 354.945312 62.910156 379.351562 C 82.183594 418.519531 95.878906 483.195312 80.746094 532.578125 C 76.21875 547.40625 67.808594 558.769531 58.96875 570.765625 C 53.648438 577.835938 48.175781 585.285156 43.449219 593.558594 C 39.871094 599.796875 39.808594 606.339844 39.761719 612.617188 C 39.71875 616.148438 39.550781 619.542969 39 622.789062 C 37.128906 631.464844 34.230469 639.828125 31.46875 648.070312 C 28.558594 656.695312 25.796875 664.9375 24.078125 673.226562 C 20.902344 689.824219 23.351562 706.566406 31.238281 719.125 C 31.9375 739.449219 35.398438 759.511719 41.507812 778.921875 C 48.621094 801.914062 57.765625 820.820312 69.265625 837.09375 C 71.832031 840.753906 74.550781 844.027344 77.15625 846.90625 C 84.578125 855.648438 92.828125 860.898438 101.355469 863.148438 Z M 100.882812 870.0625 C 107.855469 871.976562 114.917969 872.0625 121.199219 872.113281 C 123.425781 872.089844 125.777344 872.207031 128.125 872.320312 C 155.160156 873.523438 184.125 885.945312 211.929688 908.652344 C 217.46875 913.113281 222.859375 917.957031 227.984375 922.792969 C 232.605469 927.339844 237.222656 931.886719 241.839844 936.433594 C 264.671875 959.152344 288.257812 982.4375 317.519531 991.601562 C 332.59375 996.402344 347.738281 997.148438 363.804688 997.808594 C 368.503906 998.039062 373.34375 998.148438 378.167969 998.515625 C 445.472656 1003.144531 507.105469 1016.65625 561.511719 1038.707031 C 569.972656 1042.265625 578.574219 1045.699219 587.171875 1049.132812 C 618.464844 1062.195312 650.410156 1077.90625 665.273438 1113.582031 L 666.601562 1113.125 C 651.382812 1076.773438 619.3125 1060.925781 587.757812 1047.855469 C 579.160156 1044.421875 570.699219 1040.863281 562.097656 1037.425781 C 507.429688 1015.363281 445.675781 1001.714844 378.230469 997.210938 C 373.40625 996.84375 368.570312 996.734375 363.871094 996.503906 C 347.941406 995.71875 332.917969 995.109375 317.96875 990.445312 C 289.230469 981.304688 265.644531 958.023438 242.800781 935.5625 C 238.179688 931.015625 233.5625 926.46875 228.945312 921.921875 C 223.816406 917.089844 218.429688 912.242188 212.890625 907.78125 C 184.960938 884.941406 155.609375 872.367188 128.3125 871.152344 C 125.964844 871.039062 123.613281 870.921875 121.386719 870.941406 C 115.109375 870.894531 108.167969 870.945312 101.457031 869.042969 C 90.617188 865.890625 80.558594 857.542969 70.386719 843.5625 C 56.304688 823.890625 47.152344 802.496094 41.714844 787.960938 C 34.992188 770.355469 30.273438 751.929688 28.054688 733.234375 L 28.066406 732.972656 L 27.945312 732.835938 C 17.355469 721.976562 11.726562 703.375 13.449219 684.351562 C 14.1875 674.703125 16.617188 665.269531 18.945312 655.175781 C 21.238281 645.863281 23.542969 636.292969 24.679688 626.53125 C 25.121094 622.890625 24.652344 619.070312 24.324219 615.128906 C 23.492188 608.152344 22.929688 600.925781 26.921875 594.316406 C 31.484375 586.6875 36.535156 579.871094 41.433594 573.4375 C 50.40625 561.3125 58.941406 550.085938 63.605469 535.136719 C 78.300781 486.648438 66.417969 425.070312 47.96875 385.160156 C 36.492188 360.382812 0.160156 343.40625 -35.140625 326.746094 C -63.917969 313.15625 -91.292969 300.289062 -105.40625 283.886719 L -106.5 284.878906 C -92.140625 301.554688 -64.765625 314.421875 -35.863281 328.152344 C -0.6875 344.675781 35.523438 361.511719 46.757812 385.753906 C 65.097656 425.269531 76.859375 486.707031 61.816406 534.261719 C 57.167969 548.953125 48.753906 560.316406 39.792969 572.175781 C 34.882812 578.871094 29.710938 585.554688 25.144531 593.179688 C 20.867188 600.300781 21.8125 607.675781 22.371094 614.902344 C 22.703125 618.84375 23.179688 622.402344 22.738281 626.042969 C 21.605469 635.804688 19.4375 645.25 17.144531 654.5625 C 14.679688 664.78125 12.511719 674.226562 11.636719 684 C 9.898438 703.285156 15.636719 722.285156 26.476562 733.417969 C 28.695312 752.113281 33.277344 770.664062 40.261719 788.285156 C 45.832031 802.695312 54.972656 824.347656 69.179688 844.15625 C 71.621094 847.679688 74.214844 850.816406 76.824219 853.695312 C 84.519531 862.1875 92.492188 867.6875 100.882812 870.0625 Z M 100.289062 876.839844 C 106.738281 878.726562 113.242188 879.570312 120.042969 879.644531 L 120.828125 879.683594 C 122.652344 879.773438 124.742188 879.878906 126.695312 880.105469 C 153.949219 882.101562 182.519531 894.636719 209.082031 915.972656 C 213.863281 919.871094 218.878906 924.308594 224.890625 929.839844 C 230.265625 934.945312 235.753906 940.453125 240.992188 945.683594 C 262.445312 967.160156 284.515625 989.320312 311.523438 999.027344 C 326.4375 1004.472656 341.417969 1005.867188 357.183594 1007.296875 C 361.351562 1007.765625 365.789062 1007.984375 370.078125 1008.589844 C 429.96875 1014.945312 493.527344 1023.96875 552.953125 1047.707031 L 558.980469 1050.230469 C 565.527344 1052.777344 571.941406 1055.449219 578.613281 1058.136719 C 610.179688 1070.949219 642.011719 1086.261719 657.710938 1120.933594 L 658.917969 1120.335938 C 643.109375 1085.265625 610.890625 1069.804688 579.203125 1056.855469 C 572.652344 1054.308594 566.117188 1051.5 559.566406 1048.949219 L 553.539062 1046.429688 C 493.976562 1022.8125 430.296875 1013.652344 370.40625 1007.296875 C 365.976562 1006.816406 361.675781 1006.472656 357.511719 1006.007812 C 341.746094 1004.574219 326.761719 1003.179688 312.234375 997.882812 C 285.488281 988.1875 263.539062 966.164062 242.335938 944.964844 C 237.097656 939.734375 231.609375 934.226562 226.234375 929.117188 C 220.359375 923.464844 215.207031 919.152344 210.425781 915.25 C 183.613281 893.644531 154.785156 881.097656 127.269531 879.085938 C 125.316406 878.859375 123.351562 878.890625 121.261719 878.789062 L 120.480469 878.75 C 113.9375 878.691406 107.4375 877.847656 101.109375 876.09375 C 90.804688 872.707031 80.871094 864.496094 70.683594 850.773438 C 57.804688 833.253906 48.414062 814.078125 40.71875 797.597656 C 33.121094 781.78125 27.28125 764.871094 23.679688 747.679688 L 23.691406 747.417969 L 23.566406 747.28125 C 9.917969 737.445312 1.371094 717 1.53125 695.148438 C 1.675781 684.292969 3.382812 673.515625 5.257812 662.089844 C 6.953125 651.574219 8.664062 640.792969 9.066406 629.949219 C 9.136719 625.898438 8.296875 621.667969 7.457031 617.4375 C 5.878906 609.636719 4.3125 601.578125 8.863281 594.210938 C 13.128906 587.351562 17.890625 581.042969 22.378906 574.984375 C 31.339844 563.121094 39.75 551.757812 44.664062 537.078125 C 60.824219 488.011719 48.054688 428.484375 32.421875 392.507812 C 21.59375 367.890625 -12.484375 350.375 -45.546875 333.433594 C -72.363281 319.808594 -97.632812 306.78125 -111.097656 290.542969 L -112.058594 291.410156 C -98.46875 307.789062 -73.074219 320.949219 -46.136719 334.710938 C -13.195312 351.519531 20.761719 368.898438 31.214844 393.101562 C 46.859375 428.820312 59.394531 487.808594 43.507812 536.628906 C 38.734375 551.183594 30.332031 562.289062 21.496094 574.285156 C 17.007812 580.347656 12.246094 586.65625 7.984375 593.511719 C 3.28125 601.265625 4.835938 609.585938 6.523438 617.785156 C 7.363281 622.015625 8.078125 626.105469 8.019531 629.898438 C 7.617188 640.742188 5.90625 651.519531 4.347656 661.914062 C 2.503906 672.816406 0.765625 684.117188 0.613281 695.234375 C 0.4375 717.347656 9.230469 738.066406 22.992188 748.300781 C 26.855469 765.503906 32.574219 782.277344 40.15625 798.355469 C 47.976562 814.972656 57.234375 834.273438 70.234375 851.929688 C 72.816406 855.328125 75.285156 858.328125 77.769531 861.070312 C 84.582031 868.867188 92.296875 874.351562 100.289062 876.839844 Z M 99.816406 883.753906 C 106.128906 885.765625 112.480469 886.996094 118.886719 887.179688 L 120.191406 887.242188 C 121.882812 887.457031 123.710938 887.546875 125.402344 887.761719 C 152.605469 890.804688 181.433594 903.351562 206.632812 923.179688 C 211.800781 927.230469 216.816406 931.664062 222.191406 936.773438 C 228.449219 942.578125 234.679688 948.90625 240.664062 954.960938 C 260.617188 975.050781 281.171875 996.089844 305.925781 1006.339844 C 320.925781 1012.710938 336.269531 1014.773438 352.53125 1016.753906 C 355.914062 1017.183594 359.15625 1017.734375 362.539062 1018.164062 C 370.855469 1019.359375 379.050781 1020.417969 387.367188 1021.613281 C 439.882812 1028.914062 494.226562 1036.304688 544.816406 1056.078125 L 570.367188 1066.105469 C 601.945312 1078.65625 634.054688 1093.71875 650.339844 1127.113281 L 651.546875 1126.515625 C 635.152344 1092.726562 602.65625 1077.511719 570.957031 1064.824219 L 545.40625 1054.796875 C 494.6875 1034.890625 440.34375 1027.496094 387.691406 1020.320312 C 379.375 1019.125 371.058594 1017.929688 362.863281 1016.871094 C 359.484375 1016.441406 356.238281 1015.890625 352.855469 1015.460938 C 336.730469 1013.359375 321.390625 1011.292969 306.515625 1005.0625 C 282.019531 994.824219 261.449219 974.046875 241.761719 953.96875 C 235.777344 947.914062 229.546875 941.585938 223.289062 935.78125 C 217.910156 930.671875 212.769531 926.101562 207.730469 922.1875 C 182.40625 902.222656 153.328125 889.402344 125.863281 886.347656 C 124.171875 886.132812 122.34375 886.042969 120.394531 885.8125 L 119.085938 885.75 C 112.683594 885.566406 106.332031 884.335938 100.277344 882.335938 C 90.371094 878.835938 80.574219 870.5 70.636719 857.054688 C 59.210938 841.960938 50.320312 825.820312 42.507812 811.691406 C 41.554688 809.8125 40.464844 808.054688 39.507812 806.175781 C 30.855469 790.570312 24.078125 776.753906 18.832031 761.050781 L 18.84375 760.789062 L 18.582031 760.777344 C 2.257812 752.117188 -9.59375 729.679688 -10.996094 705.003906 C -11.707031 692.925781 -10.554688 680.15625 -9.167969 667.921875 C -7.941406 656.335938 -6.824219 644.347656 -7.152344 632.421875 C -7.195312 627.972656 -8.53125 623.195312 -9.878906 618.675781 C -12.328125 609.917969 -14.761719 600.898438 -9.539062 593.171875 C -5.574219 587.085938 -1.234375 581.410156 2.964844 575.859375 C 11.925781 563.996094 20.339844 552.632812 25.238281 538.214844 C 41.308594 490.976562 30.265625 433.628906 15.761719 398.625 C 5.578125 374.171875 -26.386719 356.234375 -57.335938 338.871094 C -82.046875 325.089844 -105.351562 312.027344 -118.171875 295.953125 L -119.128906 296.820312 C -106.1875 313.035156 -82.757812 326.230469 -57.921875 340.152344 C -27.097656 357.375 4.609375 375.300781 14.554688 399.21875 C 28.945312 433.824219 40.003906 490.910156 23.945312 537.890625 C 19.058594 552.046875 10.78125 563.285156 1.820312 575.148438 C -2.378906 580.699219 -6.714844 586.375 -10.554688 592.597656 C -15.941406 600.972656 -13.519531 610.253906 -10.949219 619.148438 C -9.613281 623.925781 -8.390625 628.304688 -8.210938 632.632812 C -7.882812 644.558594 -9.121094 656.40625 -10.085938 668.007812 C -11.351562 680.378906 -12.628906 693.011719 -11.929688 705.351562 C -10.539062 730.285156 1.558594 753 18.121094 762.195312 C 23.230469 778.019531 30.019531 791.574219 38.796875 807.320312 C 39.753906 809.199219 40.84375 810.953125 41.796875 812.835938 C 49.734375 827.097656 58.621094 843.242188 70.175781 858.472656 C 72.632812 861.734375 75.101562 864.734375 77.582031 867.472656 C 84.523438 875.40625 91.972656 880.878906 99.816406 883.753906 Z M 99.34375 890.664062 C 105.257812 892.789062 111.597656 894.28125 117.851562 894.851562 L 120.066406 895.089844 C 121.496094 895.292969 122.925781 895.492188 124.355469 895.695312 C 153.449219 900.269531 180.984375 912.492188 204.171875 930.648438 C 209.210938 934.5625 214.492188 939.011719 219.480469 943.96875 C 226.484375 950.597656 233.460938 957.746094 240.3125 964.757812 C 258.746094 983.730469 277.804688 1003.382812 300.441406 1014.054688 C 315.664062 1021.21875 331.488281 1024.09375 348.222656 1027.144531 C 350.558594 1027.519531 352.761719 1028.019531 355.097656 1028.398438 C 372.09375 1031.460938 388.988281 1033.863281 407.050781 1036.457031 C 450.332031 1042.648438 495.160156 1049.179688 536.78125 1065.105469 L 562.34375 1074.871094 C 594.058594 1087.296875 626.457031 1101.851562 643.1875 1134.089844 L 644.394531 1133.496094 C 627.414062 1100.984375 594.648438 1086.019531 562.671875 1073.578125 L 537.109375 1063.8125 C 495.363281 1047.75 450.394531 1041.34375 406.992188 1035.015625 C 388.929688 1032.421875 372.03125 1030.019531 355.175781 1026.832031 C 352.839844 1026.453125 350.636719 1025.953125 348.300781 1025.578125 C 331.691406 1022.664062 316.125 1019.800781 300.90625 1012.636719 C 278.652344 1002.117188 259.59375 982.460938 241.285156 963.628906 C 234.554688 956.753906 227.457031 949.464844 220.453125 942.839844 C 215.324219 938.003906 210.046875 933.554688 205.003906 929.644531 C 181.695312 911.347656 153.898438 899.113281 124.421875 894.390625 C 122.992188 894.1875 121.5625 893.988281 120.132812 893.785156 L 117.917969 893.546875 C 111.664062 892.976562 105.585938 891.496094 99.667969 889.375 C 89.914062 885.488281 80.75 877.578125 70.675781 864.253906 C 61.816406 852.824219 54.410156 841.070312 47.378906 829.730469 C 44.230469 824.601562 41.3125 820.007812 38.261719 815.539062 L 35.957031 811.890625 C 26.9375 798.359375 20.003906 787.675781 14.082031 775.082031 L 13.957031 774.945312 L 13.695312 774.933594 C -5.429688 767.316406 -20.347656 743.414062 -23.421875 715.515625 C -24.855469 702.09375 -24.296875 688.117188 -23.628906 674.539062 C -22.996094 661.746094 -22.339844 648.425781 -23.398438 635.417969 C -23.816406 630.554688 -25.523438 625.367188 -27.242188 620.4375 C -30.433594 610.859375 -33.875 601.003906 -28.226562 592.644531 C -24.550781 587.066406 -20.5 581.898438 -16.710938 576.722656 C -7.886719 564.984375 0.515625 553.878906 5.660156 539.738281 C 21.753906 494.722656 12.765625 440.75 -0.914062 405 C -10.3125 380.585938 -40.164062 362.230469 -68.996094 344.449219 C -91.605469 330.507812 -113.070312 317.277344 -125.121094 301.5 L -126.203125 302.230469 C -113.90625 318.28125 -92.441406 331.511719 -69.707031 345.589844 C -41.132812 363.359375 -11.53125 381.441406 -2.246094 405.457031 C 11.324219 440.808594 20.199219 494.386719 4.382812 539.152344 C -0.492188 553.046875 -8.890625 564.148438 -17.714844 575.886719 C -21.628906 580.929688 -25.554688 586.230469 -29.234375 591.808594 C -35.304688 600.800781 -31.878906 610.917969 -28.4375 620.773438 C -26.730469 625.960938 -25.132812 630.75 -24.707031 635.351562 C -23.644531 648.363281 -24.289062 661.417969 -24.921875 674.214844 C -25.589844 687.792969 -26.285156 701.894531 -24.851562 715.3125 C -21.792969 743.472656 -6.625 767.648438 12.875 775.675781 C 18.671875 788.136719 25.730469 798.953125 34.75 812.488281 L 37.054688 816.132812 C 40.105469 820.605469 43.007812 825.457031 46.171875 830.324219 C 53.203125 841.667969 60.609375 853.417969 69.46875 864.847656 C 71.800781 867.972656 74.269531 870.976562 76.503906 873.441406 C 84.449219 882.210938 91.640625 887.667969 99.34375 890.664062 Z M 98.75 897.441406 C 104.390625 899.816406 110.59375 901.429688 116.695312 902.382812 L 122.925781 903.476562 C 151.195312 908.796875 178.484375 920.746094 201.445312 938.105469 C 206.613281 942.15625 211.765625 946.46875 216.644531 951.027344 C 224.53125 958.351562 232.113281 966.449219 239.574219 974.40625 C 256.496094 992.257812 274.035156 1010.789062 294.574219 1021.617188 C 310.003906 1029.839844 326.175781 1033.648438 343.394531 1037.507812 L 347.148438 1038.347656 C 368.765625 1043.207031 390.996094 1046.265625 414.390625 1049.515625 C 452.347656 1054.789062 491.734375 1060.265625 528.359375 1073.980469 C 532.214844 1075.480469 536.203125 1076.855469 540.179688 1078.488281 C 544.679688 1080.152344 549.300781 1081.949219 553.800781 1083.613281 C 585.789062 1095.789062 618.320312 1110.21875 635.652344 1140.917969 L 636.859375 1140.320312 C 619.292969 1109.089844 586.375 1094.511719 554.261719 1082.195312 C 549.640625 1080.394531 545.140625 1078.734375 540.640625 1077.074219 C 536.652344 1075.699219 532.675781 1074.0625 528.824219 1072.5625 C 492.199219 1058.847656 452.8125 1053.371094 414.730469 1047.960938 C 391.332031 1044.714844 369.101562 1041.652344 347.484375 1036.792969 L 343.730469 1035.953125 C 326.652344 1031.96875 310.464844 1028.421875 295.296875 1020.214844 C 275.019531 1009.398438 257.605469 991.003906 240.808594 973.289062 C 233.472656 965.46875 225.625 957.359375 217.878906 949.910156 C 213 945.351562 207.984375 940.914062 202.554688 936.851562 C 179.332031 919.476562 151.917969 907.394531 123.386719 902.058594 L 117.160156 900.96875 C 111.054688 900.011719 105.113281 898.410156 99.597656 896.175781 C 87.554688 890.871094 78.269531 880.074219 71.246094 871.21875 C 64.597656 862.777344 58.605469 854.234375 52.875 845.707031 C 47.613281 838.25 42.738281 830.941406 37.6875 824.542969 C 33.988281 819.910156 30.664062 815.6875 27.324219 811.726562 C 20.773438 803.945312 15.226562 796.996094 9.992188 789.015625 L 9.867188 788.878906 L 9.605469 788.867188 C -8.703125 783.25 -29.496094 761.679688 -35.054688 725.804688 C -37.34375 711.164062 -37.242188 695.855469 -37.03125 680.945312 C -36.996094 666.945312 -36.808594 652.554688 -38.601562 638.464844 C -39.265625 633.328125 -41.46875 627.589844 -43.5625 622.25 C -47.757812 611.835938 -51.945312 601.160156 -45.613281 592.179688 C -42.234375 587.371094 -38.867188 582.828125 -35.378906 578.417969 C -26.417969 566.558594 -17.878906 555.328125 -12.746094 541.449219 C 3.257812 498.261719 -4.253906 446.191406 -16.554688 411.6875 C -25.308594 387.4375 -52.90625 368.539062 -79.613281 350.074219 C -100.121094 335.976562 -119.496094 322.847656 -130.773438 307.371094 L -131.859375 308.105469 C -120.195312 323.730469 -100.832031 337.121094 -80.1875 351.09375 C -53.730469 369.28125 -26.253906 388.042969 -17.613281 411.898438 C -5.421875 446.003906 2.101562 497.8125 -13.75 540.613281 C -18.886719 554.496094 -27.285156 565.597656 -36.234375 577.199219 C -39.601562 581.742188 -43.089844 586.152344 -46.46875 590.960938 C -53.085938 600.449219 -48.789062 611.523438 -44.605469 622.199219 C -42.511719 627.539062 -40.296875 633.015625 -39.632812 638.152344 C -37.839844 652.242188 -37.890625 666.507812 -37.925781 680.507812 C -38.136719 695.417969 -38.113281 710.863281 -35.824219 725.503906 C -31.878906 751.613281 -16.210938 781.574219 9.445312 789.511719 C 14.539062 797.617188 20.101562 804.304688 26.652344 812.085938 C 29.992188 816.046875 33.453125 820.144531 36.890625 824.765625 C 41.816406 831.027344 46.828125 838.210938 51.953125 845.792969 C 57.695312 854.058594 63.8125 862.738281 70.328125 871.304688 C 72.425781 873.894531 74.769531 876.757812 77.375 879.636719 C 82.898438 887.105469 90.039062 893.609375 98.75 897.441406 Z M 4.257812 804.4375 C 9.085938 810.042969 14.214844 814.875 19.726562 819.859375 C 24.605469 824.417969 29.746094 828.992188 35.207031 835.019531 C 42.171875 842.429688 48.796875 851.394531 55.917969 860.910156 C 60.335938 866.886719 64.878906 873 69.941406 879.136719 C 76.839844 887.855469 86.523438 898.539062 98.015625 904.34375 C 103.519531 906.839844 109.3125 908.828125 115.402344 910.042969 L 117.863281 910.558594 C 119.03125 910.746094 120.324219 911.070312 121.355469 911.382812 C 151.777344 918.25 177.769531 929.871094 198.597656 945.425781 C 203.777344 949.214844 208.796875 953.648438 213.550781 958.074219 C 222.179688 966.21875 230.632812 975.273438 238.839844 984.054688 C 254.242188 1000.78125 270.28125 1017.933594 288.578125 1029.042969 C 303.820312 1038.433594 319.816406 1043.148438 339.195312 1048.292969 C 363.871094 1054.875 390.402344 1058.277344 416.152344 1061.640625 C 450.875 1066.101562 486.507812 1070.738281 519.800781 1082.980469 C 523.65625 1084.480469 527.644531 1085.855469 531.632812 1087.230469 C 536.132812 1088.890625 540.632812 1090.554688 545.390625 1092.226562 C 577.394531 1104.144531 610.210938 1118.066406 628.242188 1147.878906 L 629.324219 1147.148438 C 611.046875 1117.058594 578.117188 1102.742188 545.855469 1090.8125 C 541.230469 1089.011719 536.59375 1087.476562 532.097656 1085.8125 C 528.105469 1084.4375 524.253906 1082.941406 520.265625 1081.566406 C 486.96875 1069.324219 451.078125 1064.671875 416.351562 1060.210938 C 389.433594 1056.660156 364.070312 1053.445312 339.398438 1046.863281 C 320.15625 1041.597656 304.285156 1037.019531 289.164062 1027.765625 C 270.992188 1016.789062 255.835938 1000.339844 239.671875 983.050781 C 231.46875 974.269531 223.152344 965.089844 214.386719 957.066406 C 209.628906 952.644531 204.476562 948.332031 199.308594 944.28125 C 178.359375 928.589844 152.101562 916.957031 121.558594 909.953125 C 120.390625 909.765625 119.097656 909.441406 118.066406 909.128906 L 115.605469 908.613281 C 109.773438 907.410156 104.105469 905.558594 98.601562 903.0625 C 87.234375 897.398438 77.800781 886.984375 70.898438 878.269531 C 65.960938 872.265625 61.296875 866.015625 56.878906 860.039062 C 49.757812 850.527344 43.007812 841.425781 36.042969 834.015625 C 30.445312 828.109375 25.441406 823.414062 20.300781 818.839844 C 14.789062 813.859375 9.660156 809.023438 4.832031 803.421875 L 4.707031 803.285156 L 4.445312 803.269531 C -16.125 798.460938 -40.152344 776.074219 -47.894531 736.6875 C -51.039062 720.828125 -51.398438 704.1875 -51.78125 688.070312 C -52.214844 673 -52.609375 657.144531 -55.132812 641.96875 C -56.03125 636.296875 -58.746094 630.273438 -61.210938 624.523438 C -66.152344 613.285156 -71.207031 601.648438 -64.328125 592.171875 C -61.511719 588.125 -58.308594 584.222656 -55.503906 580.4375 C -46.40625 568.449219 -37.742188 557.359375 -32.347656 543.492188 C -18.710938 508.433594 -19.027344 461.824219 -33.269531 418.847656 C -41.359375 394.496094 -66.832031 374.917969 -91.546875 355.898438 C -109.964844 341.902344 -127.117188 328.753906 -137.761719 313.703125 L -138.84375 314.433594 C -128.078125 329.625 -110.539062 342.921875 -92.257812 357.042969 C -67.792969 375.789062 -42.445312 395.230469 -34.464844 419.183594 C -20.347656 462.019531 -20.015625 508.371094 -33.503906 543.042969 C -38.886719 556.648438 -47.421875 567.878906 -56.382812 579.738281 C -59.1875 583.527344 -62.390625 587.425781 -65.207031 591.472656 C -72.511719 601.585938 -67.210938 613.496094 -62.15625 625.128906 C -59.691406 630.878906 -57.101562 636.765625 -56.066406 642.3125 C -53.542969 657.488281 -53.136719 673.085938 -52.699219 688.15625 C -52.316406 704.273438 -51.835938 721.050781 -48.691406 736.910156 C -44.746094 757.785156 -35.996094 774.054688 -25.691406 785.425781 C -16.382812 795.699219 -5.699219 801.984375 4.257812 804.4375 Z M -0.242188 818.746094 C 4.523438 822.90625 9.46875 826.160156 14.785156 829.824219 C 20.996094 833.925781 27.457031 838.304688 34.347656 844.53125 C 43.25 852.429688 51.515625 862.65625 60.261719 873.6875 C 63.464844 877.773438 66.789062 881.992188 70.375 886.226562 C 77.785156 895.230469 86.847656 905.230469 97.804688 911.269531 C 103.035156 914.015625 108.8125 916.261719 114.632812 917.726562 C 116.183594 918.066406 117.726562 918.664062 119.28125 919.003906 L 120.574219 919.328125 C 141.230469 925.058594 171.519531 934.535156 196.535156 952.785156 C 201.714844 956.574219 206.621094 960.609375 211.238281 965.15625 C 220.871094 974.140625 230.058594 984.277344 238.734375 994.128906 C 252.636719 1009.472656 266.898438 1025.488281 283.230469 1036.632812 C 297.664062 1046.507812 313.074219 1052.503906 331.769531 1058.265625 C 358.191406 1066.507812 387.210938 1069.898438 415.582031 1073.132812 C 447.859375 1076.816406 481.042969 1080.679688 511.902344 1091.886719 C 516.789062 1093.695312 521.933594 1095.519531 527.078125 1097.34375 C 530.421875 1098.558594 533.765625 1099.769531 537.367188 1100.992188 C 569.644531 1112.664062 602.722656 1126.597656 621.09375 1154.855469 L 622.175781 1154.125 C 603.433594 1125.453125 570.230469 1111.382812 537.832031 1099.578125 C 534.488281 1098.363281 530.882812 1097.140625 527.539062 1095.929688 C 522.394531 1094.105469 517.25 1092.28125 512.367188 1090.46875 C 481.371094 1079.386719 448.0625 1075.386719 415.785156 1071.703125 C 386.367188 1068.417969 358.65625 1065.089844 332.230469 1056.851562 C 313.675781 1050.960938 298.386719 1045.101562 284.078125 1035.367188 C 267.871094 1024.359375 254.351562 1009.164062 239.828125 993.136719 C 231.015625 983.410156 221.96875 973.148438 212.335938 964.164062 C 207.578125 959.742188 202.550781 955.566406 197.371094 951.777344 C 172.230469 933.394531 141.695312 923.640625 120.898438 918.035156 L 119.605469 917.710938 C 117.925781 917.234375 116.375 916.894531 114.957031 916.433594 C 109.140625 914.96875 103.746094 912.871094 98.515625 910.125 C 87.804688 904.363281 78.867188 894.5 71.460938 885.496094 C 67.996094 881.398438 64.671875 877.175781 61.46875 873.09375 C 52.722656 862.058594 44.46875 851.574219 35.304688 843.664062 C 28.414062 837.433594 21.953125 833.058594 15.621094 828.820312 C 10.429688 825.292969 5.359375 821.898438 0.589844 817.738281 L 0.46875 817.601562 L 0.207031 817.589844 C -31.457031 812.101562 -52.566406 778.339844 -59.675781 747.363281 C -63.539062 730.160156 -64.617188 712.175781 -65.59375 694.851562 C -66.488281 678.445312 -67.492188 661.644531 -70.871094 645.25 C -72.140625 639.164062 -75.226562 632.730469 -78.0625 626.570312 C -83.875 614.375 -89.800781 601.78125 -82.246094 591.941406 C -79.730469 588.664062 -77.347656 585.511719 -74.96875 582.355469 C -65.609375 570.382812 -56.796875 558.90625 -51.277344 545.175781 C -37.429688 511.175781 -36.722656 467.625 -49.296875 425.386719 C -56.59375 400.8125 -80.074219 380.679688 -102.796875 361.105469 C -118.867188 347.222656 -134.191406 334.164062 -144.078125 319.675781 L -145.160156 320.40625 C -135.148438 335.035156 -119.082031 348.914062 -103.632812 362.109375 C -81.035156 381.546875 -57.8125 401.671875 -50.492188 425.71875 C -38.027344 467.5625 -38.722656 510.851562 -52.296875 544.601562 C -57.804688 558.074219 -66.476562 569.425781 -75.835938 581.394531 C -78.21875 584.550781 -80.722656 587.570312 -83.117188 590.984375 C -90.96875 601.589844 -84.933594 614.582031 -78.875 627.054688 C -76.035156 633.214844 -72.949219 639.648438 -71.667969 645.472656 C -68.410156 661.730469 -67.40625 678.53125 -66.515625 694.9375 C -65.414062 712.398438 -64.472656 730.503906 -60.609375 747.710938 C -56.511719 765.449219 -48.011719 784.191406 -35.476562 798.03125 C -26.167969 808.304688 -14.253906 816.222656 -0.242188 818.746094 Z M -4.730469 832.789062 C 0.210938 836.042969 5.332031 838.390625 10.574219 840.875 C 17.871094 844.242188 25.410156 847.886719 33.113281 853.632812 C 43.980469 861.5 53.734375 873.367188 64.121094 885.65625 C 66.09375 888.109375 68.328125 890.578125 70.304688 893.03125 C 78.222656 902.320312 86.785156 911.773438 96.960938 917.769531 C 102.054688 920.640625 107.558594 923.136719 113.101562 924.851562 C 114.90625 925.460938 116.96875 926.085938 118.769531 926.699219 C 141.699219 934.113281 170.3125 943.113281 193.578125 959.707031 C 198.632812 963.359375 203.535156 967.394531 208.167969 971.679688 C 218.683594 981.359375 228.339844 992.570312 237.75 1003.503906 C 250.136719 1017.726562 263.019531 1032.496094 277.261719 1043.539062 C 289.867188 1053.320312 303.785156 1060.421875 323.84375 1067.691406 C 351.496094 1077.5625 382.492188 1080.660156 412.445312 1083.710938 C 442.917969 1086.78125 474.3125 1089.769531 503.382812 1100.101562 C 511.484375 1102.988281 520.113281 1105.902344 528.859375 1108.949219 C 561.148438 1120.359375 594.378906 1133.90625 613.582031 1161.160156 L 614.667969 1160.429688 C 595.351562 1132.777344 561.859375 1119.214844 529.449219 1107.671875 C 520.699219 1104.621094 512.074219 1101.710938 503.96875 1098.824219 C 474.640625 1088.476562 443.121094 1085.351562 412.644531 1082.28125 C 381.386719 1079.167969 351.957031 1076.144531 324.429688 1066.410156 C 304.632812 1059.152344 290.839844 1052.191406 278.234375 1042.40625 C 263.976562 1031.628906 251.851562 1017.417969 238.96875 1002.648438 C 229.558594 991.714844 219.765625 980.628906 209.386719 970.824219 C 204.757812 966.539062 199.851562 962.5 194.671875 958.710938 C 171.285156 941.984375 142.546875 932.84375 119.617188 925.433594 C 117.816406 924.820312 115.753906 924.195312 113.949219 923.582031 C 108.40625 921.871094 103.027344 919.511719 98.070312 916.515625 C 88.019531 910.65625 79.453125 901.203125 71.660156 892.050781 C 69.5625 889.460938 67.453125 887.128906 65.480469 884.675781 C 55.105469 872.125 45.335938 860.519531 34.222656 852.378906 C 26.257812 846.621094 18.71875 842.976562 11.300781 839.46875 C 5.929688 836.847656 0.8125 834.503906 -4.007812 831.386719 L -4.269531 831.371094 C -39.253906 826.898438 -63.269531 791.03125 -71.695312 757.503906 C -76.289062 739.214844 -77.960938 720.023438 -79.398438 701.367188 C -80.882812 683.757812 -82.46875 665.488281 -86.445312 647.882812 C -87.828125 641.402344 -91.546875 634.542969 -94.878906 627.835938 C -101.574219 614.941406 -108.242188 601.523438 -100.265625 591.054688 C -98.445312 588.65625 -96.625 586.261719 -94.679688 584 C -85.046875 571.78125 -75.976562 560.316406 -70.195312 546.597656 C -56.300781 514.300781 -54.625 472.371094 -65.449219 431.789062 C -72.074219 406.855469 -93.550781 385.902344 -114.410156 365.636719 C -128.539062 352.242188 -141.648438 339.425781 -150.640625 325.371094 L -151.722656 326.101562 C -142.46875 340.171875 -128.738281 353.671875 -115.378906 366.765625 C -94.785156 387.019531 -73.429688 407.835938 -66.78125 432.246094 C -55.941406 472.570312 -57.730469 514.101562 -71.488281 546.273438 C -77.253906 559.730469 -86.203125 571.332031 -95.699219 583.425781 C -97.519531 585.824219 -99.464844 588.085938 -101.28125 590.480469 C -109.820312 601.707031 -102.78125 615.535156 -95.976562 628.828125 C -92.503906 635.414062 -89.046875 642.257812 -87.652344 648.480469 C -83.664062 665.820312 -82.078125 684.089844 -80.589844 701.703125 C -78.894531 720.371094 -77.359375 739.6875 -72.765625 757.972656 C -68.292969 776.125 -59.148438 795.03125 -46.238281 809.277344 C -35.328125 821.59375 -21.242188 830.535156 -4.730469 832.789062 Z M -9.21875 846.835938 C 5.632812 850.839844 18.152344 854.464844 32.261719 862.882812 C 44.972656 870.578125 55.992188 883.292969 67.636719 896.695312 L 70.476562 900.105469 C 77.910156 908.585938 86.464844 918.300781 96.488281 924.683594 C 101.308594 927.800781 106.675781 930.421875 112.070312 932.519531 C 113.101562 932.832031 114.121094 933.40625 115.152344 933.71875 C 115.921875 934.019531 116.816406 934.457031 117.722656 934.632812 C 121.835938 936.144531 125.828125 937.519531 129.941406 939.03125 C 150.90625 946.476562 172.644531 954.222656 190.976562 967.300781 C 195.90625 970.8125 200.8125 974.851562 205.320312 979 C 216.707031 989.640625 227.09375 1001.929688 236.972656 1013.9375 C 247.84375 1027.035156 259.085938 1040.546875 271.515625 1051.238281 C 284.828125 1062.625 299.835938 1071.480469 316.015625 1077.777344 C 344.363281 1089.511719 376.828125 1092.03125 408.109375 1094.621094 C 437.179688 1096.96875 467.160156 1099.496094 494.960938 1108.980469 C 498.179688 1110.054688 501.523438 1111.265625 504.867188 1112.480469 C 509.886719 1114.167969 515.035156 1115.992188 520.316406 1117.691406 C 552.878906 1128.851562 586.257812 1142.015625 605.910156 1168.113281 L 606.996094 1167.378906 C 586.96875 1140.871094 553.328125 1127.695312 520.765625 1116.535156 C 515.621094 1114.710938 510.335938 1113.011719 505.316406 1111.324219 C 501.972656 1110.113281 498.753906 1109.035156 495.535156 1107.960938 C 467.609375 1098.339844 437.492188 1095.9375 408.300781 1093.453125 C 375.710938 1090.796875 344.949219 1088.234375 316.601562 1076.496094 C 300.421875 1070.203125 285.675781 1061.359375 272.488281 1050.109375 C 260.183594 1039.554688 249.4375 1026.589844 238.066406 1012.941406 C 228.1875 1000.9375 217.675781 988.507812 206.292969 977.871094 C 201.785156 973.722656 196.878906 969.683594 191.824219 966.03125 C 173.105469 952.804688 151.371094 945.058594 130.402344 937.613281 C 126.289062 936.101562 122.175781 934.589844 118.1875 933.214844 C 117.417969 932.914062 116.519531 932.476562 115.613281 932.300781 C 114.582031 931.988281 113.6875 931.554688 112.53125 931.105469 C 107.136719 929.003906 102.03125 926.398438 97.210938 923.28125 C 87.449219 916.910156 78.757812 907.320312 71.585938 898.851562 L 68.746094 895.4375 C 56.976562 881.902344 45.957031 869.1875 33.125 861.355469 C 18.886719 852.800781 6.371094 849.171875 -8.746094 845.15625 C -44.019531 835.957031 -73.40625 805.453125 -83.847656 767.765625 C -89.175781 748.394531 -91.429688 727.738281 -93.597656 707.996094 C -95.679688 689.179688 -97.722656 669.578125 -102.566406 651.015625 C -104.320312 644.121094 -108.273438 636.730469 -112.117188 629.734375 C -119.679688 615.878906 -127.355469 601.628906 -118.570312 590.675781 L -115.777344 587.148438 C -105.597656 574.433594 -95.839844 562.347656 -89.511719 548.132812 C -70.398438 505.621094 -76.578125 461.082031 -82 438.300781 C -88.074219 412.875 -107.539062 390.84375 -126.515625 369.621094 C -137.550781 357.164062 -149.082031 344.164062 -157.203125 331.066406 L -158.421875 331.921875 C -150.175781 345.15625 -138.644531 358.160156 -127.488281 370.75 C -108.632812 391.835938 -89.171875 413.867188 -83.207031 438.898438 C -77.910156 461.539062 -71.71875 505.820312 -90.679688 547.945312 C -96.992188 561.898438 -106.613281 573.859375 -116.796875 586.574219 L -119.585938 590.101562 C -128.796875 601.6875 -120.886719 616.476562 -113.214844 630.726562 C -109.371094 637.722656 -105.417969 645.117188 -103.648438 651.746094 C -98.804688 670.308594 -96.886719 689.773438 -94.804688 708.59375 C -92.648438 728.59375 -90.519531 749.113281 -85.070312 768.625 C -80.1875 786.402344 -71.035156 802.558594 -59.121094 815.710938 C -45.589844 830.644531 -28.210938 841.839844 -9.21875 846.835938 Z M -13.71875 861.140625 C -10.738281 861.679688 -7.753906 862.21875 -4.769531 862.757812 C 6.917969 864.644531 18.863281 866.542969 31.265625 872.519531 C 46.101562 879.535156 58.003906 892.945312 70.652344 907.183594 C 79.078125 916.757812 86.914062 925.128906 95.878906 931.722656 C 100.5625 934.964844 105.519531 937.957031 110.898438 940.316406 C 112.6875 941.1875 114.355469 941.925781 116.28125 942.675781 C 123.078125 945.496094 130.273438 948.207031 137.207031 950.90625 C 154.679688 957.527344 172.800781 964.308594 188.378906 974.894531 C 193.308594 978.40625 198.101562 982.046875 202.609375 986.195312 C 215 997.671875 225.847656 1011.292969 236.320312 1024.503906 C 245.6875 1036.222656 255.292969 1048.476562 265.785156 1058.675781 C 278.273438 1070.8125 292.445312 1080.671875 308.328125 1087.738281 C 337.242188 1101.203125 370.777344 1103.25 403.132812 1105.367188 C 431.183594 1107.144531 460.019531 1108.957031 486.664062 1117.996094 C 491.6875 1119.683594 496.707031 1121.371094 501.863281 1122.933594 C 505.207031 1124.144531 508.5625 1125.09375 512.042969 1126.183594 C 544.621094 1137.082031 578.285156 1149.734375 598.515625 1174.816406 L 599.472656 1173.945312 C 578.859375 1148.71875 545.207031 1135.800781 512.246094 1124.753906 C 508.765625 1123.664062 505.421875 1122.453125 502.066406 1121.503906 C 496.785156 1119.800781 491.761719 1118.117188 486.867188 1116.566406 C 459.957031 1107.515625 431.125 1105.703125 402.949219 1103.789062 C 369.535156 1101.878906 337.703125 1099.785156 308.914062 1086.457031 C 293.292969 1079.40625 279.121094 1069.542969 266.757812 1057.546875 C 256.265625 1047.34375 246.648438 1035.355469 237.417969 1023.511719 C 226.820312 1010.164062 215.972656 996.539062 203.457031 984.929688 C 198.949219 980.78125 194.167969 976.878906 189.101562 973.488281 C 173.277344 962.632812 155.15625 955.847656 137.683594 949.226562 C 130.75 946.53125 123.675781 943.957031 116.878906 941.132812 C 114.953125 940.386719 113.289062 939.648438 111.5 938.773438 C 106.378906 936.429688 101.285156 933.558594 96.742188 930.195312 C 87.761719 923.863281 80.1875 915.503906 71.761719 905.929688 C 58.988281 891.554688 46.960938 878.003906 32 870.855469 C 19.476562 864.738281 7.390625 862.964844 -4.292969 861.082031 C -7.277344 860.542969 -10.136719 860.136719 -13.121094 859.597656 C -50.613281 852.90625 -83.203125 821.066406 -95.769531 778.566406 C -101.8125 757.851562 -104.660156 735.984375 -107.410156 714.777344 C -109.964844 694.886719 -112.601562 674.078125 -117.917969 654.445312 C -119.921875 647.28125 -124.246094 639.476562 -128.585938 631.933594 C -137.019531 617.121094 -145.820312 601.898438 -136.351562 590.324219 C -126.46875 578.375 -115.34375 565.050781 -108.316406 549.953125 C -89.921875 511.335938 -92.539062 471.550781 -97.902344 444.976562 C -103.144531 418.542969 -121.222656 395.011719 -138.542969 372.039062 C -147.265625 360.480469 -156.375 348.777344 -163.382812 336.914062 L -164.464844 337.644531 C -157.457031 349.507812 -148.363281 361.476562 -139.503906 372.90625 C -122.167969 395.617188 -104.351562 419.136719 -98.960938 445.1875 C -93.582031 471.5 -91.074219 510.886719 -109.195312 549.257812 C -115.761719 562.9375 -124.832031 574.398438 -137.082031 589.238281 C -146.976562 601.445312 -138.0625 617.070312 -129.519531 632.28125 C -125.304688 639.6875 -120.839844 647.367188 -118.960938 654.394531 C -113.648438 674.027344 -110.996094 694.574219 -108.441406 714.464844 C -105.695312 735.671875 -102.859375 757.800781 -96.8125 778.515625 C -91.210938 797.636719 -81.578125 814.601562 -69.289062 828.167969 C -54.445312 845.652344 -34.867188 857.347656 -13.71875 861.140625 Z M -18.207031 875.183594 C -13.519531 875.675781 -8.558594 875.921875 -4.121094 876.140625 C 7.109375 876.695312 18.597656 877.261719 30.167969 881.496094 C 45.589844 887.230469 57.546875 899.597656 70.714844 913.859375 C 78.410156 922.355469 86.355469 931.121094 95.171875 938.101562 C 99.582031 941.589844 104.523438 944.84375 109.632812 947.453125 C 111.546875 948.460938 113.335938 949.335938 114.863281 950.195312 C 123.300781 954.277344 132.546875 957.875 141.417969 961.058594 C 156.582031 966.78125 172.128906 972.652344 185.679688 981.828125 C 190.625 985.082031 195.28125 988.84375 199.539062 992.71875 C 212.9375 1005.027344 224.238281 1019.984375 235.035156 1034.648438 C 242.886719 1045.246094 251.113281 1056.253906 259.941406 1065.71875 C 271.347656 1078.582031 284.957031 1089.203125 300.402344 1097.160156 C 329.625 1112.34375 364.105469 1113.785156 397.269531 1115.417969 C 424.300781 1116.621094 452.503906 1118.011719 478.269531 1126.351562 C 483.289062 1128.035156 488.570312 1129.738281 493.855469 1131.4375 C 497.074219 1132.511719 500.292969 1133.585938 503.648438 1134.539062 C 536.496094 1145.1875 570.175781 1157.582031 591.253906 1181.394531 L 592.347656 1180.402344 C 571.285156 1156.328125 537.222656 1143.785156 504.109375 1133.121094 C 500.890625 1132.046875 497.535156 1131.09375 494.316406 1130.019531 C 489.035156 1128.320312 483.753906 1126.621094 478.730469 1124.933594 C 452.84375 1116.457031 424.640625 1115.066406 397.347656 1113.851562 C 362.742188 1112.277344 329.964844 1110.792969 300.988281 1095.882812 C 285.804688 1087.933594 272.320312 1077.453125 260.910156 1064.589844 C 252.085938 1055.121094 243.984375 1044.253906 236.128906 1033.65625 C 225.199219 1019.113281 213.910156 1003.898438 200.511719 991.589844 C 196.128906 987.578125 191.472656 983.816406 186.527344 980.558594 C 172.851562 971.246094 157.042969 965.363281 142.019531 959.519531 C 133.15625 956.070312 124.035156 952.613281 115.597656 948.53125 C 113.933594 947.792969 112.144531 946.921875 110.492188 945.921875 C 105.523438 943.191406 100.828125 940.210938 96.417969 936.722656 C 87.601562 929.742188 79.78125 921.113281 72.085938 912.617188 C 58.929688 898.097656 46.710938 885.714844 30.90625 879.832031 C 19.210938 875.457031 7.460938 874.878906 -3.769531 874.324219 C -8.46875 874.09375 -13.167969 873.863281 -17.855469 873.371094 C -50.40625 869.933594 -91.0625 842.40625 -108.046875 788.691406 C -114.949219 766.757812 -118.253906 743.558594 -121.597656 721.144531 C -124.609375 699.925781 -127.855469 678.167969 -133.890625 657.191406 C -136.128906 649.492188 -141.085938 641.261719 -145.800781 633.308594 C -155.597656 616.988281 -164.648438 601.492188 -154.519531 589.820312 C -144.527344 578.269531 -134.34375 565.554688 -127.507812 551.625 C -112.996094 522.761719 -108.410156 488.175781 -114.480469 452.011719 C -119.230469 423.640625 -136 397.421875 -152.296875 372.273438 C -158.5 362.675781 -164.949219 352.804688 -170.355469 342.984375 L -171.5625 343.578125 C -166.019531 353.273438 -159.707031 363.273438 -153.507812 372.871094 C -137.332031 397.878906 -120.550781 423.835938 -115.921875 452.074219 C -109.964844 487.835938 -114.535156 522.164062 -129.058594 551.285156 C -136.023438 565.078125 -146.066406 577.671875 -156.058594 589.21875 C -166.886719 601.773438 -156.964844 618.230469 -147.417969 634.277344 C -142.707031 642.230469 -137.871094 650.320312 -135.496094 657.898438 C -129.449219 678.613281 -126.214844 700.628906 -123.191406 721.589844 C -119.984375 744.128906 -116.554688 767.464844 -109.652344 789.398438 C -103.875 807.613281 -93.671875 826.308594 -79.769531 841.652344 C -63.632812 859.464844 -42.691406 872.667969 -18.207031 875.183594 Z M -22.570312 889.367188 C -16.566406 889.664062 -10.398438 889.3125 -4.230469 888.960938 C 6.925781 888.332031 18.34375 887.71875 29.441406 890.882812 C 46.097656 895.5 59.210938 908.320312 71.152344 920.949219 C 72.515625 922.457031 73.882812 923.960938 75.371094 925.605469 C 81.714844 932.332031 88.046875 939.320312 94.960938 945.027344 C 99.359375 948.777344 103.902344 952.144531 108.859375 955.136719 C 110.511719 956.132812 112.289062 957.269531 113.953125 958.003906 C 123.644531 963.195312 134.183594 967.117188 144.324219 971.148438 C 157.683594 976.257812 171.304688 981.378906 183.476562 989.308594 C 188.296875 992.425781 192.832031 996.054688 197.214844 1000.066406 C 211.492188 1013.070312 223.105469 1029.742188 234.355469 1045.742188 C 240.832031 1055.089844 247.554688 1064.714844 254.839844 1073.582031 C 267.175781 1088.847656 279.46875 1099.664062 293.210938 1107.671875 C 322.617188 1124.433594 357.769531 1125.511719 391.753906 1126.402344 C 418.152344 1127.179688 445.609375 1127.75 470.605469 1135.789062 C 475.886719 1137.488281 481.429688 1139.199219 486.972656 1140.914062 C 489.808594 1141.839844 492.902344 1142.777344 495.875 1143.578125 C 527.320312 1153.503906 562.824219 1165.988281 584.351562 1188.644531 L 585.449219 1187.652344 C 563.140625 1164.957031 527.507812 1152.335938 495.9375 1142.273438 C 492.84375 1141.335938 490.007812 1140.410156 487.039062 1139.609375 C 481.496094 1137.894531 475.953125 1136.183594 470.667969 1134.480469 C 445.414062 1126.429688 417.96875 1125.601562 391.433594 1124.949219 C 356.144531 1123.992188 322.679688 1123.128906 293.660156 1106.515625 C 280.042969 1098.644531 267.875 1087.96875 255.664062 1072.835938 C 248.503906 1064.109375 241.777344 1054.484375 235.304688 1045.132812 C 224.050781 1029.136719 212.4375 1012.464844 198.035156 999.320312 C 193.777344 995.445312 188.984375 991.804688 184.175781 988.429688 C 172.003906 980.5 158.257812 975.238281 144.898438 970.132812 C 134.621094 966.222656 124.21875 962.175781 114.652344 957.121094 C 112.863281 956.25 111.210938 955.25 109.558594 954.253906 C 104.863281 951.273438 100.179688 948.03125 96.046875 944.296875 C 89.265625 938.464844 82.796875 931.601562 76.589844 924.75 C 75.226562 923.242188 73.859375 921.738281 72.371094 920.09375 C 60.304688 907.324219 47.070312 894.371094 30.03125 889.605469 C 18.667969 886.425781 6.992188 887.027344 -4.164062 887.65625 C -10.070312 888.019531 -16.242188 888.371094 -22.246094 888.074219 C -70.046875 885.976562 -105.847656 842.332031 -119.976562 799.753906 C -127.734375 776.597656 -131.636719 752.191406 -135.441406 728.445312 C -139.046875 706.019531 -142.75 682.933594 -149.640625 660.734375 C -152.25 652.621094 -157.582031 643.984375 -162.789062 635.480469 C -173.457031 618.203125 -183.390625 602.007812 -172.710938 589.839844 C -162.621094 578.949219 -153.769531 566.691406 -146.585938 553.695312 C -131.441406 525.253906 -125.941406 493.332031 -130.382812 458.691406 C -134.644531 425.628906 -151.566406 394.5625 -167.890625 364.699219 C -170.769531 359.324219 -173.65625 354.207031 -176.410156 348.96875 L -177.617188 349.5625 C -174.863281 354.800781 -171.851562 360.054688 -169.101562 365.296875 C -152.898438 395.019531 -135.960938 425.824219 -131.6875 458.625 C -127.234375 493.003906 -132.597656 524.804688 -147.589844 552.859375 C -154.777344 565.855469 -163.351562 577.867188 -173.445312 588.753906 C -184.941406 601.667969 -174.152344 619.085938 -163.738281 636.089844 C -158.652344 644.453125 -153.195312 653.230469 -150.832031 661.070312 C -143.929688 683.003906 -140.226562 706.089844 -136.621094 728.519531 C -132.820312 752.265625 -128.929688 776.929688 -121.171875 800.085938 C -114.664062 819.386719 -103.976562 838.890625 -89.578125 854.78125 C -72.226562 874.484375 -49.21875 888.3125 -22.570312 889.367188 Z M -27.199219 903.535156 C -19.859375 903.371094 -12.484375 902.429688 -5.492188 901.332031 C 5.578125 899.785156 17.046875 898.125 28.195312 900.246094 C 48.808594 904.273438 63.230469 919.640625 78.523438 935.972656 C 87.476562 945.574219 96.671875 955.449219 107.304688 962.78125 C 118.820312 970.808594 132.441406 975.929688 145.425781 980.628906 C 157.246094 985.136719 169.585938 989.671875 180.507812 996.492188 C 202.964844 1010.820312 217.910156 1034.199219 232.511719 1056.644531 C 247.097656 1079.351562 262.304688 1102.742188 284.886719 1117.207031 C 314.203125 1135.796875 350.054688 1135.996094 384.601562 1136.128906 C 410.503906 1136.359375 437.203125 1136.367188 461.6875 1144.117188 C 466.585938 1145.667969 471.742188 1147.230469 476.902344 1148.792969 C 511.976562 1159.421875 551.960938 1171.339844 576.308594 1195.183594 L 577.265625 1194.316406 C 552.535156 1170.324219 512.5625 1158.144531 477.226562 1147.5 C 472.066406 1145.9375 466.910156 1144.375 462.011719 1142.824219 C 437.527344 1135.074219 410.566406 1135.050781 384.664062 1134.820312 C 348.550781 1134.613281 314.664062 1134.378906 285.734375 1115.941406 C 263.273438 1101.613281 248.191406 1078.359375 233.730469 1055.789062 C 219.144531 1033.082031 204.0625 1009.824219 181.355469 995.226562 C 170.3125 988.269531 158.105469 983.609375 146.027344 979.085938 C 133.175781 974.265625 119.679688 969.28125 108.167969 961.253906 C 97.65625 954.058594 88.460938 944.183594 79.511719 934.578125 C 64.835938 918.9375 49.542969 902.605469 28.546875 898.429688 C 17.273438 896.171875 5.667969 897.957031 -5.539062 899.628906 C -12.65625 900.585938 -19.90625 901.667969 -27.242188 901.832031 C -77.660156 902.355469 -116.34375 856.078125 -132.519531 809.867188 C -141.007812 785.628906 -145.492188 759.753906 -149.765625 734.9375 C -153.964844 711.304688 -158.25 686.75 -165.746094 663.605469 C -168.46875 655.09375 -174.421875 645.769531 -180.140625 636.980469 C -191.675781 618.742188 -202.613281 601.714844 -191.003906 589.199219 C -119.394531 511.84375 -146.894531 427.25 -183.234375 354.652344 L -184.453125 355.507812 C -168.835938 386.511719 -150.699219 427.453125 -147.921875 469.34375 C -144.902344 514.253906 -159.257812 553.199219 -192.144531 588.488281 C -204.578125 601.746094 -192.796875 620.257812 -181.496094 637.960938 C -175.917969 646.875 -169.949219 655.9375 -167.351562 664.3125 C -159.71875 687.332031 -155.433594 711.886719 -151.355469 735.382812 C -146.835938 760.472656 -142.351562 786.347656 -133.738281 810.722656 C -126.757812 831.089844 -115.203125 851.554688 -100.308594 867.996094 C -81.070312 889.230469 -56.011719 903.945312 -27.199219 903.535156 Z M 86.808594 794.503906 C 102.757812 805.5 120.261719 808.851562 138.671875 812.375 C 156.4375 815.738281 174.726562 819.125 192.117188 830.0625 C 205.832031 838.589844 218.054688 853.460938 230.886719 869.273438 C 251.25 894.230469 274.332031 922.460938 311.9375 937.535156 C 343.253906 950.070312 375.957031 945.140625 407.601562 940.417969 C 438.722656 935.671875 470.886719 930.972656 502.132812 942.332031 C 522.316406 949.738281 545.546875 956.382812 568.007812 962.722656 C 616.53125 976.632812 666.871094 990.894531 690.460938 1014.179688 C 724.414062 1047.523438 725.660156 1062.113281 725.644531 1062.375 L 727.089844 1062.316406 C 726.988281 1061.65625 726.132812 1047.21875 691.417969 1013.308594 C 667.445312 989.878906 617.242188 975.492188 568.457031 961.570312 C 545.996094 955.226562 522.765625 948.582031 502.84375 941.1875 C 471.214844 929.679688 438.910156 934.5 407.664062 939.113281 C 376.28125 943.847656 343.71875 948.65625 312.785156 936.265625 C 275.566406 921.34375 252.609375 893.25 232.367188 868.429688 C 219.535156 852.617188 207.3125 837.746094 193.347656 828.945312 C 175.695312 817.996094 157.285156 814.472656 139.519531 811.109375 C 121.109375 807.582031 103.730469 804.371094 88.167969 793.523438 C 62.605469 775.773438 69.808594 735.816406 76 700.523438 C 77.417969 693.003906 78.683594 685.867188 79.542969 679.101562 C 83.558594 650.769531 96.351562 638.179688 115.882812 618.988281 C 123.304688 611.765625 131.699219 603.410156 140.722656 592.992188 C 155.847656 575.542969 166.675781 547.023438 171.25 512.695312 C 175.457031 480.445312 173.675781 444.890625 166.363281 415.34375 C 153.257812 362.605469 119.25 325.066406 62.472656 300.671875 C 13.386719 279.535156 -49.675781 236.640625 -50.308594 236.214844 L -51.019531 237.359375 C -50.386719 237.78125 12.675781 280.679688 61.253906 301.527344 C 117.769531 325.910156 151.40625 363.039062 164.261719 415.5 C 182.050781 487.445312 165.296875 561.746094 139.070312 591.992188 C 130.046875 602.410156 121.664062 610.503906 114.367188 617.867188 C 95.382812 636.5625 81.769531 649.894531 77.726562 678.753906 C 76.734375 685.640625 75.464844 692.777344 74.183594 700.171875 C 68.535156 732.484375 62.042969 768.546875 80.289062 788.6875 C 82.152344 790.742188 84.273438 792.808594 86.808594 794.503906 Z M 86.808594 794.503906 " fill-opacity="1" fill-rule="nonzero"/></g></g></g><g clip-path="url(#d70ff87e41)"><g clip-path="url(#165381e421)"><g clip-path="url(#88a8a1f44d)"><path fill="#599CA8" d="M 1050.191406 227.800781 C 1044.28125 220.816406 1038.613281 213.628906 1033.1875 206.238281 C 991.855469 149.753906 959.621094 92.457031 937.3125 35.984375 C 914.054688 -23.398438 859.199219 -70.640625 797.527344 -84.429688 L 797.667969 -85.238281 C 859.636719 -71.425781 914.628906 -24.023438 938.023438 35.523438 C 960.261719 91.914062 992.496094 149.210938 1033.761719 205.617188 C 1063.296875 246.050781 1099.332031 279.191406 1140.828125 304.132812 C 1183.171875 329.59375 1229.308594 345.371094 1277.996094 351.140625 L 1277.933594 351.882812 C 1229.101562 346.101562 1182.816406 330.308594 1140.402344 304.769531 C 1106.574219 284.496094 1076.277344 258.621094 1050.191406 227.800781 Z M 1091.601562 278.847656 C 1106.324219 290.21875 1122.335938 299.535156 1137.53125 307.886719 C 1156.078125 318.085938 1178.164062 329.699219 1201.820312 338.605469 C 1227.207031 348.257812 1251.347656 353.996094 1273.738281 355.710938 L 1273.796875 354.96875 C 1251.476562 353.335938 1227.335938 347.59375 1202.097656 337.957031 C 1178.523438 328.984375 1156.4375 317.371094 1137.957031 307.253906 C 1122.828125 298.980469 1106.816406 289.664062 1092.097656 278.292969 C 1069.738281 260.984375 1049.816406 238.585938 1027.488281 205.691406 C 1025.757812 203.160156 1024.027344 200.628906 1022.230469 198.015625 C 1015.925781 188.613281 1009.269531 178.957031 1002.667969 169.527344 C 998.066406 162.953125 993.386719 156.445312 988.910156 150.179688 C 977.277344 133.992188 966.320312 118.605469 955.976562 102.148438 C 952.679688 96.953125 949.203125 91.214844 946.128906 85.140625 C 941.476562 75.578125 937.605469 65.628906 934.417969 55.515625 C 932.707031 50.078125 930.875 44.328125 929.089844 37.988281 C 924.246094 20.871094 916.949219 4.597656 907.371094 -10.300781 C 905 -14.082031 902.25 -17.816406 899.476562 -21.253906 C 896.761719 -24.464844 893.734375 -27.550781 890.683594 -30.34375 C 862.632812 -56.328125 827.375 -73.738281 791.210938 -79.359375 L 791.070312 -78.550781 C 827.085938 -72.941406 862.195312 -55.542969 890.109375 -29.71875 C 893.230469 -26.847656 896.1875 -23.839844 898.835938 -20.710938 C 901.609375 -17.273438 904.289062 -13.617188 906.660156 -9.839844 C 916.238281 5.058594 923.46875 21.253906 928.242188 38.289062 C 930.027344 44.632812 931.863281 50.378906 933.574219 55.820312 C 936.679688 66 940.621094 76.027344 945.269531 85.589844 C 948.414062 91.746094 951.824219 97.402344 955.1875 102.679688 C 965.53125 119.136719 976.484375 134.519531 988.121094 150.710938 C 992.664062 157.058594 997.347656 163.566406 1001.878906 170.058594 C 1008.480469 179.488281 1015.054688 189.210938 1021.441406 198.546875 C 1023.171875 201.078125 1024.898438 203.609375 1026.695312 206.222656 C 1036.0625 220.058594 1045.066406 232 1054.035156 242.59375 C 1066.410156 257.054688 1078.5625 268.808594 1091.601562 278.847656 Z M 1083.828125 281.707031 C 1096.976562 291.378906 1110.789062 298.425781 1125.53125 305.917969 C 1127.535156 306.980469 1129.613281 307.976562 1131.613281 309.035156 C 1136.765625 311.703125 1142.128906 314.464844 1147.199219 317.199219 C 1163.136719 325.613281 1179.65625 334.226562 1196.589844 341.378906 C 1223.914062 352.832031 1247.75 358.695312 1269.550781 359.390625 L 1269.542969 358.570312 C 1247.890625 357.886719 1224.054688 352.023438 1196.882812 340.582031 C 1180.011719 333.507812 1163.574219 324.828125 1147.558594 316.480469 C 1142.410156 313.816406 1137.191406 311.066406 1131.972656 308.320312 C 1129.972656 307.257812 1127.890625 306.265625 1125.890625 305.203125 C 1111.292969 297.722656 1097.402344 290.746094 1084.335938 281.003906 C 1057.339844 261.148438 1038.289062 232.777344 1021.011719 205.523438 C 1012.109375 191.429688 1004.507812 179.679688 996.117188 168.460938 C 987.398438 156.691406 978.308594 145.789062 969.410156 135.273438 C 961.136719 125.335938 952.507812 115.140625 944.660156 104.566406 C 940.621094 99.304688 936.972656 93.851562 933.804688 87.992188 C 928.65625 78.164062 925.882812 67.5625 923.71875 57.683594 C 922.464844 52.132812 921.25 46.136719 920.113281 40.074219 C 916.726562 21.589844 911.433594 5.40625 903.703125 -9.265625 C 901.652344 -13.3125 899.214844 -17.171875 896.453125 -20.761719 C 893.667969 -24.050781 890.574219 -27.21875 887.296875 -29.953125 C 858.050781 -55.070312 821.609375 -70.785156 784.519531 -74.246094 L 784.457031 -73.507812 C 821.316406 -69.988281 857.691406 -54.351562 886.789062 -29.25 C 890.066406 -26.515625 893.09375 -23.425781 895.878906 -20.136719 C 898.71875 -16.617188 901.089844 -12.839844 903.140625 -8.789062 C 910.871094 5.882812 916.175781 21.917969 919.496094 40.320312 C 920.632812 46.386719 921.847656 52.378906 923.023438 58 C 925.25 67.957031 928.09375 78.640625 933.164062 88.539062 C 936.332031 94.398438 940.046875 99.929688 944.085938 105.1875 C 951.933594 115.765625 960.5625 125.957031 968.835938 135.898438 C 977.652344 146.480469 986.824219 157.316406 995.542969 169.085938 C 1003.855469 180.371094 1011.535156 192.050781 1020.4375 206.148438 C 1030.382812 221.972656 1041.046875 238.15625 1053.480469 252.84375 C 1062.445312 263.4375 1072.363281 273.367188 1083.828125 281.707031 Z M 1076.125 284.644531 C 1087.964844 292.945312 1100.976562 298.875 1113.554688 304.625 C 1117.582031 306.449219 1121.605469 308.277344 1125.621094 310.253906 C 1135.808594 315.132812 1146.015625 320.679688 1155.871094 325.976562 C 1167.292969 332.152344 1179.214844 338.589844 1191.292969 344.074219 C 1219.679688 357.105469 1243.863281 363.222656 1265.148438 362.980469 L 1265.140625 362.15625 C 1243.925781 362.480469 1219.902344 356.226562 1191.585938 343.277344 C 1179.585938 337.726562 1167.730469 331.367188 1156.226562 325.261719 C 1146.371094 319.964844 1136.167969 314.414062 1125.976562 309.539062 C 1121.964844 307.5625 1117.789062 305.722656 1113.914062 303.90625 C 1100.835938 297.894531 1088.324219 292.226562 1076.628906 283.941406 C 1049.492188 264.894531 1032.890625 236.65625 1015.390625 206.699219 L 1014.738281 205.597656 C 1007.808594 193.832031 999.476562 180.082031 989.769531 167.632812 C 979.179688 154.144531 967.621094 142.4375 956.402344 131.132812 C 948.761719 123.410156 940.839844 115.511719 933.546875 107.222656 C 929.027344 102.367188 925 96.960938 921.753906 91.167969 C 916.523438 81.40625 914.515625 70.570312 913.144531 60.160156 C 912.46875 54.808594 911.820312 49.160156 911.269531 42.324219 C 909.730469 22.273438 906.316406 6.84375 900.171875 -8.066406 C 898.507812 -12.308594 896.3125 -16.371094 893.5625 -20.105469 C 890.789062 -23.542969 887.535156 -26.574219 884.027344 -29.253906 C 853.527344 -53.582031 815.898438 -67.605469 777.9375 -68.675781 L 777.941406 -67.855469 C 815.605469 -66.808594 853.085938 -52.796875 883.589844 -28.472656 C 887.03125 -25.871094 890.203125 -22.773438 892.988281 -19.480469 C 895.667969 -15.828125 897.800781 -11.84375 899.460938 -7.601562 C 905.550781 7.078125 909.035156 22.589844 910.503906 42.558594 C 911.054688 49.394531 911.625 55.109375 912.378906 60.394531 C 913.75 70.804688 915.664062 81.859375 921.042969 91.632812 C 924.359375 97.503906 928.382812 102.910156 932.972656 107.84375 C 940.265625 116.136719 948.253906 124.113281 955.828125 131.757812 C 967.046875 143.0625 978.539062 154.6875 989.128906 168.175781 C 998.835938 180.625 1007.246094 194.304688 1014.027344 206.0625 L 1014.679688 207.160156 C 1025.851562 226.222656 1036.640625 244.503906 1050.023438 260.316406 C 1057.617188 269.453125 1066.109375 277.695312 1076.125 284.644531 Z M 1068.417969 287.585938 C 1079.648438 295.160156 1092.140625 300.15625 1104.269531 305.042969 C 1109.320312 307.105469 1114.667969 309.191406 1119.839844 311.5625 C 1132.929688 317.429688 1145.761719 324.613281 1158.082031 331.683594 C 1167.273438 336.851562 1176.605469 342.179688 1186.132812 346.925781 C 1215.363281 361.445312 1239.820312 367.882812 1260.949219 366.808594 L 1260.945312 365.988281 C 1239.882812 367.144531 1215.585938 360.570312 1186.492188 346.210938 C 1176.964844 341.460938 1167.550781 336.203125 1158.4375 330.964844 C 1146.039062 323.964844 1133.207031 316.78125 1120.117188 310.914062 C 1114.945312 308.542969 1109.597656 306.457031 1104.546875 304.394531 C 1091.988281 299.320312 1080.074219 294.523438 1068.910156 287.03125 C 1042.902344 269.644531 1028.089844 242.375 1012.507812 213.546875 C 1011.15625 210.972656 1009.65625 208.382812 1008.304688 205.808594 C 1001.695312 193.769531 993.617188 179.667969 983.113281 166.929688 C 971.332031 152.519531 957.808594 141.097656 944.773438 130.089844 C 937.253906 123.644531 929.367188 117.09375 922.191406 110.082031 C 917.769531 105.832031 912.820312 100.796875 909.3125 94.535156 C 903.730469 84.519531 902.605469 72.9375 902.324219 62.839844 C 902.109375 57.378906 902.066406 51.628906 902.257812 44.855469 C 902.6875 28.925781 902.179688 11.722656 896.453125 -6.433594 C 895.261719 -10.9375 893.222656 -15.136719 890.570312 -19.085938 C 887.726562 -22.605469 884.40625 -25.71875 880.738281 -28.261719 C 848.988281 -51.945312 810.105469 -64.359375 771.421875 -63.027344 L 771.429688 -62.207031 C 810.03125 -63.46875 848.695312 -51.148438 880.230469 -27.558594 C 883.898438 -25.011719 887.152344 -21.980469 889.925781 -18.542969 C 892.527344 -14.820312 894.484375 -10.554688 895.6875 -6.199219 C 901.34375 11.878906 901.785156 29 901.433594 44.863281 C 901.3125 51.714844 901.355469 57.464844 901.570312 62.929688 C 901.917969 73.105469 903.03125 84.835938 908.679688 94.929688 C 912.257812 101.269531 917.277344 106.390625 921.617188 110.703125 C 928.941406 117.730469 936.746094 124.347656 944.265625 130.792969 C 957.304688 141.800781 970.675781 153.210938 982.539062 167.554688 C 992.976562 180.210938 1000.984375 194.234375 1007.59375 206.273438 C 1008.945312 208.847656 1010.445312 211.433594 1011.796875 214.007812 C 1022.011719 232.914062 1031.84375 251.042969 1044.75 266.292969 C 1051.621094 274.25 1059.296875 281.527344 1068.417969 287.585938 Z M 1060.644531 290.445312 C 1071.765625 297.5625 1084.007812 301.941406 1095.902344 306.0625 C 1101.773438 308.121094 1107.863281 310.269531 1113.84375 312.78125 C 1128.917969 319.035156 1143.199219 327.609375 1157.128906 335.929688 C 1164.878906 340.53125 1172.84375 345.222656 1180.835938 349.617188 C 1210.765625 365.613281 1235.5625 372.453125 1256.695312 370.40625 L 1256.609375 369.65625 C 1235.703125 371.644531 1210.972656 364.886719 1181.191406 348.902344 C 1173.191406 344.65625 1165.238281 339.8125 1157.488281 335.214844 C 1143.558594 326.894531 1129.195312 318.386719 1114.054688 312.050781 C 1108.070312 309.539062 1101.984375 307.390625 1096.113281 305.335938 C 1084.300781 301.144531 1071.976562 296.835938 1061.070312 289.808594 C 1035.433594 273.351562 1022.074219 246.5 1007.894531 217.863281 C 1005.914062 213.890625 1003.875 209.695312 1001.824219 205.644531 C 995.402344 193.171875 987.429688 178.707031 976.484375 165.929688 C 963.6875 151.136719 948.554688 140.253906 933.976562 129.863281 C 926.300781 124.375 918.339844 118.714844 910.875 112.496094 C 906.132812 108.519531 900.777344 103.820312 897.054688 97.46875 C 891.121094 87.199219 891.039062 74.734375 891.613281 65.15625 C 891.921875 59.664062 892.496094 53.667969 893.277344 46.941406 C 895.308594 30.625 896.914062 13.148438 892.785156 -5.398438 C 891.867188 -9.578125 890.550781 -14.386719 887.609375 -18.511719 C 884.875 -22.394531 880.9375 -25.261719 877.484375 -27.710938 C 844.691406 -50.511719 804.621094 -61.234375 764.867188 -57.753906 L 764.953125 -57 C 804.628906 -60.410156 844.414062 -49.863281 877.058594 -27.074219 C 880.441406 -24.703125 884.3125 -21.921875 887.050781 -18.035156 C 889.921875 -13.992188 891.316406 -9.25 892.101562 -5.230469 C 896.238281 13.167969 894.566406 30.5625 892.617188 46.8125 C 891.835938 53.539062 891.261719 59.53125 890.953125 65.027344 C 890.367188 74.753906 890.515625 87.300781 896.503906 97.796875 C 900.214844 104.296875 905.636719 109.074219 910.527344 113.0625 C 917.996094 119.28125 925.953125 124.941406 933.710938 130.363281 C 948.289062 140.753906 963.433594 151.488281 976.082031 166.269531 C 987.042969 178.898438 994.933594 193.429688 1001.289062 205.824219 C 1003.339844 209.871094 1005.457031 214.003906 1007.359375 218.042969 C 1016.875 237.261719 1026.007812 255.703125 1038.777344 270.792969 C 1044.933594 278.394531 1052.148438 284.960938 1060.644531 290.445312 Z M 899.175781 115.925781 C 906.929688 121.34375 915.167969 126.359375 923.132812 131.050781 C 939.199219 140.59375 955.832031 150.484375 969.492188 165.648438 C 981.101562 178.550781 989.066406 193.988281 994.773438 206.101562 C 997.183594 211.226562 999.511719 216.417969 1001.851562 221.460938 C 1014.820312 250.296875 1027.171875 277.585938 1052.9375 293.382812 C 1063.9375 300.195312 1076.242188 303.832031 1088.171875 307.507812 C 1094.648438 309.464844 1101.488281 311.527344 1107.917969 314.078125 C 1124.539062 320.535156 1139.921875 330.246094 1154.882812 339.625 C 1161.621094 343.839844 1168.640625 348.230469 1175.605469 352.390625 C 1206.082031 369.851562 1231.234375 376.941406 1252.429688 374.15625 L 1252.34375 373.402344 C 1231.292969 376.203125 1206.292969 369.121094 1176.03125 351.753906 C 1169.054688 347.742188 1162.03125 343.351562 1155.375 339.066406 C 1140.414062 329.691406 1124.964844 319.898438 1108.277344 313.359375 C 1101.699219 310.800781 1095.007812 308.75 1088.382812 306.78125 C 1076.519531 303.183594 1064.292969 299.476562 1053.363281 292.75 C 1027.734375 277.109375 1015.449219 249.902344 1002.550781 221.148438 C 1000.289062 216.035156 997.960938 210.84375 995.472656 205.785156 C 989.765625 193.671875 981.730469 178.15625 970.054688 165.171875 C 956.394531 150.007812 939.691406 140.039062 923.558594 130.414062 C 915.59375 125.722656 907.355469 120.707031 899.601562 115.289062 C 894.105469 111.398438 888.511719 106.902344 884.773438 100.699219 C 878.554688 90.257812 879.386719 77.570312 880.808594 67.691406 C 881.640625 62.164062 882.726562 56.285156 884.277344 49.328125 C 888.351562 30.863281 891.535156 14.121094 889.164062 -3.984375 C 888.550781 -8.289062 887.625 -13.289062 884.628906 -17.640625 C 881.90625 -21.671875 877.738281 -24.480469 874.207031 -26.863281 C 839.867188 -49.046875 798.761719 -58.066406 758.285156 -52.183594 L 758.371094 -51.429688 C 798.621094 -57.257812 839.589844 -48.398438 873.710938 -26.308594 C 877.324219 -23.996094 881.34375 -21.199219 884 -17.246094 C 886.859375 -13.054688 887.796875 -8.199219 888.410156 -3.898438 C 890.792969 14.058594 887.6875 30.734375 883.617188 49.199219 C 882.054688 56.304688 880.898438 62.101562 880.148438 67.5625 C 878.648438 77.507812 877.800781 90.34375 884.144531 101.09375 C 885.125 102.742188 886.269531 104.253906 887.492188 105.699219 C 890.808594 109.78125 895.019531 112.964844 899.175781 115.925781 Z M 887.832031 118.636719 C 895.933594 123.488281 904.527344 127.785156 912.839844 131.910156 C 930.328125 140.527344 948.449219 149.570312 962.847656 164.796875 C 974.984375 177.667969 982.832031 193.617188 988.285156 206.082031 C 990.914062 212.121094 993.464844 218.226562 995.949219 224.253906 C 1007.84375 253.445312 1019.121094 281.09375 1045.085938 296.3125 C 1056.105469 302.824219 1068.53125 305.949219 1080.507812 309.035156 C 1087.589844 310.894531 1094.902344 312.695312 1101.921875 315.292969 C 1119.808594 321.78125 1135.996094 332.605469 1151.757812 343.09375 C 1157.765625 347.101562 1164.058594 351.28125 1170.375 355.164062 C 1200.824219 373.886719 1226.972656 381.511719 1248.175781 377.757812 L 1248.089844 377.003906 C 1227.046875 380.621094 1201.113281 373.09375 1170.882812 354.460938 C 1164.632812 350.65625 1158.421875 346.410156 1152.332031 342.46875 C 1136.570312 331.980469 1120.316406 321.078125 1102.347656 314.65625 C 1095.246094 312.128906 1087.949219 310.175781 1080.855469 308.46875 C 1068.945312 305.460938 1056.601562 302.269531 1045.648438 295.835938 C 1019.898438 280.710938 1008.675781 253.292969 996.78125 224.097656 C 994.300781 218.074219 991.828125 211.898438 989.199219 205.859375 C 983.679688 193.3125 975.828125 177.367188 963.558594 164.332031 C 949.023438 148.945312 930.902344 139.902344 913.347656 131.203125 C 905.035156 127.082031 896.4375 122.785156 888.339844 117.929688 C 882.375 114.300781 876.378906 110.144531 872.574219 103.859375 C 865.949219 92.9375 868.039062 79.460938 870.230469 70.167969 C 871.835938 63.4375 873.710938 57.027344 875.433594 51.574219 C 880.890625 34.421875 886.625 16.621094 885.628906 -2.785156 C 885.40625 -7.28125 884.722656 -12.484375 881.820312 -17.054688 C 879.109375 -21.234375 874.859375 -23.976562 871.101562 -26.304688 C 835.300781 -47.933594 792.929688 -55.195312 751.945312 -46.816406 L 752.097656 -45.984375 C 792.933594 -54.371094 835.078125 -47.058594 870.742188 -25.585938 C 874.433594 -23.339844 878.683594 -20.597656 881.257812 -16.578125 C 884.105469 -12.238281 884.722656 -7.113281 884.957031 -2.765625 C 885.964844 16.492188 880.3125 34.226562 874.785156 51.296875 C 873.0625 56.75 871.105469 63.226562 869.582031 69.890625 C 867.378906 79.332031 865.195312 93.027344 872.023438 104.1875 C 872.882812 105.527344 873.753906 106.71875 874.773438 107.921875 C 878.28125 112.394531 883.152344 115.707031 887.832031 118.636719 Z M 876.636719 121.359375 C 885.152344 125.722656 894.175781 129.382812 902.832031 132.941406 C 921.738281 140.632812 941.226562 148.523438 956.355469 163.957031 C 969.011719 176.796875 976.597656 193.246094 981.945312 206.078125 C 984.742188 212.800781 987.285156 219.875 989.785156 226.574219 C 1000.742188 256.285156 1011.082031 284.453125 1037.378906 299.25 C 1048.640625 305.5625 1061.101562 308.238281 1073.277344 310.746094 C 1080.832031 312.34375 1088.597656 314.035156 1096.007812 316.441406 C 1115.023438 322.800781 1131.796875 334.644531 1148.078125 346.070312 C 1153.574219 349.960938 1159.355469 354.023438 1165.089844 357.707031 C 1196.007812 377.964844 1222.507812 385.839844 1243.921875 381.355469 L 1243.765625 380.523438 C 1222.652344 385.03125 1196.296875 377.167969 1165.597656 357.003906 C 1159.941406 353.25 1154.230469 349.269531 1148.585938 345.367188 C 1132.234375 333.859375 1115.316406 322.003906 1096.296875 315.648438 C 1088.820312 313.160156 1081.050781 311.46875 1073.5 309.867188 C 1061.40625 307.296875 1048.945312 304.617188 1037.816406 298.46875 C 1011.804688 283.84375 1001.453125 255.824219 990.566406 226.191406 C 987.996094 219.414062 985.519531 212.417969 982.722656 205.695312 C 977.453125 192.796875 969.800781 176.265625 957.007812 163.265625 C 941.8125 147.75 922.1875 139.699219 903.199219 132.074219 C 894.542969 128.519531 885.523438 124.859375 877.007812 120.496094 C 870.925781 117.378906 864.324219 113.320312 860.238281 106.863281 C 855.042969 98.445312 854.785156 87.234375 859.4375 72.550781 C 861.648438 65.722656 864.199219 59.292969 866.445312 53.8125 L 867.289062 51.71875 C 874.574219 34.121094 881.476562 17.535156 881.949219 -1.601562 C 882.136719 -5.613281 881.875 -11.453125 878.851562 -16.332031 C 876.21875 -20.578125 871.675781 -23.34375 867.753906 -25.539062 C 830.261719 -46.566406 786.851562 -52.117188 745.292969 -41.328125 L 745.527344 -40.5625 C 786.859375 -51.296875 830.117188 -45.753906 867.394531 -24.820312 C 871.316406 -22.628906 875.644531 -19.957031 878.207031 -15.789062 C 881.179688 -11.140625 881.371094 -5.378906 881.195312 -1.511719 C 880.816406 17.40625 873.914062 33.992188 866.640625 51.441406 L 865.796875 53.535156 C 863.550781 59.015625 861 65.445312 858.789062 72.273438 C 854.042969 87.171875 854.277344 98.683594 859.675781 107.339844 C 860.328125 108.4375 861.144531 109.398438 861.960938 110.363281 C 865.796875 115.382812 871.488281 118.691406 876.636719 121.359375 Z M 865.375 124.003906 C 874.304688 127.878906 883.738281 131.050781 893.039062 134.066406 C 913.148438 140.738281 934.136719 147.632812 949.859375 163.117188 C 960.140625 173.148438 968.0625 186.417969 975.523438 206.140625 C 978.339844 213.535156 980.902344 221.285156 983.339844 228.726562 C 993.414062 259.183594 1002.960938 287.882812 1029.675781 302.191406 C 1041.027344 308.285156 1053.753906 310.464844 1066.183594 312.617188 C 1074.125 314.023438 1082.292969 315.375 1090.148438 317.820312 C 1110.148438 324.035156 1127.4375 336.816406 1144.089844 349.171875 C 1149.222656 352.953125 1154.488281 356.898438 1159.847656 360.628906 C 1191.234375 382.417969 1218.078125 390.695312 1239.644531 385.253906 L 1239.410156 384.488281 C 1218.070312 389.871094 1191.457031 381.539062 1160.273438 359.992188 C 1154.984375 356.34375 1149.714844 352.398438 1144.585938 348.613281 C 1127.78125 336.25 1110.425781 323.386719 1090.359375 317.09375 C 1082.503906 314.648438 1074.265625 313.214844 1066.246094 311.875 C 1053.964844 309.734375 1041.238281 307.554688 1029.953125 301.542969 C 1003.605469 287.335938 994.042969 258.789062 984.027344 228.558594 C 981.585938 221.117188 979.023438 213.371094 976.140625 205.890625 C 968.613281 186.089844 960.6875 172.824219 950.273438 162.628906 C 934.335938 147.054688 913.347656 140.15625 893.167969 133.402344 C 884.015625 130.402344 874.433594 127.21875 865.652344 123.355469 C 858.816406 120.324219 851.953125 116.765625 847.796875 110.230469 C 842.304688 101.789062 842.621094 89.953125 848.550781 75.152344 C 851.289062 68.292969 854.523438 61.695312 857.292969 56.183594 L 859.085938 52.601562 C 867.90625 35.355469 876.277344 19.042969 878.097656 -0.128906 C 878.480469 -4.722656 878.597656 -10.609375 875.640625 -15.40625 C 873.019531 -19.800781 868.394531 -22.5 864.246094 -24.636719 C 826.167969 -44.890625 780.242188 -48.863281 738.550781 -35.621094 L 738.785156 -34.855469 C 780.246094 -48.042969 825.945312 -44.015625 863.957031 -23.839844 C 867.957031 -21.714844 872.515625 -19.097656 874.996094 -14.863281 C 877.820312 -10.226562 877.714844 -4.488281 877.34375 -0.0429688 C 875.617188 18.914062 867.246094 35.226562 858.4375 52.324219 L 856.644531 55.90625 C 853.875 61.417969 850.640625 68.015625 847.90625 74.875 C 841.878906 89.890625 841.621094 101.957031 847.167969 110.625 C 847.765625 111.496094 848.363281 112.363281 849.113281 113.246094 C 853.472656 118.238281 859.6875 121.515625 865.375 124.003906 Z M 854.195312 126.578125 C 863.535156 129.96875 873.464844 132.585938 883.097656 135.175781 C 904.640625 140.777344 926.832031 146.652344 943.375 162.128906 C 954.101562 172.199219 962.078125 185.695312 969.195312 205.984375 C 971.960938 213.976562 974.542969 222.398438 976.933594 230.429688 C 986.132812 261.488281 994.878906 290.863281 1021.992188 304.835938 C 1033.507812 310.792969 1046.566406 312.550781 1059.113281 314.191406 C 1067.457031 315.261719 1076.015625 316.421875 1084.246094 318.820312 C 1105.011719 324.800781 1122.671875 338.507812 1139.773438 351.71875 C 1144.609375 355.480469 1149.660156 359.332031 1154.722656 363.039062 C 1186.59375 386.207031 1213.707031 394.804688 1235.496094 388.488281 L 1235.257812 387.722656 C 1214.089844 393.792969 1186.3125 385.066406 1155.230469 362.332031 C 1150.234375 358.710938 1145.265625 354.789062 1140.347656 351.097656 C 1123.175781 337.804688 1105.449219 324.019531 1084.535156 318.023438 C 1076.304688 315.625 1067.667969 314.53125 1059.257812 313.382812 C 1046.710938 311.742188 1033.800781 309.996094 1022.351562 304.117188 C 995.523438 290.320312 986.84375 261.023438 977.628906 230.113281 C 975.171875 222 972.738281 213.59375 969.902344 205.523438 C 962.722656 185.152344 954.753906 171.507812 943.960938 161.359375 C 927.28125 145.71875 904.941406 139.832031 883.332031 134.152344 C 873.765625 131.640625 863.839844 129.023438 854.496094 125.632812 C 847.625 123.046875 840.074219 119.65625 835.699219 113.027344 C 828.550781 102.136719 832.964844 87.65625 838 77.332031 C 841.339844 70.375 845.167969 63.828125 848.464844 58.28125 C 849.503906 56.578125 850.539062 54.875 851.578125 53.171875 C 861.363281 36.898438 871.480469 20.210938 874.5 0.988281 C 875.234375 -3.351562 875.761719 -9.726562 872.828125 -14.820312 C 870.222656 -19.363281 865.371094 -22.003906 861.140625 -24.074219 C 821.449219 -43.792969 774.40625 -45.992188 732.0625 -30.269531 L 732.296875 -29.503906 C 774.398438 -45.023438 821.214844 -42.765625 860.769531 -23.207031 C 865 -21.140625 869.636719 -18.589844 872.109375 -14.207031 C 874.984375 -9.34375 874.46875 -3.117188 873.746094 1.074219 C 870.671875 20.066406 860.621094 36.839844 850.847656 52.960938 C 849.8125 54.664062 848.773438 56.367188 847.734375 58.074219 C 844.441406 63.617188 840.53125 70.230469 837.191406 77.191406 C 832.140625 87.664062 827.625 102.507812 834.976562 113.636719 C 835.507812 114.429688 835.972656 115.136719 836.582031 115.859375 C 841.203125 121.320312 848.039062 124.351562 854.195312 126.578125 Z M 842.917969 129.371094 C 852.742188 132.351562 863.234375 134.492188 873.210938 136.519531 C 895.960938 141.097656 919.582031 145.898438 936.796875 161.359375 C 956.089844 178.78125 963.296875 206.015625 970.214844 232.257812 C 978.601562 264.140625 986.542969 294.199219 1014.207031 307.84375 C 1025.882812 313.664062 1039.207031 314.921875 1052.089844 316.144531 C 1060.75 316.941406 1069.777344 317.839844 1078.25 320.039062 C 1099.929688 325.796875 1118.027344 340.507812 1135.421875 354.714844 C 1139.960938 358.449219 1144.648438 362.199219 1149.347656 365.796875 C 1171.433594 382.78125 1203.546875 401.199219 1231.078125 392.222656 L 1230.84375 391.457031 C 1203.621094 400.308594 1171.792969 382.066406 1149.851562 365.09375 C 1145.152344 361.496094 1140.546875 357.679688 1135.929688 354.011719 C 1118.464844 339.726562 1100.367188 325.011719 1078.472656 319.160156 C 1069.933594 316.882812 1060.90625 315.984375 1052.164062 315.253906 C 1039.28125 314.035156 1026.105469 312.785156 1014.496094 307.046875 C 987.199219 293.507812 979.324219 263.53125 970.910156 231.941406 C 963.9375 205.472656 956.664062 178.15625 937.238281 160.574219 C 919.886719 144.953125 896.195312 140.074219 873.296875 135.480469 C 863.171875 133.445312 852.828125 131.3125 843.007812 128.332031 C 836.164062 126.269531 827.777344 123.035156 823.203125 116.164062 C 815.375 104.46875 822.238281 88.328125 826.980469 79.773438 C 831.882812 71.078125 837.726562 62.6875 843.414062 54.429688 C 854.679688 38.285156 866.292969 21.566406 870.671875 2.160156 C 871.714844 -2.304688 872.632812 -8.867188 869.644531 -14.1875 C 867.039062 -18.734375 862.035156 -21.386719 857.660156 -23.46875 C 837.472656 -32.832031 814.613281 -37.871094 791.726562 -38.058594 C 769.066406 -38.304688 746.078125 -33.726562 725.277344 -24.9375 L 725.59375 -24.242188 C 746.3125 -32.960938 769.070312 -37.484375 791.664062 -37.316406 C 814.675781 -36.820312 837.386719 -31.796875 857.425781 -22.441406 C 861.800781 -20.363281 866.667969 -17.867188 869.136719 -13.484375 C 871.347656 -9.570312 871.601562 -4.550781 870.066406 2.261719 C 865.847656 21.53125 854.167969 38.164062 842.980469 54.246094 C 837.226562 62.421875 831.382812 70.8125 826.546875 79.585938 C 821.644531 88.28125 814.609375 104.707031 822.777344 116.800781 C 823.171875 117.429688 823.714844 118.070312 824.191406 118.632812 C 829 124.480469 836.589844 127.425781 842.917969 129.371094 Z M 842.917969 129.371094 " fill-opacity="1" fill-rule="nonzero"/></g></g></g></svg>